<svg width="31" height="30" viewBox="0 0 31 30" fill="none" xmlns="http://www.w3.org/2000/svg">
<circle cx="15.8516" cy="15" r="14.5" stroke="#373868"/>
<path d="M7.39604 13.5205L7.55187 13.7524C7.24021 13.7432 6.91389 13.713 6.85156 13.5791C6.85156 13.5727 6.8534 13.5663 6.85523 13.5599C7.02939 13.514 7.1788 13.5113 7.39604 13.5205ZM9.05148 14.2263L9.12664 14.4554L8.95065 14.4628L8.99281 14.2281C9.01298 14.2281 9.03131 14.2281 9.05148 14.2263ZM9.65095 15.8992C9.49512 16.0422 9.37505 16.1375 9.28247 16.3548C9.15414 16.2494 9.08722 16.0404 9.04598 15.8066C9.00014 15.5518 8.98548 15.2685 8.95065 15.0568L8.96165 14.9486L9.14222 14.9358L9.60237 15.8066L9.65095 15.8983V15.8992ZM9.41813 13.7524C9.44098 13.5958 9.46451 13.4394 9.48871 13.283L9.54829 13.2794C9.50429 13.437 9.46029 13.5947 9.41813 13.7524ZM9.29255 11.6239L10.1175 11.8475C10.1162 11.8597 10.1149 11.872 10.1138 11.8842C9.72978 12.1684 9.37505 12.293 9.18439 12.8064L9.2568 11.6642L9.29255 11.6248V11.6239ZM10.0625 10.4414C10.0094 10.973 10.0845 11.2077 10.1771 11.5377C10.3238 11.6422 10.3824 11.7055 10.3348 11.8604C10.0873 11.7375 9.82511 11.6092 9.44563 11.6294C9.43637 11.6188 9.42721 11.6081 9.41813 11.5973C9.52446 11.1784 9.73161 10.9208 9.89203 10.589L10.0634 10.4405L10.0625 10.4414ZM11.2486 9.73371L11.2844 9.73096C11.1707 10.1233 11.1249 11.028 10.926 11.3874C10.4558 11.1646 10.4649 10.1994 10.9911 9.81804L11.2486 9.73371ZM10.8105 12.6395L11.2065 13.0695C11.0506 13.548 10.7564 13.9082 10.6317 14.4628L10.398 14.4445C10.1982 13.8862 10.6977 12.9769 10.783 12.5699L11.1496 12.612C11.1955 12.7266 11.2395 12.8412 11.2844 12.9567L10.8105 12.6395ZM11.8939 9.73004C11.8536 10.1948 11.9563 10.4359 11.9838 10.7952C11.751 10.9144 11.5172 11.0317 11.2844 11.15C11.3276 10.6689 11.4429 10.197 11.6263 9.75021L11.8939 9.73004ZM12.1653 9.02421L12.2175 9.02055L12.1387 9.24696L11.9838 9.25705L12.1029 9.1168L12.1653 9.02421ZM12.2175 11.1921L11.5172 11.623C11.5319 11.3626 11.8637 11.0115 12.1414 10.9144L12.2056 10.9492L12.2175 11.1921ZM12.685 9.56229C12.6419 9.80246 12.5998 10.0417 12.5585 10.2819L12.4274 10.3644L12.3578 10.4405C12.2313 10.2626 12.1992 9.82629 12.2267 9.49446L12.685 9.56229ZM13.1506 9.02146C13.1506 9.03063 13.1488 9.03796 13.1479 9.0453L12.9692 9.21671C12.85 9.26255 12.8353 9.26071 12.685 9.25521C12.7042 9.1773 12.7262 9.09938 12.7473 9.02146H13.1506ZM13.6181 8.07547L13.4091 8.54755L12.685 8.4953L12.6877 8.4568C12.9857 8.3193 13.2469 8.15613 13.6172 8.07455L13.6181 8.07547ZM13.2405 9.3038L13.3175 9.25796L13.3844 9.49446L13.1506 9.44863L13.2405 9.30288V9.3038ZM13.851 10.0032C13.5732 10.1114 13.1891 10.0811 12.9664 10.2049C12.9504 10.1101 12.9342 10.0154 12.9178 9.92071L13.0626 9.73096C13.2982 9.82263 13.5338 9.91613 13.7685 10.0087L13.851 10.0032ZM13.2542 10.4285L12.9371 10.4405C12.9297 10.4075 12.9242 10.3745 12.9178 10.3405C13.1406 10.2498 13.5145 10.2415 13.851 10.204L13.4962 10.3992L13.2542 10.4285ZM14.0838 10.4285C13.817 10.4955 13.5613 10.731 13.3862 10.9144C13.3523 10.6999 13.7639 10.3222 13.9609 10.204C14.048 10.2819 14.0572 10.2736 14.0838 10.4285ZM14.5513 7.60247L14.5476 7.63913L14.2671 7.80872L13.851 7.83897L13.8546 7.8023L14.5513 7.60247ZM14.1736 8.31196L14.0838 8.17905C14.2946 8.00213 14.7593 8.0993 15.0178 8.12588L14.1736 8.31196ZM16.2617 7.6153C16.6513 7.64738 17.0078 7.73905 17.2791 7.90863L17.3506 7.90405L17.3076 7.96455L16.9345 8.07455C16.7099 8.04338 16.4853 8.01038 16.2617 7.9783L14.7841 7.76838L14.7877 7.73813C15.2701 7.62356 15.767 7.58246 16.2617 7.61622V7.6153ZM17.8135 7.49063L17.731 7.60247C17.5074 7.58647 17.2935 7.50412 17.1169 7.36597L17.8172 7.45488L17.8135 7.49063ZM19.0565 8.36513L19.2499 8.2918L19.4506 8.46413C19.4231 8.66121 19.2334 8.82255 19.0877 9.01413L18.9758 9.02146C18.6715 8.5173 18.2874 7.96638 17.6137 7.77205L17.5844 7.71247L17.8566 7.60247C18.314 7.76197 18.6953 8.00397 19.1197 8.1433C19.1747 8.27621 19.1573 8.2313 19.0556 8.36513H19.0565ZM19.6193 9.48621L19.5661 9.43396L19.4506 9.44221L19.6431 9.25888L19.6193 9.48621ZM19.8255 12.0969C20.1409 12.37 20.2215 12.766 20.0905 13.2794C19.9548 12.975 19.82 12.6698 19.6835 12.3655C19.7293 12.2976 19.7724 12.2298 19.8173 12.162C19.82 12.14 19.8219 12.118 19.8255 12.0969ZM19.9172 9.97021L19.9135 10.0142L19.7476 10.204L19.6835 10.0784C19.7834 9.89963 19.711 9.99588 19.842 9.97754L19.9172 9.97021ZM20.1115 9.96746L20.8503 10.2415C20.8494 10.2663 20.8467 10.291 20.8439 10.3149C20.7816 10.358 20.7193 10.3992 20.6569 10.4405L19.9172 10.1673L19.9236 10.093L20.1115 9.96746ZM21.5506 10.9144L21.1409 10.6421L21.0841 10.5321C21.2619 10.4221 21.2362 10.4276 21.4242 10.4643C21.4654 10.6146 21.5085 10.765 21.5506 10.9144ZM21.7835 10.8245L21.701 10.9144C21.602 10.863 21.5846 10.798 21.5506 10.677L21.7642 10.7705L21.7835 10.8245ZM21.6093 10.1471L21.5506 10.1517C21.6148 10.0903 21.679 10.0289 21.745 9.96838C21.6991 10.028 21.6533 10.0875 21.6093 10.1471ZM22.7175 11.337L22.6029 11.3874C22.3947 11.2707 22.1866 11.1537 21.9787 11.0363C21.9135 10.9478 21.8484 10.8592 21.7835 10.7705C22.107 10.5321 22.119 10.809 22.4242 10.9602L22.7175 11.337ZM22.9503 11.546L22.7175 11.4607L22.8578 11.3874L22.9503 11.546ZM22.6662 11.9273C22.7505 12.0969 22.7505 12.0492 22.9503 12.0235L22.5919 12.3334L22.25 11.6807L22.2546 11.6404C22.5067 11.5863 22.5874 11.677 22.8339 11.7137L22.9283 11.8659L22.6662 11.9273ZM22.7175 12.3517L23.1841 12.0969C23.0906 12.3077 22.9687 12.4159 22.8248 12.5699L22.7175 12.3517ZM23.6506 13.2546C23.5242 13.3637 23.4417 13.3985 23.2024 13.4187L23.3949 13.4398L23.3912 13.4737L22.734 13.7524L22.7175 12.909L23.1703 12.3728L23.2528 12.3334L23.6506 13.2546ZM23.4169 11.9603C24.7057 11.601 24.4564 12.2848 23.8816 12.8064C23.7258 12.525 23.5709 12.2426 23.4169 11.9603ZM24.5838 12.0969C24.109 14.328 24.0173 14.4499 22.338 15.4088C22.3105 15.3639 22.2803 15.3199 22.25 15.2759L22.3096 15.0265C23.405 14.7149 24.0274 14.141 23.9623 12.8421L24.5114 12.1363L24.5838 12.0969ZM24.6406 12.0969C24.6223 12.0199 24.6039 11.9429 24.5838 11.8659L24.7579 11.8604L24.6406 12.0969ZM21.7835 14.2666L21.8 14.02L21.8146 13.8092L21.976 13.7551C21.9842 13.7551 21.9915 13.7533 21.9989 13.7524C22.0447 14.032 21.9989 14.2382 21.9072 14.4628C21.8284 14.4124 21.8128 14.3913 21.7835 14.2666ZM20.8503 16.3364L20.854 16.2952L21.1602 15.5628L21.2243 15.4088L21.7633 15.4454C21.7716 15.4858 21.7771 15.5252 21.7798 15.5628C21.8036 15.8414 21.7074 16.0642 21.6084 16.3548L20.8503 16.3364ZM21.0841 17.2861L21.0905 16.9194L21.0997 16.8278L21.4938 16.8571L21.5506 16.8525C21.4599 17.0019 21.3701 17.1514 21.2812 17.3017L21.0841 17.2861ZM20.8531 15.7553L20.8769 15.7434L21.063 15.6471L21.0841 15.6453L21.0566 15.7434L20.9475 16.1183L20.8503 15.7846L20.8531 15.7553ZM20.4892 16.9332L20.3838 16.8278C20.4864 16.8993 20.4195 16.8296 20.4892 16.9332ZM19.9172 16.6518C20.0483 16.5693 20.1904 16.5949 20.3847 16.5968L20.3269 16.7865C20.1665 16.8507 20.1436 16.8269 19.963 16.8076L19.9172 16.6518ZM20.2032 17.5373L20.3838 17.9644C20.2444 18.0589 20.1042 18.1524 19.9649 18.2477C19.8402 18.0763 19.9759 17.5969 20.2032 17.5373ZM19.7421 16.0523L19.6835 16.0569L19.7605 15.8818L19.7421 16.0523ZM20.414 16.1183L20.3838 16.099L20.4864 15.8827L20.5204 15.8818L20.6175 16.1091L20.414 16.1183ZM22.03 13.0429L22.0172 12.9631C22.0786 12.888 22.118 12.8412 22.2235 12.8073L22.251 12.9466C22.2051 12.9769 22.1593 13.0062 22.1144 13.0374L22.03 13.0429ZM22.0172 13.6204C21.975 13.6763 21.8999 13.7075 21.8467 13.7524L21.7835 12.5699L22.0172 13.6204ZM21.5891 15.2062C21.7431 15.12 21.7651 15.1998 21.7835 15.4079H21.3169L21.3252 15.3345L21.5891 15.2062ZM21.36 14.5526L21.4654 14.4628L21.5506 14.6149L21.5112 14.6993L21.3169 14.6764L21.36 14.5526ZM21.3169 15.1796L21.074 15.4088L20.9154 15.3822L20.8513 15.3886C20.8879 15.3162 20.9264 15.2438 20.964 15.1723L21.3169 15.1796ZM20.4369 15.0449C20.3398 14.977 20.4094 14.9862 20.3911 14.9349L20.4369 15.0449ZM21.1721 13.9889L20.3838 13.58C20.4204 13.0392 20.4864 12.4177 20.4333 11.8604C21.041 12.0804 21.5864 13.0695 21.1721 13.9889ZM20.6175 13.9889C20.8109 14.0915 20.8008 14.185 21.0694 14.2675C21.1162 14.4426 21.0447 14.5123 20.9328 14.6984L20.6468 14.6874C20.5882 14.3757 20.6523 14.1969 20.6175 13.9889ZM20.6707 15.5188C20.5726 15.4509 20.6432 15.4601 20.6248 15.4088L20.6707 15.5188ZM22.25 13.2418L22.2528 13.1978L22.4636 13.0429C22.5003 13.2849 22.4865 13.6882 22.4315 13.9889C22.3069 13.8917 22.284 13.481 22.25 13.2418ZM22.25 13.9889C22.2977 13.91 22.3454 13.8312 22.3912 13.7524L22.3087 13.9852L22.25 13.9889ZM23.6112 13.2821L23.6506 13.2794C23.6616 14.186 23.1025 14.3509 22.3674 14.691L22.25 14.6993L22.7084 13.7496L23.6112 13.2821ZM22.2271 11.5111C22.2345 11.535 22.2427 11.5579 22.2491 11.5817L22.1914 11.6239L22.0163 11.3874L22.2271 11.5111ZM22.0163 11.9053L22.0227 11.864C22.0398 11.8627 22.0569 11.8615 22.074 11.8604L22.25 12.0969C22.1144 12.0327 22.0924 12.0171 22.0163 11.9053ZM22.2491 12.5103L21.9347 12.8064L21.2592 11.8255L20.3829 11.0647L20.5754 10.9144C20.9998 11.0977 21.7422 11.447 21.8916 11.8833C21.9402 12.0254 21.7725 12.1427 21.8861 12.261C22.0218 12.4021 22.1575 12.3013 22.25 12.5094L22.2491 12.5103ZM20.2802 13.9889L20.3517 14.0173L20.3829 14.6993L20.2738 14.6736C20.1711 14.5975 20.0996 14.2455 20.1931 14.0925L20.2802 13.9889ZM19.7632 15.175L19.8384 15.1723L19.9163 15.3574L19.7971 15.4033L19.6826 15.4088C19.7101 15.3309 19.7376 15.2529 19.7632 15.175ZM19.5506 18.9572L19.4497 18.6116C19.5936 18.5704 19.7366 18.5291 19.8805 18.486L19.9172 18.4842C19.9153 18.4948 19.9138 18.5055 19.9126 18.5163L19.5506 18.9572ZM19.216 18.0112C19.2591 17.8719 19.2893 17.8508 19.3672 17.7738L19.4314 17.7994L19.4497 17.8599L19.3058 18.0011L19.216 18.0103V18.0112ZM19.326 18.2477L19.216 18.1267L19.4497 18.0112L19.3892 18.2431L19.326 18.2477ZM19.0803 19.3202C19.0473 19.2945 19.0162 19.2679 18.9832 19.2404L19.0547 19.2359L19.4149 18.9572L19.4497 19.2414L19.1738 19.4302L19.0803 19.3202ZM19.0987 22.0298C18.5368 22.0537 18.2004 21.9107 17.742 21.8703L17.2168 20.8318L17.116 20.7273C17.9978 20.6228 18.5523 20.1974 19.2059 19.9032C19.4369 20.1232 19.9603 21.2433 19.4992 21.7393C19.3892 21.9088 19.2664 21.9263 19.0987 22.0298ZM16.6861 20.8629L16.8969 20.8492C17.215 21.0628 17.4313 21.445 17.5835 21.7961L16.6494 21.5257C16.7191 21.2892 16.7484 21.049 16.6861 20.8629ZM16.0151 19.9701L17.0674 19.6667L18.721 19.828L18.7503 19.9114C18.2581 20.1333 17.698 20.3203 17.1334 20.6063C16.522 20.6549 16.3744 20.4266 15.951 20.2763L16.0151 19.9701ZM15.95 21.0848L15.9711 20.8794L16.3735 20.8492C16.4065 21.0279 16.4413 21.1278 16.3919 21.3222L15.95 21.0838V21.0848ZM15.4826 21.4551L15.6393 21.3689C15.8318 21.2415 15.9757 21.4111 16.1829 21.478L16.1004 21.5587L15.4826 21.4551ZM15.9363 21.0857C15.8854 21.0631 15.8347 21.0401 15.7841 21.0169L15.7163 20.8492L15.95 20.8638L15.9363 21.0857ZM15.2497 21.0857L15.4835 21.2864C15.4835 21.4102 15.4725 21.3964 15.4441 21.5587L15.2497 21.0857ZM14.6448 20.1993C14.8638 20.1324 15.1553 20.147 15.4835 20.1397L15.1782 20.3762L14.5503 20.3148L14.6448 20.1993ZM14.0838 8.34405C14.5173 7.92972 15.6045 8.05347 15.8767 8.31655L15.95 8.31013C15.588 8.64838 15.027 8.68688 14.6823 9.02146C14.4119 8.8418 14.1883 8.7263 14.0838 8.34405ZM16.467 9.02146L16.6503 9.22955C16.4872 9.23871 16.3158 9.2488 16.1444 9.26346C15.7585 9.29646 15.3771 9.35421 15.1104 9.49263L15.0756 9.49446C15.0563 9.46423 15.037 9.43398 15.0178 9.40371C15.4557 9.17402 15.9391 9.0444 16.4331 9.02421L16.467 9.02146ZM17.3763 7.83897C17.6779 8.14147 18.1279 8.32113 18.2838 8.78496C17.6513 8.49071 16.6778 8.4953 16.1847 8.02688C16.6192 8.11947 16.9895 8.08463 17.3763 7.83897ZM17.5844 9.49446L18.4497 9.61363L18.5175 9.60813L17.8236 10.204C17.7136 9.98488 17.688 9.68788 17.5844 9.49446ZM18.6963 10.5065L18.5175 10.479L18.7503 10.4405L18.6953 10.5065H18.6963ZM18.5175 9.94088L18.7311 9.73096L18.7503 9.96746L18.5954 9.93354L18.5175 9.94088ZM18.941 17.7692L18.8383 17.7738L18.7503 17.6913L18.8182 17.6024L18.9832 17.5382L18.941 17.7692ZM18.7549 18.2019C18.7824 18.1689 18.8118 18.1359 18.8411 18.1029L18.8484 18.0112L18.9841 18.2266L18.7503 18.2477L18.7549 18.2019ZM18.6623 18.9572L18.5175 18.783L18.9841 18.7207L18.7613 18.9499L18.6623 18.9572ZM18.7503 19.6667L18.2838 19.6108L18.6138 19.4302L18.7503 19.6667ZM18.4231 18.9994L18.5175 19.0892L18.1793 19.1754L17.8172 19.1937L18.3214 18.9572L18.4231 18.9994ZM17.1178 8.78496C17.3901 8.7923 17.6779 8.86105 17.8172 9.02146C17.6293 9.00313 17.2911 9.03338 17.2058 8.88855L17.1178 8.78496ZM17.3543 9.73096C17.4872 9.84738 17.534 9.98488 17.5101 10.204C17.3048 10.1334 17.358 9.90879 17.3543 9.73096ZM17.5835 11.2224L17.5917 11.182C18.0565 11.0812 18.1564 11.2425 17.9446 11.3874C17.7613 11.3617 17.6779 11.293 17.5835 11.2224ZM18.182 17.3008L18.2838 17.3264C18.2824 17.3374 18.2812 17.3484 18.2801 17.3594L18.051 17.5373L18.1463 17.3035L18.182 17.3008ZM18.0537 11.5313L18.2279 11.3874L18.2838 11.6239L18.051 11.5725L18.0528 11.5313H18.0537ZM18.7503 17.8563L18.1866 18.0039L18.051 18.0103C18.051 18.0029 18.0528 17.9947 18.0546 17.9874C18.2654 17.9452 18.4011 17.8755 18.5258 17.7738L18.7238 17.8104L18.7503 17.8563ZM18.3479 17.3008L18.2838 17.1697L18.4442 17.0643L18.5175 17.1037L18.4259 17.2944L18.3479 17.3008ZM16.8841 18.937L17.1618 18.7207L18.0216 18.794L18.051 18.8582L17.4698 19.1937C17.2544 19.1579 17.0683 19.0626 16.9565 18.9315L16.8841 18.937ZM16.4523 18.9572L16.8832 19.1937L16.1838 19.0699C16.2736 19.0333 16.3625 18.9948 16.4523 18.9572ZM16.4175 19.4403C16.4165 19.4592 16.4156 19.4782 16.4148 19.4971L16.2819 19.5704L16.1838 19.5833L16.1874 19.5264C16.2892 19.3917 16.2718 19.4366 16.4166 19.4403H16.4175ZM15.3176 9.81254C15.2955 9.78882 15.2732 9.76529 15.2506 9.74196C15.4826 9.61546 15.8483 9.55496 16.2076 9.52655C16.5037 9.5018 16.7952 9.49904 17.0042 9.49446L17.1178 10.204C16.8126 10.171 16.522 10.1306 16.2076 10.1169C15.9359 10.1034 15.6636 10.1132 15.3936 10.1462C15.3688 10.0349 15.3434 9.92365 15.3176 9.81254ZM15.6604 19.3046L15.7172 19.4054L15.6622 19.6172L15.0178 19.6667C15.0866 19.4559 15.1892 19.3541 15.3001 19.1937L15.6604 19.3046ZM14.8647 18.4842C14.5714 18.4677 14.1699 18.2532 14.0838 18.0112L15.0178 18.2486L14.8647 18.4842ZM15.1929 18.4714L15.0178 18.4842L15.0233 18.4274L15.2176 18.2477C15.2085 18.3219 15.2011 18.3962 15.1929 18.4714ZM14.5513 9.82079L14.8354 9.73096L15.0178 9.96013L14.8253 9.96746L14.5513 9.82079ZM14.5476 19.9774C14.532 20.0288 14.5183 20.081 14.5036 20.1333C14.4807 20.1342 14.4578 20.1369 14.4358 20.1397C14.3965 20.0608 14.3571 19.982 14.3175 19.9032L14.5513 19.927L14.5476 19.9774ZM14.6768 18.9572L15.2213 19.0672L15.2506 19.1405L14.8281 19.6667L14.3175 19.5915L14.6768 18.9572ZM18.7503 11.5432L18.8558 11.3883L18.8943 11.3874L19.1876 11.4607L19.2169 11.5029L18.8897 11.6239C18.8433 11.5969 18.7968 11.57 18.7503 11.5432ZM19.3819 10.7787L19.2169 10.6779C19.3846 10.7393 19.2884 10.6696 19.3819 10.7787ZM19.3287 11.8604L19.2169 11.765L19.4506 11.6239L19.3287 11.8604ZM19.2169 13.5159L19.5799 13.6057C19.678 13.6442 19.6752 13.6543 19.6835 13.7524C19.5276 13.6928 19.2673 13.6515 19.2169 13.5159ZM19.2536 12.8715L19.3031 12.8073L19.4506 13.0429L19.2169 12.997L19.2536 12.8715ZM14.5265 20.6548L14.5513 20.7172L14.2369 20.8373L14.0838 20.8492L14.0874 20.8171L14.1947 20.6494C14.3432 20.5806 14.3468 20.6255 14.5265 20.6548ZM13.851 8.78405C14.0544 8.93621 14.1076 9.12321 14.0755 9.73096C13.9417 9.55954 13.8601 9.19563 13.851 8.78496V8.78405ZM13.9848 8.31196L13.9683 8.48338L13.8519 8.49163L13.9857 8.31196H13.9848ZM13.851 8.54846C13.8445 8.6053 13.84 8.66213 13.8326 8.71896L13.6172 8.67955L13.795 8.55213L13.85 8.54846H13.851ZM13.851 22.2691L13.9664 21.0646L14.7841 20.8492L13.9243 22.2251L13.851 22.2691ZM13.9087 19.0314L14.0343 18.9572C14.1489 19.0929 14.0462 19.2881 13.938 19.4302C13.8482 19.3459 13.8381 19.2927 13.862 19.1011L13.9087 19.0314ZM13.1506 18.9159L13.4192 18.4842L13.85 18.7372C13.7034 18.9682 13.554 19.1992 13.4055 19.4302C13.2716 19.311 13.1891 19.1359 13.1506 18.9169V18.9159ZM13.1506 20.7685L13.5815 20.3762L13.784 20.3945L13.851 20.5045C13.8326 20.62 13.8161 20.7346 13.7996 20.8492L13.1506 20.7685ZM12.4513 20.4477L12.9646 20.1397L13.3551 20.2011L13.3844 20.2552L12.9728 20.6127C12.7675 20.5916 12.6309 20.5366 12.5237 20.4431L12.4503 20.4477H12.4513ZM12.3825 19.9903L12.5704 19.9032L12.6511 19.9206L12.6841 19.9591L12.1405 20.1397L11.9847 20.0847L12.3825 19.9903ZM11.751 19.7684L11.8884 19.4357C12.1433 19.4027 12.2038 19.5283 12.3953 19.608L12.4503 19.6924L12.1653 19.8876L11.9334 19.9032L11.751 19.7684ZM11.2835 20.7392L11.6235 20.1397C11.849 20.1397 11.8765 20.158 11.9691 20.2772C12.0104 20.3469 11.9746 20.3093 11.8848 20.3249L11.8637 20.5311L12.2175 20.5861C12.1479 20.7593 12.1369 20.7364 12.0324 20.8464C11.684 20.8648 11.5264 20.7988 11.2835 20.7392ZM10.8912 19.9032L11.4842 20.0819L11.5172 20.1525L11.1368 20.6127L10.5841 20.4312L10.8912 19.9032ZM8.60599 19.2634L8.61333 19.1928L8.94423 19.4476L8.97265 19.5154C8.28426 20.0471 9.33746 21.7796 10.5355 20.6567L11.0506 20.8638C10.8527 21.2168 10.5126 21.3561 10.1542 21.5559C9.29713 21.6274 8.09818 20.2277 8.60599 19.2634ZM9.40529 19.5054L9.41813 19.6658C9.35396 19.6172 9.2898 19.5704 9.22747 19.5219L9.18439 19.4293L9.40529 19.5054ZM10.5841 20.51L10.1578 20.84C9.31821 20.928 8.97814 20.3469 8.95065 19.6328L9.11472 19.4348L9.18622 19.4293C9.60879 19.762 9.98277 20.2699 10.5566 20.4376L10.5841 20.51ZM9.77103 17.0634C9.69495 17.0084 9.69037 16.9809 9.65187 16.8874L9.81136 16.2805L9.99744 16.1174L10.1175 16.2934L9.77103 17.0634ZM9.65187 17.2678L10.0194 16.3979L10.0946 16.3539C10.2642 16.6527 10.5098 16.7884 10.5841 17.1944L10.0304 17.7729C9.85828 17.6446 9.72657 17.4696 9.65095 17.2687L9.65187 17.2678ZM10.3513 17.9919L10.8187 17.5364L11.0506 18.0103C10.8178 18.0029 10.585 17.9974 10.3513 17.9919ZM11.5172 13.2115C11.2963 13.6836 11.0021 14.0045 10.8261 14.4619C10.7491 14.0466 11.2129 13.4499 11.3623 13.0832L11.4338 13.042L11.5172 13.2115ZM11.5172 11.9099C11.8646 11.8026 12.0974 11.6065 12.3458 11.3865L12.4513 11.7018L12.1561 12.096L11.5172 11.9099ZM12.6841 11.9346L12.5576 12.096L12.4513 12.0776L12.4531 12.052L12.6657 11.8595L12.6841 11.9346ZM12.5008 10.9153L12.5374 10.9135L12.6841 11.2224L12.6291 11.3865C12.4155 11.2746 12.4238 11.1417 12.5008 10.9153ZM12.4568 17.7729L12.6722 17.9278L12.4513 17.8306C12.4525 17.8113 12.4543 17.792 12.4568 17.7729ZM12.4531 18.0103L12.6841 18.1102C12.6827 18.1193 12.6815 18.1285 12.6804 18.1377L12.1854 18.4833C12.0434 18.4191 12.0259 18.2917 11.9838 18.1533L11.9884 18.1239L12.4531 18.0103ZM11.7629 17.5364L11.9847 17.6262L11.8655 17.6949L11.751 17.7078L11.7629 17.5364ZM11.751 12.8064C12.0314 12.8852 11.9425 12.832 11.9544 13.042C11.8261 12.9668 11.8169 12.932 11.751 12.8064ZM11.751 17.0313L11.7702 16.8269C11.8793 16.9029 11.9169 16.9479 11.9847 17.0634C11.9068 17.0525 11.8289 17.0418 11.751 17.0313ZM12.2184 14.0769C12.1304 14.1896 12.1341 14.1594 11.9847 14.2245L12.0864 13.988L12.2184 14.0769ZM12.2184 13.1254L12.0718 13.2785C11.9251 13.196 11.9939 13.229 12.0599 13.0759L12.1469 13.042L12.2184 13.1254ZM12.1992 12.723L11.9847 12.569C12.1497 12.6322 12.1112 12.5937 12.1992 12.723ZM11.751 17.0634L11.9847 17.2494C11.8655 17.2467 11.8014 17.221 11.751 17.0634ZM12.4513 17.0542L12.3559 17.0634L12.2743 16.913L12.2175 16.8397L12.344 16.8269C12.3798 16.9029 12.4146 16.979 12.4513 17.0542ZM12.3229 12.6744L12.2175 12.5699C12.3202 12.6414 12.2523 12.5717 12.322 12.6753L12.3229 12.6744ZM12.3367 16.5702L12.2175 16.3227L12.2679 16.1192L12.2973 16.1174L12.4513 16.5904C12.4131 16.5836 12.3749 16.5769 12.3367 16.5702ZM11.7253 19.3229L11.751 19.3541L11.6675 19.6667C11.5694 19.6259 11.4829 19.5613 11.416 19.4788C11.3491 19.3962 11.3039 19.2982 11.2844 19.1937L11.7253 19.3239V19.3229ZM11.0506 19.6667L11.2844 19.8739C11.135 19.8079 11.1258 19.8106 11.0506 19.6667ZM11.454 17.5694L11.4815 17.7738L11.2844 17.5373L11.454 17.5694ZM11.223 18.6758L11.0506 18.2477C11.2551 18.3256 11.4145 18.5594 11.5181 18.7207L11.223 18.6758ZM11.4063 14.4646L11.464 14.4628L11.2936 14.6993C11.2661 14.6406 11.3 14.5847 11.3944 14.5159L11.4063 14.4646ZM11.2844 16.4978L11.2376 16.5913L11.1038 16.4877C11.0861 16.4501 11.0683 16.4125 11.0506 16.3749L11.234 16.3548L11.2844 16.4978ZM9.65095 18.4842C10.1184 18.7885 10.9132 19.0709 11.0506 19.6667C10.4964 19.3899 10.0165 18.9844 9.65095 18.4842ZM10.8637 18.255L11.0506 18.4842L10.5841 18.2477L10.8637 18.255ZM12.5723 18.9572L12.2175 18.5997L12.8381 18.0112L12.9178 18.6593L12.5723 18.9572ZM12.9178 19.3523L12.9792 19.1983L13.0617 19.1937L13.1506 19.4302L12.9178 19.3523ZM13.2322 18.4842L13.1506 18.2477L13.3202 18.2789L13.2322 18.4842ZM12.9178 10.5184L12.9197 10.4973C12.9967 10.479 13.0736 10.4606 13.1506 10.4405L12.9893 10.677L12.9178 10.5184ZM10.5648 15.4088L10.3513 14.9358C10.6253 14.9954 10.5804 15.1906 10.5648 15.4088ZM9.99377 15.6453C9.79395 15.5069 9.66653 15.2309 9.65095 14.9358C10.0607 15.032 10.0378 15.1934 10.1184 15.5674L9.99377 15.6453ZM9.7527 14.4105C9.45479 14.1291 9.88836 13.0035 10.079 12.744C10.1798 12.6166 10.3063 12.6194 10.4732 12.5699L10.5841 12.5983C10.3036 13.0951 10.1148 13.7716 10.0479 14.4628L9.7527 14.4105ZM9.3173 18.2477L9.45938 18.4869L9.33196 18.7849L9.25863 18.8628C9.36313 18.8774 9.38696 18.7876 9.54279 18.6602C9.84528 19.1506 10.3073 19.6199 10.8169 19.8867L10.5392 20.3762L9.69587 19.8335C9.59962 19.6548 9.73253 19.4494 9.57762 19.3404C9.43738 19.2414 9.2568 19.3844 9.11381 19.3413L8.71782 18.9783C8.83423 18.7179 8.94606 18.4631 9.17614 18.3302L9.3173 18.2477ZM8.51066 15.6389C8.54248 15.403 8.58808 15.1691 8.64724 14.9385L8.67841 14.9358L8.80032 15.6389L8.86448 16.0055C9.04781 16.517 9.23297 17.0276 9.41813 17.5373C8.97448 17.2953 8.70041 16.7352 8.73982 15.9817C8.63349 16.2246 8.72149 16.6069 8.75632 16.8214C8.48408 16.5904 8.45017 16.1311 8.51066 15.6389ZM8.10551 15.8818C8.06312 15.7923 8.03645 15.6962 8.02668 15.5976C8.01363 15.4649 8.01486 15.3313 8.03035 15.1989L8.07068 15.1145L8.25126 14.9358L8.14951 15.5967L8.10551 15.8809V15.8818ZM24.35 18.2468L23.8835 18.0671L24.3363 18.0112L24.35 18.2468ZM12.003 22.0968L12.1249 22.0326L11.9838 22.2682L12.0021 22.0977L12.003 22.0968ZM8.48408 13.9898L8.28517 13.9715C8.03768 13.8899 7.80577 13.6011 7.78469 13.2803C8.16326 13.3142 8.29159 13.4939 8.47858 13.713C8.48041 13.8046 8.48316 13.8972 8.48408 13.9898ZM8.45658 13.9705C8.48408 13.46 8.09451 13.141 7.58853 13.1547C7.6747 12.4379 8.29801 12.0712 8.85348 11.8301L8.96073 11.8219C8.86815 12.722 8.93873 13.4975 8.60233 14.2767C8.35392 14.8505 7.47304 14.8395 7.5207 15.725L7.52712 15.7984C7.6527 16.9754 8.93231 17.2146 9.10922 18.2495C7.2118 19.2148 9.52446 23.271 11.025 20.8886C11.2945 20.9271 11.5337 21.049 11.8683 20.9317C12.0241 20.8455 12.0544 20.7758 12.1149 20.5962L12.6511 20.8739L12.6786 20.9418C12.1873 21.3231 11.8408 21.8465 11.3128 22.204L11.3632 22.0592L11.2257 22.0344L11.1496 22.0757L11.0809 22.3965C11.3825 22.7045 12.2963 21.5908 12.564 21.3726C12.4128 21.9015 12.0388 22.1738 11.8307 22.6578L11.8949 22.7238C12.289 22.4414 12.7721 21.6421 12.8454 21.0343L13.4357 21.1324C12.696 22.1325 10.7958 24.3325 9.7967 24.9201C9.94886 24.4425 10.1908 24.0777 10.3137 23.6853L10.2422 23.6908C10.2209 23.6688 10.1995 23.6468 10.178 23.6248C9.93511 24.1033 9.53454 24.4398 9.46304 25.0851C9.50576 25.1491 9.55981 25.2047 9.62254 25.2492C10.8105 25.0512 12.7941 22.0656 13.7419 21.2498C13.4852 23.8256 12.1048 24.2271 10.9077 25.7873C11.9957 25.2446 12.6557 23.8604 13.586 23.0923C13.4834 24.1675 13.2276 26.5719 12.5842 27L12.6905 26.9918C13.4128 26.5426 13.455 24.6955 13.696 23.7513L13.7987 22.7586L14.8299 21.3103L14.9051 21.269C15.0206 21.6311 15.5431 22.0243 16.1086 21.9189L16.5147 21.7484L17.534 22.1298C17.6678 23.5964 17.6165 24.4187 16.6879 25.5352C17.6366 25.0503 17.985 23.1821 17.6687 22.1903C19.875 22.446 19.7861 21.7017 19.3682 20.0948L19.7559 20.1012C19.6844 19.9939 19.491 20.0737 19.3434 19.9912C19.2765 19.9481 19.2893 19.9564 19.2481 19.8922C19.7724 19.3009 21.0355 19.8885 20.7697 20.8703C21.1327 20.0563 20.3306 19.3321 19.5579 19.6236C19.8879 19.2322 20.2875 18.9104 20.4965 18.3925L20.5717 18.3522L22.3866 20.2589L22.4939 20.2506L22.5764 20.1388C21.9989 19.4549 21.4223 18.7702 20.8467 18.0854L21.0318 18.0011C21.0728 17.9589 21.123 17.9268 21.1786 17.9076C21.2341 17.8883 21.2935 17.8824 21.3517 17.8902C21.3211 17.875 21.2906 17.8597 21.2601 17.8444C22.1868 17.9369 23.3711 18.7097 24.3381 18.4604C24.427 18.3054 24.4316 18.222 24.3775 18.0708C25.4078 18.0964 27.2613 17.7518 27.8516 17.2513C26.2658 17.584 24.4802 17.6968 23.0246 17.5024L21.7349 17.3512L21.6625 17.3567L22.0099 16.7334C23.0732 16.7132 25.8616 16.6866 26.4253 16.0193L26.3006 15.8524L25.8148 15.7828C25.7726 15.8451 25.7662 15.9038 25.7598 15.9634L26.1448 16.0046C25.3088 16.2154 22.9806 16.66 22.2207 16.4006C22.141 16.3034 22.1996 15.9661 22.2033 15.7232C22.2046 15.6797 22.2028 15.6362 22.1978 15.593C23.2904 15.2667 24.1016 14.5315 24.4344 13.4224C24.6241 12.7871 24.4985 11.953 24.9092 11.557C25.1713 11.5799 25.2245 11.6908 25.417 11.766C25.3152 11.6248 25.1695 11.546 24.9871 11.4818L24.6452 11.7174C24.3326 11.8384 24.0054 11.5221 23.4747 11.7687C23.0438 11.4002 22.8009 10.8181 22.2189 10.5954L22.1593 10.4945L22.8651 9.80796C22.6341 10.0014 22.3985 10.2296 22.163 10.4588L21.69 10.247L21.6625 10.1783C22.2015 9.79696 22.6799 9.65579 23.2932 9.77679C23.3216 9.83363 23.3518 9.88954 23.3812 9.94638C23.3527 9.99496 23.3271 10.0087 23.3023 10.0225L23.0961 9.96746C23.185 10.0197 23.2776 10.0362 23.3702 10.0527L23.4481 9.97663L23.46 9.87029C23.3262 9.75113 23.2849 9.66496 23.0218 9.65579L23.1474 9.47063C22.8468 9.67779 22.2363 9.73279 21.9375 9.91246L22.6286 9.36796L22.7111 9.25705L21.4324 10.0197C21.1592 10.0014 20.8687 9.87304 20.7211 9.71996C20.6976 9.72177 20.674 9.72361 20.6505 9.72546L22.1685 8.6988L22.1437 8.59521C21.5681 8.93071 20.9915 9.26621 20.4168 9.60263L19.865 9.46696L19.9163 8.97105L23.8734 5.86355L23.944 5.85805L23.8881 5.72147C23.7414 5.6518 23.1392 6.14039 22.9118 6.28614C22.0355 6.84805 21.261 7.54747 20.3994 8.0553C20.755 7.60338 21.4058 7.1533 21.514 6.49514L21.3398 6.47314L21.0685 6.70414L21.3637 6.5758C21.173 7.15605 20.3095 8.19188 19.8219 8.52005L19.765 8.38346C20.0822 7.84997 20.3948 7.13222 20.2481 6.44747L19.9823 6.29164L19.6972 6.31272C19.8796 6.38514 20.0034 6.40255 20.1372 6.49147C20.2224 7.15513 19.8961 7.6043 19.7201 8.14147L19.645 8.1818C19.5276 7.96455 19.535 7.86005 19.2939 7.82063L19.2728 7.6813L19.4378 7.45763L19.5515 7.3788C19.59 7.45213 19.5918 7.42555 19.6037 7.55113C19.6375 7.49717 19.6562 7.43512 19.6578 7.37147L19.5231 7.31097L19.1665 7.68863C18.8686 7.48972 18.5404 7.28072 18.1215 7.2028C18.3589 6.71055 19.0803 5.91947 18.7082 5.29522C18.2535 4.53622 16.7017 5.41072 16.1334 6.01297C16.0674 6.08012 16.0101 6.15526 15.9629 6.23664C15.9995 6.2073 16.0582 6.16147 16.1334 6.10464C16.6943 5.68664 18.1875 4.68564 18.5111 5.48589C18.8503 5.9323 18.2004 6.79122 18.0235 7.14047C17.4185 7.07905 16.786 7.0213 16.1352 7.03413C15.4502 7.04011 14.77 7.14951 14.1177 7.35863C13.7877 7.46772 12.3798 8.31105 12.3257 8.30005L11.684 7.67855L10.3421 7.0048L10.3348 7.07538L10.2559 7.15147L11.9755 8.60713L11.7134 8.76755C11.0057 8.2313 10.5181 7.90588 9.46488 7.6318L9.28705 7.64555C9.90211 8.06905 10.5218 8.4568 11.1405 8.84546L11.2642 9.0123C10.8224 9.19838 10.6354 9.58521 10.2623 9.82538C9.67937 9.54671 9.13947 9.29371 8.43275 9.08013L8.38325 9.22496L9.70687 10.0775L9.77836 10.072L9.55012 10.2296C9.44471 10.5844 9.23847 10.996 9.06614 11.4965C8.40617 12.0336 7.55095 12.0015 7.41804 13.096C7.20722 13.1538 7.05872 13.1721 6.86623 13.3133L6.85156 13.4554C6.97256 13.624 8.0441 14.0778 8.29984 14.1218L8.4575 13.9696L8.45658 13.9705ZM16.2846 6.40255L16.3827 6.42089L16.2516 6.40439C16.2287 6.40439 16.2058 6.40622 16.1838 6.40714C16.2874 6.21464 16.5917 6.16697 16.8841 6.18805L16.8639 6.32739L16.2919 6.3558L16.2846 6.40255ZM16.6934 6.65647L16.9684 6.56664C17.0876 6.36864 17.1554 6.15872 17.0949 5.96714C16.8117 5.91122 16.6485 5.97997 16.3836 6.0918C16.3354 6.17019 16.2874 6.24871 16.2397 6.32739L16.1847 6.41905C16.2016 6.43873 16.22 6.45711 16.2397 6.47405C16.3295 6.54739 16.4377 6.57305 16.6366 6.55655C16.6916 6.65005 16.6274 6.6088 16.5293 6.63447L16.6943 6.65647H16.6934ZM23.4792 8.78588L23.1841 8.84088L23.3656 8.82805L23.5737 8.91788L23.2583 9.49538C23.4206 9.3038 23.5819 9.16813 23.6506 8.87755L23.4792 8.78588ZM21.7835 18.0121C21.7101 17.881 21.6304 17.7949 21.5506 17.7747C21.6212 17.8416 21.7028 17.9204 21.7835 18.0121ZM20.8503 20.8501L20.6175 20.9858L20.7963 20.9693L20.8513 20.8501H20.8503ZM21.7835 18.0121C22.0209 18.2798 22.1987 18.7931 22.1474 19.1946C22.4169 18.6125 22.1098 18.2495 21.7835 18.0121Z" fill="#373868"/>
</svg>
