<svg width="30" height="30" viewBox="0 0 30 30" fill="none" xmlns="http://www.w3.org/2000/svg">
<circle cx="15" cy="15" r="14.5" stroke="white"/>
<path d="M7.50977 15.0258C7.50977 13.0469 7.50977 11.0613 7.50977 9.08242C7.50977 7.87383 8.17383 7.20312 9.36914 7.20312C13.141 7.20312 16.9195 7.20312 20.6914 7.20312C21.7738 7.20312 22.4777 7.90039 22.4777 8.98945C22.4777 13.0203 22.4844 17.0445 22.4777 21.0754C22.4777 22.1578 21.7672 22.8551 20.6848 22.8551C16.8863 22.8551 13.0945 22.8551 9.2961 22.8551C8.21367 22.8551 7.50977 22.1578 7.50977 21.0687C7.50977 19.05 7.50977 17.0379 7.50977 15.0258ZM9.14336 13.5715C9.14336 13.7043 9.14336 13.8039 9.14336 13.9035C9.14336 16.0484 9.14336 18.1934 9.14336 20.3449C9.14336 20.9691 9.3293 21.1551 9.95351 21.1551C13.3137 21.1551 16.6805 21.1551 20.0406 21.1551C20.6648 21.1551 20.8508 20.9691 20.8508 20.3449C20.8508 18.2 20.8508 16.0551 20.8508 13.9035C20.8508 13.7973 20.8375 13.691 20.8375 13.5781C20.3594 13.5781 19.9145 13.5781 19.4695 13.5781C19.9543 15.7762 19.4695 17.6621 17.6301 19.0234C16.1559 20.1059 14.509 20.2453 12.9086 19.3488C10.6375 18.0805 10.0266 16.0352 10.5246 13.5715C10.0664 13.5715 9.62813 13.5715 9.14336 13.5715ZM11.9656 15.0059C11.9258 16.7059 13.2871 18.1668 14.9473 18.2C16.6008 18.2398 18.002 16.8187 18.0285 15.0656C18.0617 13.3523 16.707 11.8914 15.0602 11.8516C13.3867 11.8184 12.0055 13.2195 11.9656 15.0059ZM20.8508 9.85938C20.8508 9.61367 20.8574 9.37461 20.8508 9.12891C20.8375 8.72383 20.6184 8.49141 20.2133 8.47812C19.775 8.46484 19.3301 8.46484 18.8918 8.47812C18.4668 8.49141 18.2477 8.71719 18.241 9.14883C18.2344 9.62031 18.2344 10.0984 18.241 10.5699C18.2477 10.9816 18.4668 11.2074 18.8785 11.2207C19.3301 11.234 19.7816 11.234 20.2332 11.2207C20.6184 11.2074 20.8375 10.9684 20.8508 10.5832C20.8574 10.3441 20.8508 10.0984 20.8508 9.85938Z" fill="white"/>
</svg>
