<svg width="31" height="30" viewBox="0 0 31 30" fill="none" xmlns="http://www.w3.org/2000/svg">
<circle cx="15.8516" cy="15" r="14.5" stroke="#373868"/>
<path fill-rule="evenodd" clip-rule="evenodd" d="M6.852 14.4613C6.84435 13.5306 6.93441 11.3757 7.35683 10.2011C7.52519 9.71174 8.10986 8.6126 9.10163 8.13123C10.3413 7.52951 12.9356 7 15.8512 7C18.7668 7 21.384 7.52951 22.6237 8.13123C23.6155 8.6126 24.2002 9.71174 24.3685 10.2011C24.7909 11.3757 24.8587 13.5066 24.851 14.4372L24.8506 14.4854C24.8583 15.416 24.7906 17.7635 24.3681 18.9381C24.1998 19.4275 23.6151 20.5266 22.6233 21.008C22.3263 21.1522 21.9501 21.2922 21.5096 21.4218C21.3686 21.4633 21.2695 21.597 21.2695 21.7505V24.8071C21.2695 24.9706 21.0872 25.0597 20.9677 24.9546L17.959 22.308C17.7852 22.1551 17.5616 22.08 17.3352 22.0938C16.8531 22.1233 16.3565 22.1392 15.8508 22.1392C12.9352 22.1392 10.341 21.6097 9.10124 21.008C8.10947 20.5266 7.5248 19.4275 7.35644 18.9381C6.93402 17.7635 6.84435 15.3919 6.852 14.4613ZM12.0864 10.5381H19.5706C19.7988 10.5381 19.9838 10.7321 19.9838 10.9713V12.8968C19.9838 13.1361 19.7988 13.3301 19.5706 13.3301H17.8258C17.5469 13.3301 17.3207 13.5671 17.3207 13.8596V18.8177C17.3207 19.057 17.1357 19.251 16.9075 19.251H14.7954C14.5672 19.251 14.3821 19.057 14.3821 18.8177V13.8596C14.3821 13.5671 14.156 13.3301 13.8771 13.3301H12.0864C11.8581 13.3301 11.6731 13.1361 11.6731 12.8968V10.9713C11.6731 10.7321 11.8581 10.5381 12.0864 10.5381Z" fill="#373868"/>
</svg>
