<svg width="31" height="30" viewBox="0 0 31 30" fill="none" xmlns="http://www.w3.org/2000/svg">
<circle cx="15.8516" cy="15" r="14.5" stroke="#373868"/>
<path fill-rule="evenodd" clip-rule="evenodd" d="M24.4141 10.7382C24.5478 10.3039 24.4141 10 23.7904 10H21.7114C21.1768 10 20.9392 10.275 20.8055 10.5789C20.8055 10.5789 19.7512 13.0974 18.2513 14.7184C17.7613 15.1961 17.5534 15.3408 17.2861 15.3408C17.1524 15.3408 16.9594 15.1961 16.9594 14.7618V10.7382C16.9594 10.2171 16.8109 10 16.3654 10H13.0984C12.7717 10 12.5638 10.2461 12.5638 10.4632C12.5638 10.9553 13.3063 11.0711 13.3954 12.4316V15.4132C13.3954 16.0645 13.2766 16.1803 13.0093 16.1803C12.3113 16.1803 10.5887 13.6618 9.57892 10.7671C9.37102 10.2316 9.17797 10 8.64337 10H6.56436C5.97036 10 5.85156 10.275 5.85156 10.5789C5.85156 11.1145 6.54951 13.7776 9.13342 17.2947C10.856 19.6974 13.2766 21 15.4744 21C16.796 21 16.9594 20.7105 16.9594 20.2184V18.3947C16.9594 17.8158 17.0782 17.7 17.5088 17.7C17.8207 17.7 18.3404 17.8447 19.573 19.0026C20.9837 20.3776 21.2213 21 22.0084 21H24.0874C24.6814 21 24.9784 20.7105 24.8002 20.1461C24.6072 19.5816 23.9389 18.7566 23.0479 17.7724C22.5578 17.2079 21.8302 16.6145 21.6223 16.3105C21.3104 15.9197 21.3995 15.7461 21.6223 15.4132C21.6223 15.3987 24.1616 11.925 24.4141 10.7382Z" fill="#373868"/>
</svg>
