<svg width="40" height="41" viewBox="0 0 40 41" fill="none" xmlns="http://www.w3.org/2000/svg">
<path fill-rule="evenodd" clip-rule="evenodd" d="M18.9546 21.8542H21.0406V23.4756C21.7064 23.6108 22.3262 23.8728 22.8736 24.2353L24.0204 23.0885L25.4954 24.5635L24.3486 25.7103C24.7111 26.2577 24.9731 26.8775 25.1082 27.5433H26.7296V29.6292H25.1082C24.9731 30.295 24.7111 30.9148 24.3486 31.4621L25.4954 32.6089L24.0204 34.0839L22.8736 32.9371C22.3262 33.2997 21.7064 33.5617 21.0406 33.6968V35.3182H18.9546V33.6968C18.2888 33.5617 17.6691 33.2997 17.1217 32.9372L15.9749 34.0839L14.4999 32.6089L15.6467 31.4622C15.2842 30.9148 15.0222 30.295 14.887 29.6292H13.2656V27.5433H14.887C15.0222 26.8774 15.2842 26.2576 15.6467 25.7103L14.4999 24.5635L15.9749 23.0885L17.1217 24.2353C17.6691 23.8728 18.2888 23.6108 18.9546 23.4756V21.8542ZM19.9969 30.7122C21.171 30.7122 22.1228 29.7604 22.1228 28.5863C22.1228 27.4122 21.171 26.4604 19.9969 26.4604C18.8228 26.4604 17.871 27.4122 17.871 28.5863C17.871 29.7604 18.8228 30.7122 19.9969 30.7122Z" fill="#1A1F36"/>
<path fill-rule="evenodd" clip-rule="evenodd" d="M7.95263 11.4611C9.58332 11.4611 10.9053 10.1392 10.9053 8.50847C10.9053 6.87778 9.58332 5.55585 7.95263 5.55585C6.32194 5.55585 5 6.87778 5 8.50847C5 10.1392 6.32194 11.4611 7.95263 11.4611ZM7.95348 9.68947C8.60576 9.68947 9.13454 9.16069 9.13454 8.50842C9.13454 7.85614 8.60576 7.32737 7.95348 7.32737C7.30121 7.32737 6.77243 7.85614 6.77243 8.50842C6.77243 9.16069 7.30121 9.68947 7.95348 9.68947Z" fill="#00A6ED"/>
<path fill-rule="evenodd" clip-rule="evenodd" d="M32.0464 11.4611C33.6771 11.4611 34.999 10.1392 34.999 8.50847C34.999 6.87778 33.6771 5.55585 32.0464 5.55585C30.4157 5.55585 29.0938 6.87778 29.0938 8.50847C29.0938 10.1392 30.4157 11.4611 32.0464 11.4611ZM32.0472 9.68947C32.6995 9.68947 33.2283 9.16069 33.2283 8.50842C33.2283 7.85614 32.6995 7.32737 32.0472 7.32737C31.395 7.32737 30.8662 7.85614 30.8662 8.50842C30.8662 9.16069 31.395 9.68947 32.0472 9.68947Z" fill="#00A6ED"/>
<path fill-rule="evenodd" clip-rule="evenodd" d="M19.9975 11.4611C21.6282 11.4611 22.9502 10.1392 22.9502 8.50847C22.9502 6.87778 21.6282 5.55585 19.9975 5.55585C18.3669 5.55585 17.0449 6.87778 17.0449 8.50847C17.0449 10.1392 18.3669 11.4611 19.9975 11.4611ZM19.9984 9.68947C20.6507 9.68947 21.1795 9.16069 21.1795 8.50842C21.1795 7.85614 20.6507 7.32737 19.9984 7.32737C19.3461 7.32737 18.8174 7.85614 18.8174 8.50842C18.8174 9.16069 19.3461 9.68947 19.9984 9.68947Z" fill="#00A6ED"/>
<path fill-rule="evenodd" clip-rule="evenodd" d="M7.24414 10.5164H8.6614V15.6557L12.4998 19.4941V17.8389H13.9171V21.9135H9.7834V20.4962H11.4977L7.24414 16.2427V10.5164ZM19.3499 17.6635V10.5164H20.7672V17.6635L21.8605 16.5701L22.8627 17.5723L20.0585 20.3764L17.2544 17.5723L18.2566 16.5701L19.3499 17.6635ZM31.2785 15.6557V10.5164H32.6958V16.2427L28.4423 20.4962H30.1565V21.9135H26.0229V17.8389H27.4401V19.4941L31.2785 15.6557Z" fill="#00A6ED"/>
</svg>
