<svg width="40" height="41" viewBox="0 0 40 41" fill="none" xmlns="http://www.w3.org/2000/svg">
<path d="M5 5.4791C6.66663 5.4791 8.2916 5.43744 9.95823 5.43744C11.2499 5.43744 11.2499 5.43744 11.6665 6.64575C11.8749 7.1874 11.9582 7.93739 12.3332 8.18738C12.7082 8.43738 13.4165 8.27071 13.9998 8.27071C19.083 8.27071 24.2079 8.27071 29.2912 8.27071C29.4995 8.27071 29.7495 8.27071 29.9995 8.27071C29.9995 8.81237 29.9995 9.27069 29.9995 9.81235C21.958 9.81235 13.9165 9.81235 5.83332 9.81235C5.83332 10.104 5.83332 10.2707 5.83332 10.479C5.83332 13.4373 5.91665 16.4372 5.79165 19.3955C5.74998 20.6038 5.29166 21.8538 5 23.0621C5 17.2289 5 11.354 5 5.4791Z" fill="#1A1F36"/>
<path d="M29.3747 18.6869C27.9163 18.6869 26.5414 18.6869 25.0831 18.6869C25.0414 19.3119 24.9997 19.8952 24.9164 20.4786C24.8747 20.6869 24.7497 20.9369 24.5831 21.0619C24.3331 21.3119 24.0831 21.1452 23.8331 20.9369C23.4164 20.5202 22.9581 20.1869 22.5831 19.8536C21.5415 20.8952 20.5832 21.8535 19.5415 22.8952C19.8748 23.2702 20.2915 23.7702 20.6665 24.2701C20.7915 24.4368 20.7915 24.6868 20.7915 24.8535C20.7498 25.1451 20.5415 25.2701 20.2082 25.3118C19.6249 25.3118 18.9999 25.3951 18.3332 25.4785C18.3332 26.3118 18.3332 27.1451 18.3332 27.9784C13.9166 27.9784 9.62506 27.9784 5.20848 27.9784C5.50014 26.8534 5.7918 25.7284 6.0418 24.6451C6.87511 21.3119 7.7501 17.9369 8.58341 14.6037C8.66674 14.187 8.83341 14.1037 9.25006 14.1037C17.1666 14.1037 25.1247 14.1037 33.0412 14.1037C33.2079 14.1037 33.3746 14.1037 33.5829 14.1454C33.0412 16.0203 32.6246 17.8536 31.9579 19.6036C31.7079 20.2702 30.8746 20.7285 30.2496 21.1869C30.0413 21.3119 29.5413 21.1452 29.5413 20.6869C29.4997 20.0202 29.458 19.3536 29.3747 18.6869ZM17.4582 22.0202C17.9166 20.1869 18.3749 18.3953 18.8749 16.5203C18.5832 16.5203 18.3332 16.5203 18.1249 16.5203C16.0833 16.5203 14.0416 16.5203 12 16.5203C11.4584 16.5203 10.7917 16.3536 10.4167 16.6453C10.0834 16.8953 10.0417 17.6036 9.91672 18.1453C9.58339 19.4369 9.25006 20.7285 8.91674 22.0619C11.7917 22.0202 14.5833 22.0202 17.4582 22.0202Z" fill="#1A1F36"/>
<path d="M7.125 14.6041C7.125 13.5208 7.125 12.3958 7.125 11.2708C15.3748 11.2708 23.6247 11.2708 31.8745 11.2708C31.8745 11.7291 31.8745 12.2291 31.8745 12.7708C31.6662 12.7708 31.4162 12.8124 31.1662 12.8124C23.5413 12.8124 15.9165 12.8124 8.29164 12.8124C7.79166 12.8124 7.54166 12.8958 7.45833 13.4374C7.41666 13.8541 7.25 14.2707 7.16667 14.6457C7.16667 14.6041 7.16667 14.6041 7.125 14.6041Z" fill="#1A1F36"/>
<path d="M17.1246 17.8537C16.9163 18.7704 16.7497 19.562 16.4997 20.3537C16.458 20.4787 16.2913 20.687 16.1663 20.687C14.3747 20.7287 12.5831 20.687 10.6664 20.687C10.9164 19.7287 11.1248 18.8537 11.4164 17.9787C11.4581 17.8954 11.6248 17.812 11.7498 17.812C13.4997 17.8537 15.2913 17.8537 17.1246 17.8537Z" fill="#1A1F36"/>
<path fill-rule="evenodd" clip-rule="evenodd" d="M26.0976 20.0202H28.486V21.8767C29.2484 22.0315 29.958 22.3315 30.5848 22.7466L31.8979 21.4334L33.5868 23.1223L32.2737 24.4354C32.6888 25.0622 32.9888 25.7718 33.1435 26.5342H35V28.9226H33.1435C32.9888 29.685 32.6888 30.3946 32.2737 31.0213L33.5868 32.3344L31.8979 34.0233L30.5848 32.7102C29.9581 33.1253 29.2484 33.4253 28.486 33.5801V35.4366H26.0976V33.5801C25.3353 33.4253 24.6256 33.1253 23.9989 32.7102L22.6858 34.0233L20.9969 32.3344L22.31 31.0214C21.8949 30.3946 21.5949 29.685 21.4401 28.9226H19.5836V26.5342H21.4401C21.5949 25.7718 21.8949 25.0621 22.31 24.4354L20.9969 23.1223L22.6858 21.4334L23.9989 22.7465C24.6257 22.3315 25.3353 22.0314 26.0976 21.8767V20.0202ZM31.0916 27.7284C31.0916 29.827 29.3904 31.5282 27.2918 31.5282C25.1932 31.5282 23.492 29.827 23.492 27.7284C23.492 25.6298 25.1932 23.9286 27.2918 23.9286C29.3904 23.9286 31.0916 25.6298 31.0916 27.7284ZM27.2917 30.0199C28.5573 30.0199 29.5833 28.9939 29.5833 27.7282C29.5833 26.4626 28.5573 25.4366 27.2917 25.4366C26.026 25.4366 25.0001 26.4626 25.0001 27.7282C25.0001 28.9939 26.026 30.0199 27.2917 30.0199Z" fill="#1AA1F7"/>
</svg>
