<svg width="40" height="40" viewBox="0 0 40 40" fill="none" xmlns="http://www.w3.org/2000/svg">
<path fill-rule="evenodd" clip-rule="evenodd" d="M8.62109 12.1212H35.0004V34.6487H8.62109V12.1212ZM9.90433 18.074H33.7157V33.248H9.90433V18.074ZM13.1756 14.5724H11.8917V15.8564H13.1756V14.5724ZM14.691 14.5724H15.975V15.8564H14.691V14.5724ZM18.7787 14.5724H17.4948V15.8564H18.7787V14.5724Z" fill="#1A1F36"/>
<rect x="11.6523" y="19.7081" width="5.13579" height="2.33445" fill="#7B3BE3"/>
<rect x="11.6523" y="24.4938" width="5.13579" height="2.33445" fill="#7B3BE3"/>
<rect x="11.6523" y="29.2795" width="5.13579" height="2.33445" fill="#7B3BE3"/>
<rect x="19.2422" y="19.7081" width="5.13579" height="2.33445" fill="#7B3BE3"/>
<rect x="19.2422" y="24.4938" width="5.13579" height="2.33445" fill="#7B3BE3"/>
<rect x="19.2422" y="29.2795" width="5.13579" height="2.33445" fill="#7B3BE3"/>
<rect x="26.8281" y="19.7081" width="5.13579" height="2.33445" fill="#7B3BE3"/>
<rect x="26.8281" y="24.4938" width="5.13579" height="2.33445" fill="#7B3BE3"/>
<rect x="26.8281" y="29.2795" width="5.13579" height="2.33445" fill="#7B3BE3"/>
<path d="M8.96857 9.20316V5.35132H8.85184L5 9.20316H8.96857Z" fill="#1A1F36"/>
<path d="M23.5589 5.35132H10.1358V10.4871H5V26.4197H7.39281V10.8956H23.5589V5.35132Z" fill="#1A1F36"/>
</svg>
