<svg width="40" height="36" viewBox="0 0 40 36" fill="none" xmlns="http://www.w3.org/2000/svg">
<rect width="40" height="36" rx="18" fill="white" fill-opacity="0.2"/>
<path d="M18 15.6067C18.1762 15.1454 18.524 14.7565 18.9817 14.5087C19.4395 14.2609 19.9777 14.1704 20.501 14.253C21.0243 14.3357 21.499 14.5863 21.8409 14.9604C22.1829 15.3344 22.37 15.8079 22.3692 16.2969C22.3692 17.6772 20.1209 18.3674 20.1209 18.3674M20.1499 21.1302H20.1599M21.6837 24.8139H25.8C26.9201 24.8139 27.4802 24.8139 27.908 24.5959C28.2843 24.4042 28.5903 24.0982 28.782 23.7219C29 23.294 29 22.734 29 21.6139V14.2C29 13.0799 29 12.5198 28.782 12.092C28.5903 11.7157 28.2843 11.4097 27.908 11.218C27.4802 11 26.9201 11 25.8 11L14.2 11C13.0799 11 12.5198 11 12.092 11.218C11.7157 11.4097 11.4097 11.7157 11.218 12.092C11 12.5198 11 13.0799 11 14.2V21.6139C11 22.734 11 23.294 11.218 23.7219C11.4097 24.0982 11.7157 24.4042 12.092 24.5959C12.5198 24.8139 13.0799 24.8139 14.2 24.8139H15V26.9647C15 27.4554 15 27.7008 15.1092 27.8268C15.2042 27.9364 15.3483 28.0002 15.5005 28C15.6756 27.9998 15.8837 27.8466 16.2998 27.54L18.6852 25.7825C19.1725 25.4235 19.4162 25.244 19.6875 25.1164C19.9282 25.0031 20.1844 24.9203 20.4492 24.8703C20.7477 24.8139 21.0597 24.8139 21.6837 24.8139Z" stroke="white" stroke-width="2" stroke-linecap="round" stroke-linejoin="round"/>
</svg>
