<svg width="100" height="22" viewBox="0 0 100 22" fill="none" xmlns="http://www.w3.org/2000/svg">
<path d="M52.3077 2.44344V19.5567C52.3077 20.4159 51.6189 21.1124 50.7692 21.1124C49.9196 21.1124 49.2308 20.4159 49.2308 19.5567V2.44344C49.2308 1.58423 49.9196 0.887695 50.7692 0.887695C51.6189 0.887695 52.3077 1.58423 52.3077 2.44344Z" fill="white"/>
<path d="M94.2308 21.1124C97.417 21.1124 100 18.5004 100 15.2784C100 12.0563 97.417 9.44431 94.2308 9.44431H90.3846C88.8977 9.44431 87.6923 8.22538 87.6923 6.72175C87.6923 5.21812 88.8977 3.99919 90.3846 3.99919H96.8464C97.6961 3.99919 98.3849 3.30266 98.3849 2.44344C98.3849 1.58423 97.6961 0.887695 96.8464 0.887695H90.3846C87.1984 0.887695 84.6154 3.49969 84.6154 6.72175C84.6154 9.94381 87.1984 12.5558 90.3846 12.5558H94.2308C95.7177 12.5558 96.9231 13.7747 96.9231 15.2784C96.9231 16.782 95.7177 18.0009 94.2308 18.0009H87.6923C86.8426 18.0009 86.1538 18.6975 86.1538 19.5567C86.1538 20.4159 86.8426 21.1124 87.6923 21.1124H94.2308Z" fill="white"/>
<path fill-rule="evenodd" clip-rule="evenodd" d="M76.9231 13.3337C76.9231 17.6298 73.4791 21.1124 69.2308 21.1124C64.9824 21.1124 61.5385 17.6298 61.5385 13.3337V8.66644C61.5385 4.37036 64.9824 0.887695 69.2308 0.887695C73.4791 0.887695 76.9231 4.37036 76.9231 8.66644V13.3337ZM73.8462 13.3337C73.8462 15.9113 71.7798 18.0009 69.2308 18.0009C66.6818 18.0009 64.6154 15.9113 64.6154 13.3337V8.66644C64.6154 6.08879 66.6818 3.99919 69.2308 3.99919C71.7798 3.99919 73.8462 6.08879 73.8462 8.66644V13.3337Z" fill="white"/>
<path d="M7.69231 21.1124C11.9407 21.1124 15.3846 17.6298 15.3846 13.3337V2.44344C15.3846 1.58423 14.6958 0.887695 13.8462 0.887695C12.9965 0.887695 12.3077 1.58423 12.3077 2.44344V13.3337C12.3077 15.9113 10.2413 18.0009 7.69231 18.0009C5.1433 18.0009 3.07692 15.9113 3.07692 13.3337V2.44344C3.07692 1.58423 2.38813 0.887695 1.53846 0.887695C0.688793 0.887695 0 1.58423 0 2.44344V13.3337C0 17.6298 3.44396 21.1124 7.69231 21.1124Z" fill="white"/>
<path d="M32.3077 0.887695C36.556 0.887695 40 4.37036 40 8.66644V19.5567C40 20.4159 39.3112 21.1124 38.4615 21.1124C37.6119 21.1124 36.9231 20.4159 36.9231 19.5567V8.66644C36.9231 6.08879 34.8567 3.99919 32.3077 3.99919C29.7587 3.99919 27.6923 6.08879 27.6923 8.66644V19.5567C27.6923 20.4159 27.0035 21.1124 26.1538 21.1124C25.3042 21.1124 24.6154 20.4159 24.6154 19.5567V8.66644C24.6154 4.37036 28.0593 0.887695 32.3077 0.887695Z" fill="white"/>
</svg>
