<svg width="16" height="16" viewBox="0 0 16 16" fill="none" xmlns="http://www.w3.org/2000/svg">
<path fill-rule="evenodd" clip-rule="evenodd" d="M3.02399 6.60731C4.22984 8.97594 6.15536 10.9015 8.52399 12.1073L10.36 10.2673C10.4692 10.1594 10.606 10.0837 10.7554 10.0484C10.9048 10.0131 11.0611 10.0197 11.207 10.0673C12.1683 10.3837 13.174 10.5444 14.186 10.5433C14.2956 10.5429 14.4043 10.5642 14.5056 10.606C14.607 10.6478 14.6991 10.7092 14.7766 10.7867C14.8541 10.8642 14.9156 10.9563 14.9573 11.0577C14.9991 11.159 15.0204 11.2677 15.02 11.3773V14.2983C15.0204 14.4079 14.9991 14.5166 14.9573 14.6179C14.9156 14.7193 14.8541 14.8114 14.7766 14.8889C14.6991 14.9664 14.607 15.0279 14.5056 15.0696C14.4043 15.1114 14.2956 15.1327 14.186 15.1323C12.3231 15.1326 10.4783 14.7659 8.75717 14.0531C7.03599 13.3403 5.47209 12.2955 4.15475 10.9783C2.83742 9.66104 1.79247 8.0972 1.07959 6.37607C0.366711 4.65495 -0.000131323 2.81022 3.52649e-08 0.947302C3.52649e-08 0.725846 0.087975 0.513471 0.244568 0.356878C0.401161 0.200285 0.613536 0.11231 0.834992 0.11231H3.755C3.86477 0.111914 3.97353 0.133232 4.07501 0.175054C4.1765 0.216876 4.2687 0.278377 4.34631 0.355993C4.42393 0.433609 4.48543 0.525808 4.52725 0.627294C4.56907 0.72878 4.59039 0.837537 4.59 0.947302C4.58912 1.95923 4.74946 2.96483 5.065 3.92631C5.11245 4.0721 5.11889 4.22815 5.08362 4.37736C5.04834 4.52656 4.9727 4.6632 4.86499 4.77231L3.02399 6.60731Z" fill="#373868"/>
</svg>
