<svg width="21" height="20" viewBox="0 0 21 20" fill="none" xmlns="http://www.w3.org/2000/svg">
<path d="M10.5 0C5.61925 0 1.52425 3.19333 0.35525 7.5H2.16125C3.27775 4.12083 6.58875 1.66667 10.5 1.66667C15.3265 1.66667 19.25 5.40333 19.25 10C19.25 14.5967 15.3265 18.3333 10.5 18.3333C6.58963 18.3333 3.27775 15.8792 2.16037 12.5H0.35525C1.52425 16.8067 5.61925 20 10.5 20C16.2899 20 21 15.5142 21 10C21 4.48583 16.2899 0 10.5 0ZM9.926 6.0675L8.66775 7.26583L10.6636 9.16667H0V10.8333H10.6645L8.66775 12.7342L9.926 13.9325L13.426 10.5992L14.0263 10L13.4251 9.40083L9.926 6.0675Z" fill="white"/>
</svg>
