<svg width="1360" height="342" viewBox="0 0 1360 342" fill="none" xmlns="http://www.w3.org/2000/svg">
<g opacity="0.08">
<path d="M0 15.5454H63.5496V220.301C63.5496 238.068 68.1417 252.429 77.326 263.384C86.8066 274.044 100.731 279.374 119.1 279.374C137.469 279.374 151.245 274.044 160.429 263.384C169.91 252.429 174.65 238.068 174.65 220.301V15.5454H238.2V224.299C238.2 242.657 235.237 258.795 229.312 272.712C223.386 286.629 214.943 298.325 203.981 307.8C193.315 317.275 180.724 324.382 166.207 329.119C151.689 334.153 135.987 336.67 119.1 336.67C101.916 336.67 86.066 334.153 71.5488 329.119C57.0317 324.382 44.4403 317.275 33.7746 307.8C23.1089 298.325 14.8134 286.629 8.88805 272.712C2.96268 258.795 0 242.657 0 224.299V15.5454Z" fill="white"/>
<path d="M524.287 15.5454H585.615V342L364.302 133.691V326.455H302.975V0L524.287 208.309V15.5454Z" fill="white"/>
<path d="M653.202 15.5454H717.641V326.455H653.202V15.5454Z" fill="white"/>
<path d="M834.029 171C834.029 190.839 838.177 208.457 846.472 223.855C854.768 239.252 866.174 251.392 880.691 260.275C895.208 269.158 912.096 273.6 931.353 273.6C950.61 273.6 967.498 269.158 982.015 260.275C996.532 251.392 1007.79 239.252 1015.79 223.855C1024.08 208.457 1028.23 190.839 1028.23 171C1028.23 151.161 1024.23 133.543 1016.23 118.145C1008.23 102.748 996.976 90.6078 982.459 81.7247C967.942 72.8415 950.907 68.4 931.353 68.4C912.096 68.4 895.208 72.8415 880.691 81.7247C866.174 90.6078 854.768 102.748 846.472 118.145C838.177 133.543 834.029 151.161 834.029 171ZM766.924 171C766.924 147.312 771.072 125.696 779.367 106.153C787.663 86.3143 799.217 69.1402 814.031 54.6311C828.844 40.1221 846.176 29.0182 866.026 21.3195C886.172 13.3247 907.948 9.32726 931.353 9.32726C955.054 9.32726 976.83 13.3247 996.68 21.3195C1016.53 29.0182 1033.86 40.1221 1048.68 54.6311C1063.79 69.1402 1075.34 86.3143 1083.34 106.153C1091.63 125.696 1095.78 147.312 1095.78 171C1095.78 194.392 1091.63 216.156 1083.34 236.291C1075.34 256.13 1063.93 273.452 1049.12 288.257C1034.6 303.062 1017.27 314.61 997.125 322.901C977.275 330.896 955.351 334.894 931.353 334.894C907.355 334.894 885.283 330.896 865.137 322.901C845.287 314.61 827.955 303.062 813.142 288.257C798.329 273.452 786.922 256.13 778.923 236.291C770.924 216.156 766.924 194.392 766.924 171Z" fill="white"/>
<path d="M1172.02 222.078C1178.54 233.626 1185.65 243.693 1193.35 252.28C1201.35 260.868 1210.09 267.53 1219.57 272.268C1229.05 277.005 1239.27 279.374 1250.23 279.374C1262.97 279.374 1273.34 276.117 1281.34 269.603C1289.34 263.088 1293.34 254.205 1293.34 242.953C1293.34 233.182 1290.82 225.335 1285.78 219.413C1281.04 213.491 1273.79 208.309 1264.01 203.868C1254.53 199.13 1242.83 194.096 1228.9 188.766C1221.49 186.101 1212.9 182.548 1203.13 178.106C1193.65 173.369 1184.61 167.447 1176.02 160.34C1167.43 152.938 1160.32 144.055 1154.69 133.691C1149.06 123.031 1146.24 110.299 1146.24 95.4935C1146.24 77.7273 1150.69 62.4779 1159.57 49.7454C1168.76 36.7169 1181.05 26.7974 1196.46 19.987C1212.16 12.8805 1229.64 9.32726 1248.9 9.32726C1268.75 9.32726 1285.78 12.7325 1300.01 19.5428C1314.52 26.0571 1326.52 34.4961 1336 44.8597C1345.78 54.9273 1353.33 65.439 1358.67 76.3948L1308.89 103.932C1304.75 96.5299 1299.71 89.8675 1293.78 83.9455C1288.16 77.7273 1281.64 72.8415 1274.23 69.2883C1266.82 65.4389 1258.38 63.5143 1248.9 63.5143C1236.46 63.5143 1227.12 66.4753 1220.9 72.3974C1214.68 78.0234 1211.57 84.6857 1211.57 92.3844C1211.57 100.083 1214.09 106.893 1219.12 112.816C1224.16 118.442 1231.86 123.919 1242.23 129.249C1252.6 134.283 1265.64 139.465 1281.34 144.795C1291.41 148.348 1301.04 152.79 1310.23 158.119C1319.71 163.449 1328.15 169.964 1335.56 177.662C1343.26 185.065 1349.19 193.948 1353.33 204.312C1357.78 214.379 1360 226.075 1360 239.4C1360 254.501 1357.04 267.974 1351.11 279.818C1345.19 291.662 1337.04 301.73 1326.67 310.021C1316.3 318.016 1304.6 324.086 1291.56 328.231C1278.82 332.673 1265.34 334.894 1251.12 334.894C1232.16 334.894 1214.38 331.34 1197.79 324.234C1181.5 316.831 1167.28 306.912 1155.13 294.475C1142.98 282.039 1133.5 268.566 1126.69 254.057L1172.02 222.078Z" fill="white"/>
</g>
</svg>
