<svg width="40" height="40" viewBox="0 0 40 40" fill="none" xmlns="http://www.w3.org/2000/svg">
<path fill-rule="evenodd" clip-rule="evenodd" d="M24.0279 16.9279H26.2041C27.3352 16.9279 28.2522 16.0109 28.2522 14.8797V14.458H31.7773C31.8672 14.458 31.9476 14.5139 31.9789 14.5981L34.4219 21.1671C34.5264 21.4481 34.3186 21.7471 34.0188 21.7471H21.1436H18.8546H5.9793C5.67951 21.7471 5.47169 21.4481 5.57619 21.1671L8.01922 14.5981C8.05054 14.5139 8.13092 14.458 8.22078 14.458H11.6258V14.8797C11.6258 16.0109 12.5428 16.9279 13.674 16.9279H16.0911C15.791 17.1928 15.6017 17.5804 15.6017 18.0122C15.6017 18.8107 16.249 19.458 17.0475 19.458H23.0715C23.87 19.458 24.5173 18.8107 24.5173 18.0122C24.5173 17.5804 24.328 17.1928 24.0279 16.9279Z" fill="#1A1F36"/>
<path d="M14.2773 6.80713H25.4821V14.3975H14.2773V6.80713Z" fill="#1A1F36"/>
<path fill-rule="evenodd" clip-rule="evenodd" d="M13.5556 5C13.0211 5 12.5879 5.43326 12.5879 5.96771V14.9961C12.5879 15.5306 13.0211 15.9638 13.5556 15.9638H18.3113L17.8366 17.5301H17.0463C16.7802 17.5301 16.5644 17.7459 16.5644 18.012C16.5644 18.2782 16.7802 18.494 17.0463 18.494H23.0704C23.3366 18.494 23.5524 18.2782 23.5524 18.012C23.5524 17.7459 23.3366 17.5301 23.0704 17.5301H22.2801L21.8054 15.9638H26.3189C26.8534 15.9638 27.2866 15.5306 27.2866 14.9961V5.96771C27.2866 5.43326 26.8534 5 26.3189 5H13.5556ZM26.3232 6.20487H13.4317V15H26.3232V6.20487Z" fill="#00A6ED"/>
<path d="M6.56445 22.5903H14.1548V24.1566H6.56445V22.5903Z" fill="#00A6ED"/>
<path d="M25.9629 22.5903H33.5532V24.1566H25.9629V22.5903Z" fill="#00A6ED"/>
<path fill-rule="evenodd" clip-rule="evenodd" d="M14.1548 24.9998H6.56445V27.4094H14.1548V24.9998ZM10.4199 26.6866C10.6861 26.6866 10.9018 26.4708 10.9018 26.2047C10.9018 25.9385 10.6861 25.7227 10.4199 25.7227C10.1538 25.7227 9.93799 25.9385 9.93799 26.2047C9.93799 26.4708 10.1538 26.6866 10.4199 26.6866Z" fill="#1A1F36"/>
<path fill-rule="evenodd" clip-rule="evenodd" d="M14.1548 28.2532H6.56445V30.6628H14.1548V28.2532ZM10.4199 29.94C10.6861 29.94 10.9018 29.7242 10.9018 29.4581C10.9018 29.1919 10.6861 28.9761 10.4199 28.9761C10.1538 28.9761 9.93799 29.1919 9.93799 29.4581C9.93799 29.7242 10.1538 29.94 10.4199 29.94Z" fill="#1A1F36"/>
<path fill-rule="evenodd" clip-rule="evenodd" d="M14.1548 31.7471H6.56445V35.0001H14.1548V31.7471ZM10.4199 33.4339C10.6861 33.4339 10.9018 33.2181 10.9018 32.9519C10.9018 32.6858 10.6861 32.47 10.4199 32.47C10.1538 32.47 9.93799 32.6858 9.93799 32.9519C9.93799 33.2181 10.1538 33.4339 10.4199 33.4339Z" fill="#1A1F36"/>
<path fill-rule="evenodd" clip-rule="evenodd" d="M33.5532 24.9998H25.9629V34.9997H33.5532V24.9998ZM28.252 29.2165C28.5182 29.2165 28.7339 29.0007 28.7339 28.7346C28.7339 28.4684 28.5182 28.2527 28.252 28.2527C27.9858 28.2527 27.7701 28.4684 27.7701 28.7346C27.7701 29.0007 27.9858 29.2165 28.252 29.2165Z" fill="#1A1F36"/>
</svg>
