<svg width="80" height="16" viewBox="0 0 80 16" fill="none" xmlns="http://www.w3.org/2000/svg">
<path d="M41.8231 1.23077V14.7692C41.8231 15.449 41.2789 16 40.6077 16C39.9365 16 39.3923 15.449 39.3923 14.7692V1.23077C39.3923 0.551034 39.9365 0 40.6077 0C41.2789 0 41.8231 0.551034 41.8231 1.23077Z" fill="white"/>
<path d="M74.9423 16C77.4595 16 79.5 13.9336 79.5 11.3846C79.5 8.83561 77.4595 6.76923 74.9423 6.76923H71.9038C70.7292 6.76923 69.7769 5.80492 69.7769 4.61538C69.7769 3.42585 70.7292 2.46154 71.9038 2.46154H77.0087C77.6799 2.46154 78.2241 1.9105 78.2241 1.23077C78.2241 0.551034 77.6799 0 77.0087 0H71.9038C69.3867 0 67.3462 2.06638 67.3462 4.61538C67.3462 7.16439 69.3867 9.23077 71.9038 9.23077H74.9423C76.117 9.23077 77.0692 10.1951 77.0692 11.3846C77.0692 12.5742 76.117 13.5385 74.9423 13.5385H69.7769C69.1057 13.5385 68.5615 14.0895 68.5615 14.7692C68.5615 15.449 69.1057 16 69.7769 16H74.9423Z" fill="white"/>
<path fill-rule="evenodd" clip-rule="evenodd" d="M61.2692 9.84615C61.2692 13.2448 58.5485 16 55.1923 16C51.8361 16 49.1154 13.2448 49.1154 9.84615V6.15385C49.1154 2.75517 51.8361 0 55.1923 0C58.5485 0 61.2692 2.75517 61.2692 6.15385V9.84615ZM58.8385 9.84615C58.8385 11.8854 57.206 13.5385 55.1923 13.5385C53.1786 13.5385 51.5462 11.8854 51.5462 9.84615V6.15385C51.5462 4.11464 53.1786 2.46154 55.1923 2.46154C57.206 2.46154 58.8385 4.11464 58.8385 6.15385V9.84615Z" fill="white"/>
<path d="M6.57692 16C9.93311 16 12.6538 13.2448 12.6538 9.84615V1.23077C12.6538 0.551034 12.1097 0 11.4385 0C10.7672 0 10.2231 0.551034 10.2231 1.23077V9.84615C10.2231 11.8854 8.59064 13.5385 6.57692 13.5385C4.56321 13.5385 2.93077 11.8854 2.93077 9.84615V1.23077C2.93077 0.551034 2.38662 0 1.71538 0C1.04415 0 0.5 0.551034 0.5 1.23077V9.84615C0.5 13.2448 3.22073 16 6.57692 16Z" fill="white"/>
<path d="M26.0231 0C29.3793 0 32.1 2.75517 32.1 6.15385V14.7692C32.1 15.449 31.5559 16 30.8846 16C30.2134 16 29.6692 15.449 29.6692 14.7692V6.15385C29.6692 4.11464 28.0368 2.46154 26.0231 2.46154C24.0094 2.46154 22.3769 4.11464 22.3769 6.15385V14.7692C22.3769 15.449 21.8328 16 21.1615 16C20.4903 16 19.9462 15.449 19.9462 14.7692V6.15385C19.9462 2.75517 22.6669 0 26.0231 0Z" fill="white"/>
</svg>
