<svg width="40" height="40" viewBox="0 0 40 40" fill="none" xmlns="http://www.w3.org/2000/svg">
<path d="M5 5.04209C6.66663 5.04209 8.2916 5.00043 9.95823 5.00043C11.2499 5.00043 11.2499 5.00043 11.6665 6.20874C11.8749 6.75039 11.9582 7.50038 12.3332 7.75037C12.7082 8.00037 13.4165 7.8337 13.9998 7.8337C19.083 7.8337 24.2079 7.8337 29.2912 7.8337C29.4995 7.8337 29.7495 7.8337 29.9995 7.8337C29.9995 8.37536 29.9995 8.83368 29.9995 9.37534C21.958 9.37534 13.9165 9.37534 5.83332 9.37534C5.83332 9.667 5.83332 9.83366 5.83332 10.042C5.83332 13.0003 5.91665 16.0002 5.79165 18.9585C5.74998 20.1668 5.29166 21.4168 5 22.6251C5 16.7919 5 10.917 5 5.04209Z" fill="#1A1F36"/>
<path d="M29.3747 18.2499C27.9163 18.2499 26.5414 18.2499 25.0831 18.2499C25.0414 18.8749 24.9997 19.4582 24.9164 20.0415C24.8747 20.2499 24.7497 20.4999 24.5831 20.6249C24.3331 20.8749 24.0831 20.7082 23.8331 20.4999C23.4164 20.0832 22.9581 19.7499 22.5831 19.4166C21.5415 20.4582 20.5832 21.4165 19.5415 22.4582C19.8748 22.8332 20.2915 23.3331 20.6665 23.8331C20.7915 23.9998 20.7915 24.2498 20.7915 24.4165C20.7498 24.7081 20.5415 24.8331 20.2082 24.8748C19.6249 24.8748 18.9999 24.9581 18.3332 25.0414C18.3332 25.8748 18.3332 26.7081 18.3332 27.5414C13.9166 27.5414 9.62506 27.5414 5.20848 27.5414C5.50014 26.4164 5.7918 25.2914 6.0418 24.2081C6.87511 20.8749 7.7501 17.4999 8.58341 14.1667C8.66674 13.75 8.83341 13.6667 9.25006 13.6667C17.1666 13.6667 25.1247 13.6667 33.0412 13.6667C33.2079 13.6667 33.3746 13.6667 33.5829 13.7083C33.0412 15.5833 32.6246 17.4166 31.9579 19.1666C31.7079 19.8332 30.8746 20.2915 30.2496 20.7499C30.0413 20.8749 29.5413 20.7082 29.5413 20.2499C29.4997 19.5832 29.458 18.9166 29.3747 18.2499ZM17.4582 21.5832C17.9166 19.7499 18.3749 17.9583 18.8749 16.0833C18.5832 16.0833 18.3332 16.0833 18.1249 16.0833C16.0833 16.0833 14.0416 16.0833 12 16.0833C11.4584 16.0833 10.7917 15.9166 10.4167 16.2083C10.0834 16.4583 10.0417 17.1666 9.91672 17.7083C9.58339 18.9999 9.25006 20.2915 8.91674 21.6248C11.7917 21.5832 14.5833 21.5832 17.4582 21.5832Z" fill="#1A1F36"/>
<path d="M7.125 14.1671C7.125 13.0837 7.125 11.9588 7.125 10.8338C15.3748 10.8338 23.6247 10.8338 31.8745 10.8338C31.8745 11.2921 31.8745 11.7921 31.8745 12.3338C31.6662 12.3338 31.4162 12.3754 31.1662 12.3754C23.5413 12.3754 15.9165 12.3754 8.29164 12.3754C7.79166 12.3754 7.54166 12.4588 7.45833 13.0004C7.41666 13.4171 7.25 13.8337 7.16667 14.2087C7.16667 14.1671 7.16667 14.1671 7.125 14.1671Z" fill="#1A1F36"/>
<path d="M17.1246 17.4167C16.9163 18.3334 16.7497 19.125 16.4997 19.9167C16.458 20.0416 16.2913 20.25 16.1663 20.25C14.3747 20.2916 12.5831 20.25 10.6664 20.25C10.9164 19.2917 11.1248 18.4167 11.4164 17.5417C11.4581 17.4584 11.6248 17.375 11.7498 17.375C13.4997 17.4167 15.2913 17.4167 17.1246 17.4167Z" fill="#1A1F36"/>
<path fill-rule="evenodd" clip-rule="evenodd" d="M26.0976 19.5832H28.486V21.4397C29.2484 21.5945 29.958 21.8944 30.5848 22.3095L31.8979 20.9964L33.5868 22.6853L32.2737 23.9984C32.6888 24.6252 32.9888 25.3348 33.1435 26.0972H35V28.4856H33.1435C32.9888 29.2479 32.6888 29.9575 32.2737 30.5843L33.5868 31.8974L31.8979 33.5863L30.5848 32.2732C29.9581 32.6883 29.2484 32.9883 28.486 33.1431V34.9995H26.0976V33.1431C25.3353 32.9883 24.6256 32.6883 23.9989 32.2732L22.6858 33.5863L20.9969 31.8974L22.31 30.5843C21.8949 29.9576 21.5949 29.248 21.4401 28.4856H19.5836V26.0972H21.4401C21.5949 25.3348 21.8949 24.6251 22.31 23.9984L20.9969 22.6853L22.6858 20.9964L23.9989 22.3095C24.6257 21.8944 25.3353 21.5944 26.0976 21.4397V19.5832ZM31.0916 27.2914C31.0916 29.39 29.3904 31.0912 27.2918 31.0912C25.1932 31.0912 23.492 29.39 23.492 27.2914C23.492 25.1928 25.1932 23.4916 27.2918 23.4916C29.3904 23.4916 31.0916 25.1928 31.0916 27.2914ZM27.2917 29.5828C28.5573 29.5828 29.5833 28.5569 29.5833 27.2912C29.5833 26.0256 28.5573 24.9996 27.2917 24.9996C26.026 24.9996 25.0001 26.0256 25.0001 27.2912C25.0001 28.5569 26.026 29.5828 27.2917 29.5828Z" fill="#1AA1F7"/>
</svg>
