<svg width="40" height="40" viewBox="0 0 40 40" fill="none" xmlns="http://www.w3.org/2000/svg">
<path d="M35 5.12836H27.1739V6.53079H35V5.12836Z" fill="#1A1F36"/>
<path d="M27.1739 8.16696H35V9.5694H27.1739V8.16696Z" fill="#1A1F36"/>
<path d="M28.5968 11.2056H27.1739V12.608H28.5968V11.2056Z" fill="#1A1F36"/>
<path d="M30.3755 11.2056H31.7984V12.608H30.3755V11.2056Z" fill="#1A1F36"/>
<path d="M35 11.2056H33.5771V12.608H35V11.2056Z" fill="#1A1F36"/>
<path d="M13.1818 24.6456V33.4692H17.8063V28.9697H19.2292V33.4692H20.7708V24.6456H22.1937V33.4692H26.8775V28.9697H28.3004V33.4692H29.8419V24.6456H31.2648V33.4692H35V34.8717H5V33.4692H8.79447V28.9697H10.2174V33.4692H11.7589V24.6456H13.1818Z" fill="#1A1F36"/>
<path d="M15.3886 16.7754C14.7348 17.2949 13.9383 17.6468 13.0661 17.7651V19.7651C14.4935 19.6304 15.7913 19.0581 16.8198 18.186L15.3886 16.7754Z" fill="#7B3BE3"/>
<path d="M17.6478 17.3494C18.601 16.2011 19.1728 14.7334 19.1728 13.1341C19.1728 11.5111 18.5839 10.0236 17.6052 8.86794L16.1715 10.281C16.7894 11.0704 17.157 12.0599 17.157 13.1341C17.157 14.1844 16.8055 15.1539 16.2122 15.9344L17.6478 17.3494Z" fill="#7B3BE3"/>
<path d="M15.336 9.4516L16.7688 8.03945C15.7486 7.1914 14.47 6.63563 13.0661 6.50315V8.50315C13.915 8.61822 14.6923 8.95471 15.336 9.4516Z" fill="#7B3BE3"/>
<path d="M11.8803 8.48858V6.493C8.6126 6.74453 5.99741 9.28649 5.68609 12.4913H7.71531C8.0092 10.385 9.72682 8.7262 11.8803 8.48858Z" fill="#7B3BE3"/>
<path d="M11.8803 17.7796C9.68714 17.5376 7.94606 15.8216 7.70052 13.66H5.67578C5.93408 16.9197 8.57298 19.5206 11.8803 19.7752V17.7796Z" fill="#7B3BE3"/>
<path d="M15.9119 13.1341C15.9119 15.0382 14.3457 16.5818 12.4138 16.5818C10.4819 16.5818 8.91581 15.0382 8.91581 13.1341C8.91581 11.23 10.4819 9.68645 12.4138 9.68645C14.3457 9.68645 15.9119 11.23 15.9119 13.1341Z" fill="#7B3BE3"/>
<path d="M34.8292 15.1835L31.3269 18.6353L29.074 16.4147L24.4494 20.9727L22.3151 18.869L19.2363 21.9035L18.3978 21.0771L22.3151 17.2162L24.4494 19.3199L29.074 14.762L31.3269 16.9825L33.9907 14.3571L34.8292 15.1835Z" fill="#7B3BE3"/>
</svg>
