<svg width="40" height="40" viewBox="0 0 40 40" fill="none" xmlns="http://www.w3.org/2000/svg">
<path fill-rule="evenodd" clip-rule="evenodd" d="M14.2109 28.2751L14.2109 21.8423L15.4975 21.8423L15.4975 28.2751L14.2109 28.2751Z" fill="#7B3BE3"/>
<path fill-rule="evenodd" clip-rule="evenodd" d="M19.3574 29.9124L19.3574 23.4796L20.644 23.4796L20.644 29.9124L19.3574 29.9124Z" fill="#7B3BE3"/>
<path fill-rule="evenodd" clip-rule="evenodd" d="M19.3574 15.9943L19.3574 9.56152L20.644 9.56152L20.644 15.9943L19.3574 15.9943Z" fill="#7B3BE3"/>
<path fill-rule="evenodd" clip-rule="evenodd" d="M24.5039 28.2751L24.5039 21.8423L25.7905 21.8423L25.7905 28.2751L24.5039 28.2751Z" fill="#7B3BE3"/>
<path fill-rule="evenodd" clip-rule="evenodd" d="M19.9996 18.36C20.531 18.36 20.9618 17.9292 20.9618 17.3978C20.9618 16.8664 20.531 16.4356 19.9996 16.4356C19.4682 16.4356 19.0374 16.8664 19.0374 17.3978C19.0374 17.9292 19.4682 18.36 19.9996 18.36ZM19.9996 19.62C21.2269 19.62 22.2218 18.6251 22.2218 17.3978C22.2218 16.1705 21.2269 15.1755 19.9996 15.1755C18.7723 15.1755 17.7773 16.1705 17.7773 17.3978C17.7773 18.6251 18.7723 19.62 19.9996 19.62Z" fill="#7B3BE3"/>
<path fill-rule="evenodd" clip-rule="evenodd" d="M19.9996 23.5061C20.531 23.5061 20.9618 23.0753 20.9618 22.5439C20.9618 22.0125 20.531 21.5818 19.9996 21.5818C19.4682 21.5818 19.0374 22.0125 19.0374 22.5439C19.0374 23.0753 19.4682 23.5061 19.9996 23.5061ZM19.9996 24.7662C21.2269 24.7662 22.2218 23.7712 22.2218 22.5439C22.2218 21.3166 21.2269 20.3217 19.9996 20.3217C18.7723 20.3217 17.7773 21.3166 17.7773 22.5439C17.7773 23.7712 18.7723 24.7662 19.9996 24.7662Z" fill="#7B3BE3"/>
<path fill-rule="evenodd" clip-rule="evenodd" d="M14.855 21.8686C15.3864 21.8686 15.8172 21.4378 15.8172 20.9064C15.8172 20.375 15.3864 19.9442 14.855 19.9442C14.3236 19.9442 13.8929 20.375 13.8929 20.9064C13.8929 21.4378 14.3236 21.8686 14.855 21.8686ZM14.855 23.1287C16.0823 23.1287 17.0773 22.1337 17.0773 20.9064C17.0773 19.6791 16.0823 18.6842 14.855 18.6842C13.6277 18.6842 12.6328 19.6791 12.6328 20.9064C12.6328 22.1337 13.6277 23.1287 14.855 23.1287Z" fill="#7B3BE3"/>
<path fill-rule="evenodd" clip-rule="evenodd" d="M25.148 21.8686C25.6794 21.8686 26.1102 21.4378 26.1102 20.9064C26.1102 20.375 25.6794 19.9442 25.148 19.9442C24.6166 19.9442 24.1858 20.375 24.1858 20.9064C24.1858 21.4378 24.6166 21.8686 25.148 21.8686ZM25.148 23.1287C26.3753 23.1287 27.3702 22.1337 27.3702 20.9064C27.3702 19.6791 26.3753 18.6842 25.148 18.6842C23.9207 18.6842 22.9258 19.6791 22.9258 20.9064C22.9258 22.1337 23.9207 23.1287 25.148 23.1287Z" fill="#7B3BE3"/>
<path fill-rule="evenodd" clip-rule="evenodd" d="M17.1923 5.00006L16.772 8.96996C15.9697 9.20507 15.2039 9.52555 14.4851 9.92091L11.3778 7.40863L7.4081 11.3784L9.92869 14.4959C9.53898 15.2114 9.22327 15.9729 8.99185 16.7704L5 17.193V22.8071L9.00954 23.2316C9.24299 24.0198 9.5589 24.7725 9.94727 25.4797L7.40683 28.6219L11.3766 32.5916L14.5276 30.044C15.2321 30.4276 15.9814 30.7395 16.7656 30.9698L17.1923 35H22.8064L23.233 30.9709C24.0177 30.7407 24.7674 30.4289 25.4724 30.0452L28.622 32.5916L32.5917 28.6219L30.0534 25.4824C30.4425 24.7742 30.759 24.0205 30.9927 23.2312L34.9985 22.8071V17.193L31.0104 16.7708C30.7787 15.9722 30.4625 15.2096 30.072 14.4932L32.5904 11.3784L28.6207 7.40863L25.5149 9.91972C24.7956 9.52433 24.0294 9.20388 23.2266 8.96892L22.8064 5.00006H17.1923ZM20.0011 28.8598C24.9103 28.8598 28.89 24.88 28.89 19.9708C28.89 15.0616 24.9103 11.0819 20.0011 11.0819C15.0919 11.0819 11.1122 15.0616 11.1122 19.9708C11.1122 24.88 15.0919 28.8598 20.0011 28.8598Z" fill="#1A1F36"/>
</svg>
