<svg width="40" height="40" viewBox="0 0 40 40" fill="none" xmlns="http://www.w3.org/2000/svg">
<path fill-rule="evenodd" clip-rule="evenodd" d="M35 5.20261H5V9.84546H35V5.20261ZM7.9761 6.86927H6.54753V8.29784H7.9761V6.86927ZM9.52409 6.86927H10.9527V8.29784H9.52409V6.86927ZM13.9286 6.86927H12.5V8.29784H13.9286V6.86927Z" fill="#1A1F36"/>
<path fill-rule="evenodd" clip-rule="evenodd" d="M20.2197 17.3411C20.0952 17.1241 19.7839 17.1241 19.6594 17.3411L9.92387 34.3091C9.79935 34.5261 9.955 34.7974 10.204 34.7974H29.6751C29.9241 34.7974 30.0798 34.5261 29.9553 34.3091L20.2197 17.3411ZM19.333 20.5356H20.6663V30.5356H19.333V20.5356ZM19.333 31.2023H20.6663V32.5356H19.333V31.2023Z" fill="#1AA1F7"/>
<path fill-rule="evenodd" clip-rule="evenodd" d="M5 11.1548H35V29.6071H27.9881L20.3116 16.2277C20.1467 15.9403 19.7344 15.9403 19.5695 16.2277L11.893 29.6071H5V11.1548ZM6.60742 15.1433C6.60742 13.8283 7.67341 12.7623 8.98837 12.7623C10.3033 12.7623 11.3693 13.8283 11.3693 15.1433C11.3693 16.1874 10.6973 17.0745 9.76218 17.3957V18.5974L13.6006 22.4358L12.5904 23.446L8.33361 19.1892V17.4331C7.33703 17.1486 6.60742 16.2312 6.60742 15.1433ZM8.98837 14.0719C8.39664 14.0719 7.91695 14.5516 7.91695 15.1433C7.91695 15.735 8.39664 16.2147 8.98837 16.2147C9.58011 16.2147 10.0598 15.735 10.0598 15.1433C10.0598 14.5516 9.58011 14.0719 8.98837 14.0719ZM33.3336 15.1433C33.3336 13.8283 32.2676 12.7623 30.9527 12.7623C29.6377 12.7623 28.5717 13.8283 28.5717 15.1433C28.5717 16.1874 29.2437 17.0745 30.1789 17.3957V18.5974L26.3404 22.4358L27.3506 23.446L31.6074 19.1892V17.4331C32.604 17.1486 33.3336 16.2312 33.3336 15.1433ZM30.9527 14.0719C31.5444 14.0719 32.0241 14.5516 32.0241 15.1433C32.0241 15.735 31.5444 16.2147 30.9527 16.2147C30.3609 16.2147 29.8812 15.735 29.8812 15.1433C29.8812 14.5516 30.3609 14.0719 30.9527 14.0719ZM12.2027 15.1433C12.2027 16.2312 12.9323 17.1486 13.9289 17.4331V19.1892L14.7928 20.0531L15.803 19.043L15.3574 18.5974V17.3957C16.2925 17.0745 16.9646 16.1874 16.9646 15.1433C16.9646 13.8283 15.8986 12.7623 14.5836 12.7623C13.2686 12.7623 12.2027 13.8283 12.2027 15.1433ZM14.5836 14.0719C13.9919 14.0719 13.5122 14.5516 13.5122 15.1433C13.5122 15.735 13.9919 16.2147 14.5836 16.2147C15.1753 16.2147 15.655 15.735 15.655 15.1433C15.655 14.5516 15.1753 14.0719 14.5836 14.0719ZM27.7384 15.1433C27.7384 16.2312 27.0088 17.1486 26.0122 17.4331V19.1892L25.1482 20.0531L24.1381 19.043L24.5836 18.5974V17.3957C23.6485 17.0745 22.9765 16.1874 22.9765 15.1433C22.9765 13.8283 24.0425 12.7623 25.3574 12.7623C26.6724 12.7623 27.7384 13.8283 27.7384 15.1433ZM25.3574 14.0719C25.9492 14.0719 26.4289 14.5516 26.4289 15.1433C26.4289 15.735 25.9492 16.2147 25.3574 16.2147C24.7657 16.2147 24.286 15.735 24.286 15.1433C24.286 14.5516 24.7657 14.0719 25.3574 14.0719Z" fill="#1A1F36"/>
</svg>
