<svg width="40" height="40" viewBox="0 0 40 40" fill="none" xmlns="http://www.w3.org/2000/svg">
<path d="M9.0332 27.8064V26.2684H9.75868C11.4896 26.2684 12.8928 24.8652 12.8928 23.1343H14.4598C14.4598 25.7146 12.368 27.8064 9.7877 27.8064H9.0332Z" fill="#1A1F36"/>
<path d="M12.7332 6.85504L12.4216 6.69958C11.9914 6.48494 11.4686 6.65972 11.2539 7.08995L8.40389 12.8027C8.18925 13.233 8.36403 13.7557 8.79426 13.9704L24.7381 21.9246C26.1435 22.6258 27.8513 22.0548 28.5524 20.6494L29.988 17.7718C29.796 17.8059 29.6056 17.8542 29.4184 17.9168L28.5931 18.1927C27.3376 18.6125 25.9668 18.5163 24.7823 17.9253L11.9587 11.5277C11.2703 11.1843 10.9907 10.3479 11.3341 9.65949L12.7332 6.85504Z" fill="#7B3BE3"/>
<path d="M34.2868 16.1469L16.3694 7.20816C15.1719 6.61074 13.7169 7.0972 13.1195 8.29469C12.522 9.49219 13.0085 10.9473 14.206 11.5447L24.8782 16.8689C26.0506 17.4538 27.4072 17.549 28.6497 17.1336L28.8828 17.0557C30.2822 16.5878 31.8102 16.6951 33.1306 17.3538L33.5743 17.5751C33.9686 17.7719 34.4479 17.6117 34.6446 17.2173C34.8414 16.8229 34.6812 16.3437 34.2868 16.1469Z" fill="#1A1F36"/>
<path d="M30.2402 19.4797L31.3309 20.0238L30.5277 21.6338L29.437 21.0897L30.2402 19.4797Z" fill="#7B3BE3"/>
<path fill-rule="evenodd" clip-rule="evenodd" d="M16.8726 18.9726L12.4062 16.7444L11.4735 18.614C10.8582 19.8474 11.3592 21.346 12.5926 21.9613C13.8259 22.5766 15.3246 22.0756 15.9399 20.8423L16.8726 18.9726ZM15.0177 20.3501C14.6528 21.0815 13.7641 21.3786 13.0327 21.0137C12.3013 20.6488 12.0042 19.7601 12.369 19.0287C12.7339 18.2973 13.6227 18.0001 14.3541 18.365C15.0855 18.7299 15.3826 19.6187 15.0177 20.3501ZM14.1349 19.9094C14.0133 20.1532 13.7171 20.2522 13.4733 20.1306C13.2295 20.009 13.1304 19.7127 13.2521 19.4689C13.3737 19.2251 13.6699 19.1261 13.9137 19.2477C14.1575 19.3693 14.2566 19.6656 14.1349 19.9094Z" fill="#1A1F36"/>
<path d="M5 5.92564C5 5.68524 5.19489 5.49035 5.43529 5.49035C5.67569 5.49035 5.87058 5.68524 5.87058 5.92564V34.0744C5.87058 34.3148 5.67569 34.5096 5.43529 34.5096C5.19489 34.5096 5 34.3148 5 34.0744V5.92564Z" fill="#1A1F36"/>
<path d="M5.87109 22.844C7.08914 22.844 8.07656 23.8314 8.07656 25.0495V28.88C8.07656 30.0981 7.08914 31.0855 5.87109 31.0855V22.844Z" fill="#1A1F36"/>
</svg>
