<svg width="241" height="60" viewBox="0 0 241 60" fill="none" xmlns="http://www.w3.org/2000/svg">
<path d="M100.446 20.413H107.05V22.5703H103.908V37.7278H100.446V20.413ZM110.965 31.2277L111.558 22.5703H111.757L112.351 31.2277H110.965ZM107.131 37.7278H110.521L110.841 33.1294H112.474L112.796 37.7278H116.185L114.379 20.413H108.936L107.131 37.7278ZM121.143 31.6677V34.9318C121.143 35.3719 121.484 35.4996 121.683 35.4996C122.009 35.4996 122.236 35.2299 122.236 34.9318V30.9015C122.236 30.362 122.137 29.766 120.845 29.766H119.44V27.8643H120.902C121.881 27.8643 122.236 27.6372 122.236 26.5727V23.138C122.236 22.8399 122.009 22.5703 121.683 22.5703C121.484 22.5703 121.143 22.6837 121.143 23.138V25.9623H117.679V23.507C117.679 22.3006 117.821 20.413 120.249 20.413H123.116C125.544 20.413 125.7 22.3006 125.7 23.507V26.2744C125.7 28.1621 124.38 28.673 123.344 28.6304V28.8008C125.672 28.744 125.7 30.5321 125.7 31.1425V34.6339C125.7 35.8544 125.544 37.7278 123.116 37.7278H120.249C117.821 37.7278 117.679 35.8543 117.679 34.6338V31.6677H121.143ZM127.971 20.413H135.992V37.7278H132.528V22.5703H131.435V37.7278H127.971V20.413ZM141.727 29.9362V22.5704H142.181C142.55 22.5704 142.82 22.8824 142.82 23.4361V29.0704C142.82 29.6241 142.55 29.9361 142.181 29.9361L141.727 29.9362ZM138.263 37.7278H141.727V31.8379H143.714C146.128 31.8379 146.284 29.9645 146.284 28.7439V23.507C146.284 22.3006 146.128 20.413 143.714 20.413H138.263V37.7278ZM153.112 34.9318C153.112 35.2299 152.885 35.4996 152.558 35.4996C152.36 35.4996 152.019 35.3719 152.019 34.9318V23.138C152.019 22.6837 152.36 22.5703 152.558 22.5703C152.885 22.5703 153.112 22.8399 153.112 23.138V34.9318ZM148.555 34.6339C148.555 35.8544 148.711 37.7278 151.125 37.7278H154.006C156.42 37.7278 156.576 35.8543 156.576 34.6338V23.507C156.576 22.3006 156.42 20.413 154.006 20.413H151.125C148.711 20.413 148.555 22.3006 148.555 23.507V34.6339ZM167.847 20.413H172.361V37.7278H168.898V26.8706H168.77L166.981 37.7278H164.213L162.439 26.8706H162.311V37.7278H158.847V20.413H163.347L165.604 32.5901L167.847 20.413ZM95.9572 14.0265C94.8969 9.38553 92.2393 5.6104 91.8731 5C91.2939 5.86567 89.1745 9.20108 88.0971 12.891C86.9202 17.021 86.747 20.6826 87.1532 24.2733C87.5563 27.8782 89.0794 31.5825 89.0794 31.5825C89.8886 33.5127 91.1008 35.5988 91.8902 36.6208C93.047 35.1164 95.706 30.6315 96.535 24.7843C96.9964 21.52 97.0163 18.6674 95.9572 14.0265ZM91.8731 35.4571C91.3522 34.4778 90.5429 32.6184 90.4663 29.7232C90.4464 26.9416 91.5636 24.5429 91.8902 24.0463C92.1812 24.5431 93.1436 26.6293 93.2586 29.482C93.3366 32.2637 92.4111 34.4634 91.8731 35.4571ZM95.6492 21.9031C95.6095 23.6773 95.3979 25.5507 95.1282 26.6719C95.2247 24.7418 94.9934 22.031 94.5504 19.9021C94.1075 17.7874 92.854 14.2394 91.8533 12.6072C90.9292 14.1684 89.7906 17.2339 89.1944 19.8879C88.5953 22.5418 88.5783 25.7636 88.5783 26.7287C88.4192 25.9196 88.0218 23.0103 88.1339 20.1008C88.2277 17.7023 88.7898 15.2187 89.0979 14.0832C90.2732 10.2939 91.6034 7.86694 91.8532 7.48367C92.1032 7.86694 93.7781 10.8616 94.6469 13.998C95.5116 17.1346 95.6861 20.1432 95.6492 21.9031Z" fill="#0079C2"/>
<path d="M93.6715 37.6995H85.6097V43.1068C85.6169 43.1068 85.6226 43.0926 85.6296 43.0926C87.529 41.1909 90.6096 41.1909 92.5104 43.0926C94.4098 44.9802 94.4098 48.0599 92.5104 49.9618C92.5018 49.9759 92.4932 49.9759 92.4848 49.9901C92.4749 49.9901 92.4649 50.0043 92.4564 50.0185C90.5613 51.892 88.0856 52.8286 85.6097 52.8286C83.1228 52.8286 80.6356 51.892 78.7391 49.9901C75.3945 46.6548 74.9984 41.4746 77.548 37.6995C77.898 37.1801 78.2969 36.6954 78.7391 36.2519C80.6356 34.3501 83.1228 33.4134 85.6097 33.4134V20.4131C76.0532 20.4131 68.3066 28.1479 68.3066 37.6995C68.3066 47.251 76.0532 55.0001 85.6097 55.0001C90.5925 55.0001 95.0812 52.8853 98.2382 49.5218V37.6995H93.6715ZM172.361 42.7866H100.446V55.0001H172.361V42.7866ZM166.143 51.3129H167.055V49.4693H166.143V51.3129ZM166.143 48.0867H167.523L168.448 48.5477L168.676 49.0085L168.904 49.9303V50.3911C168.88 53.693 166.755 52.4843 164.522 52.6957V45.091H166.143V48.0867ZM154.15 45.091V46.4736H152.997V52.6957H151.16V46.4736H150.008V45.091H154.15ZM137.33 50.6216H137.558L138.015 50.3911V47.1649H137.33V50.6216ZM135.482 47.1651H134.785V50.3911L135.253 50.6216H135.482V47.1651ZM137.33 45.091V45.7823H138.483L139.167 46.2431L139.635 46.7041L139.863 47.6259V50.1608L139.635 51.0826L139.167 51.5434L138.483 52.0042H137.33V52.6955H135.482V52.0042H134.329L133.633 51.5434L133.177 51.0826L132.948 50.1608V47.6259L133.176 46.7041L133.633 46.2431L134.329 45.7823H135.482V45.091H137.33ZM122.343 45.091V46.4736H120.96V48.0867H122.343V49.4693H120.96V51.3129H122.574V52.6955H119.116V45.091H122.343ZM105.747 48.0867H106.669V45.091H108.283V52.6957H106.669V49.4693H105.747V52.6957H103.903V45.091H105.747V48.0867Z" fill="#0079C2"/>
</svg>
