<svg width="116" height="29" viewBox="0 0 116 29" fill="none" xmlns="http://www.w3.org/2000/svg">
<path d="M0 1.31818H5.4204V18.6805C5.4204 20.187 5.81209 21.4048 6.59545 22.3338C7.40409 23.2377 8.59178 23.6896 10.1585 23.6896C11.7253 23.6896 12.9003 23.2377 13.6837 22.3338C14.4923 21.4048 14.8966 20.187 14.8966 18.6805V1.31818H20.317V19.0195C20.317 20.5762 20.0643 21.9446 19.5589 23.1247C19.0535 24.3048 18.3333 25.2965 17.3984 26.1C16.4886 26.9035 15.4147 27.5061 14.1764 27.9078C12.9382 28.3346 11.5989 28.548 10.1585 28.548C8.69286 28.548 7.34092 28.3346 6.10269 27.9078C4.86446 27.5061 3.79049 26.9035 2.88077 26.1C1.97106 25.2965 1.2635 24.3048 0.758098 23.1247C0.252699 21.9446 0 20.5762 0 19.0195V1.31818Z" fill="#373868"/>
<path d="M44.7186 1.31818H49.9495V29L31.0728 11.3364V27.6818H25.842V0L44.7186 17.6636V1.31818Z" fill="#373868"/>
<path d="M55.7143 1.31818H61.2105V27.6818H55.7143V1.31818Z" fill="#373868"/>
<path d="M71.1378 14.5C71.1378 16.1822 71.4915 17.6762 72.1991 18.9818C72.9066 20.2874 73.8795 21.3169 75.1178 22.0701C76.356 22.8234 77.7964 23.2 79.4389 23.2C81.0815 23.2 82.5219 22.8234 83.7601 22.0701C84.9983 21.3169 85.9586 20.2874 86.6409 18.9818C87.3484 17.6762 87.7022 16.1822 87.7022 14.5C87.7022 12.8177 87.3611 11.3238 86.6788 10.0182C85.9965 8.71255 85.0362 7.68312 83.798 6.92987C82.5598 6.17662 81.1067 5.8 79.4389 5.8C77.7964 5.8 76.356 6.17662 75.1178 6.92987C73.8795 7.68312 72.9066 8.71255 72.1991 10.0182C71.4915 11.3238 71.1378 12.8177 71.1378 14.5ZM65.4141 14.5C65.4141 12.4913 65.7679 10.6584 66.4754 9.0013C67.183 7.31905 68.1685 5.86277 69.432 4.63247C70.6955 3.40216 72.1738 2.46061 73.8669 1.80779C75.5853 1.12987 77.4426 0.790908 79.4389 0.790908C81.4605 0.790908 83.3179 1.12987 85.0109 1.80779C86.704 2.46061 88.1823 3.40216 89.4458 4.63247C90.7346 5.86277 91.7201 7.31905 92.4024 9.0013C93.11 10.6584 93.4638 12.4913 93.4638 14.5C93.4638 16.4835 93.11 18.329 92.4024 20.0364C91.7201 21.7186 90.7472 23.1874 89.4837 24.4429C88.2455 25.6983 86.7672 26.6775 85.0489 27.3805C83.3558 28.0584 81.4858 28.3974 79.4389 28.3974C77.3921 28.3974 75.5095 28.0584 73.7911 27.3805C72.098 26.6775 70.6197 25.6983 69.3562 24.4429C68.0927 23.1874 67.1198 21.7186 66.4375 20.0364C65.7552 18.329 65.4141 16.4835 65.4141 14.5Z" fill="#373868"/>
<path d="M99.9662 18.8312C100.522 19.8104 101.129 20.6641 101.786 21.3922C102.468 22.1203 103.213 22.6853 104.022 23.087C104.831 23.4887 105.702 23.6896 106.637 23.6896C107.724 23.6896 108.609 23.4134 109.291 22.861C109.973 22.3087 110.314 21.5554 110.314 20.6013C110.314 19.7727 110.099 19.1074 109.67 18.6052C109.266 18.103 108.646 17.6636 107.813 17.287C107.004 16.8853 106.006 16.4584 104.818 16.0065C104.186 15.7805 103.453 15.4792 102.62 15.1026C101.811 14.7009 101.04 14.1987 100.307 13.5961C99.5745 12.9684 98.9681 12.2152 98.4879 11.3364C98.0078 10.4325 97.7677 9.35281 97.7677 8.0974C97.7677 6.59091 98.1468 5.29783 98.9049 4.21818C99.6882 3.11342 100.737 2.27229 102.051 1.6948C103.39 1.09221 104.881 0.790908 106.524 0.790908C108.217 0.790908 109.67 1.07965 110.883 1.65714C112.121 2.20952 113.144 2.92511 113.953 3.8039C114.787 4.65757 115.431 5.54892 115.886 6.47792L111.641 8.81298C111.287 8.18528 110.858 7.62035 110.352 7.11818C109.872 6.59091 109.316 6.17662 108.684 5.87532C108.053 5.54892 107.332 5.38571 106.524 5.38571C105.462 5.38571 104.666 5.6368 104.136 6.13896C103.605 6.61602 103.34 7.18095 103.34 7.83377C103.34 8.48658 103.555 9.06407 103.984 9.56623C104.414 10.0433 105.071 10.5078 105.955 10.9597C106.84 11.3866 107.952 11.826 109.291 12.2779C110.15 12.5792 110.971 12.9558 111.755 13.4078C112.563 13.8597 113.283 14.4121 113.915 15.0649C114.572 15.6926 115.078 16.4459 115.431 17.3247C115.81 18.1784 116 19.1701 116 20.3C116 21.5805 115.747 22.7229 115.242 23.7273C114.736 24.7316 114.042 25.5853 113.157 26.2883C112.273 26.9662 111.275 27.481 110.163 27.8325C109.076 28.2091 107.926 28.3974 106.713 28.3974C105.096 28.3974 103.58 28.0961 102.165 27.4935C100.775 26.8658 99.5619 26.0247 98.5258 24.9701C97.4898 23.9156 96.6811 22.7732 96.0999 21.5429L99.9662 18.8312Z" fill="#373868"/>
</svg>
