<svg width="40" height="40" viewBox="0 0 40 40" fill="none" xmlns="http://www.w3.org/2000/svg">
<path fill-rule="evenodd" clip-rule="evenodd" d="M16.1955 11.1692H5.67969V35H34.3214V11.1692H23.7629C23.7579 11.1764 23.7528 11.1836 23.7477 11.1907C23.2887 11.9184 22.6698 13.057 22.1352 14.1733C21.9016 14.661 21.6975 15.1171 21.533 15.5162H33.0242V33.7444H6.94385V15.5162H18.4317C18.2733 15.1251 18.0779 14.6795 17.8545 14.2048C17.3351 13.101 16.7345 11.9854 16.2793 11.2843C16.2508 11.2464 16.2228 11.208 16.1955 11.1692ZM8.14062 12.8517H9.37132V14.0824H8.14062V12.8517ZM12.0549 12.8517H10.8242V14.0824H12.0549V12.8517ZM13.5122 12.8517H14.7429V14.0824H13.5122V12.8517Z" fill="#1A1F36"/>
<path fill-rule="evenodd" clip-rule="evenodd" d="M23.4835 8.50542C23.4835 9.27839 23.2333 9.99292 22.8095 10.5725C21.978 11.8859 20.6996 14.3925 20.1897 15.888C20.1514 16.0003 19.8038 16.0001 19.766 15.8878C19.2671 14.4061 18.027 11.9059 17.1883 10.6283C17.117 10.5347 17.0503 10.4374 16.9885 10.3368L16.9824 10.3284L16.9834 10.3284C16.6593 9.79723 16.4727 9.17312 16.4727 8.50542C16.4727 6.56943 18.0421 5 19.9781 5C21.9141 5 23.4835 6.56943 23.4835 8.50542ZM19.9769 10.7489C21.2159 10.7489 22.2203 9.74446 22.2203 8.50543C22.2203 7.2664 21.2159 6.26196 19.9769 6.26196C18.7378 6.26196 17.7334 7.2664 17.7334 8.50543C17.7334 9.74446 18.7378 10.7489 19.9769 10.7489Z" fill="#00A6ED"/>
<path fill-rule="evenodd" clip-rule="evenodd" d="M18.759 16.3029H15.0666C14.9148 16.3029 14.7693 16.3632 14.662 16.4706L7.60302 23.533C7.49579 23.6403 7.43555 23.7857 7.43555 23.9374V29.8969C7.43555 30.4067 8.05194 30.6619 8.41231 30.3013L10.7694 27.9431L16.0021 33.1566C16.2259 33.3796 16.5881 33.379 16.8111 33.1551C17.0342 32.9313 17.0335 32.5691 16.8097 32.3461L11.5783 27.1338L14.2206 24.4902L22.6305 32.8695C22.7121 32.9507 22.812 33.0023 22.9168 33.0242C23.1328 33.1374 23.4057 33.103 23.587 32.9217L32.1553 24.3492C32.2625 24.242 32.3227 24.0965 32.3227 23.9448V17.6846C32.3227 17.1748 31.7063 16.9196 31.346 17.2802L19.9992 28.6325L15.0295 23.6809L21.4278 17.2795C21.6563 17.0509 21.6372 16.7194 21.4626 16.5075C21.4427 16.579 21.4272 16.6433 21.4164 16.6998C21.2573 17.5355 20.4502 17.7052 20.1439 17.7057C19.8378 17.7061 19.0275 17.5384 18.8675 16.7004C18.8473 16.5949 18.8106 16.461 18.759 16.3029ZM23.9007 17.1864C24.1237 17.4102 24.1231 17.7725 23.8993 17.9955L23.0923 18.7995C22.8685 19.0225 22.5062 19.0218 22.2832 18.798C22.0602 18.5742 22.0609 18.2119 22.2847 17.9889L23.0916 17.1849C23.3155 16.9619 23.6777 16.9625 23.9007 17.1864ZM11.334 18.1678C11.5578 17.9447 11.5585 17.5825 11.3355 17.3587C11.1124 17.1348 10.7502 17.1342 10.5264 17.3572L9.89233 17.9889C9.6685 18.2119 9.66784 18.5742 9.89085 18.798C10.1139 19.0218 10.4761 19.0225 10.7 18.7995L11.334 18.1678ZM19.8084 21.551C20.0314 21.7748 20.0307 22.137 19.8069 22.36L18.9423 23.2215C18.7185 23.4445 18.3562 23.4438 18.1332 23.22C17.9102 22.9962 17.9109 22.6339 18.1347 22.4109L18.9993 21.5495C19.2231 21.3265 19.5854 21.3271 19.8084 21.551ZM31.2311 28.5764C31.455 28.3534 31.4556 27.9912 31.2326 27.7673C31.0096 27.5435 30.6473 27.5428 30.4235 27.7658L29.5589 28.6273C29.3351 28.8503 29.3344 29.2125 29.5574 29.4364C29.7805 29.6602 30.1427 29.6609 30.3665 29.4379L31.2311 28.5764ZM9.95458 30.3968C9.95458 30.0808 10.2107 29.8246 10.5267 29.8246H11.5642C11.8802 29.8246 12.1363 30.0808 12.1363 30.3968C12.1363 30.7127 11.8802 30.9689 11.5642 30.9689H10.5267C10.2107 30.9689 9.95458 30.7127 9.95458 30.3968Z" fill="#1A1F36"/>
</svg>
