<svg width="40" height="40" viewBox="0 0 40 40" fill="none" xmlns="http://www.w3.org/2000/svg">
<g filter="url(#filter0_i_4042_2998)">
<path d="M24.3679 19.4632C24.3679 19.4632 24.1125 19.2299 23.7038 19.2299C23.4995 19.2299 23.244 19.2765 23.0397 19.4166C22.9886 19.4166 22.9886 19.4632 22.9886 19.5099C22.9886 19.5099 23.1419 20.5834 23.0397 21.0035C22.9375 21.3302 22.631 21.7503 22.0691 21.7503C21.9669 21.7503 21.8136 21.7503 21.7115 21.7036L22.1201 21.4236C22.1712 21.4236 22.1712 21.3769 22.1712 21.3302C22.1712 21.2835 22.1712 21.2835 22.1201 21.2369L21.2517 20.7234C21.5071 20.5368 21.7115 20.3967 21.7115 20.3967C21.7115 20.3967 21.7625 20.3501 21.7625 20.3034C21.7625 20.2567 21.7626 20.2567 21.7115 20.21L21.5071 20.07C21.5071 20.07 21.456 20.0233 21.405 20.0233H21.3539C21.3539 20.0233 21.0984 20.1634 20.7919 20.3967L20.4343 20.1634L21.7625 19.3232L21.8647 19.5566C21.8647 19.6033 21.9158 19.6033 21.9669 19.6033C22.018 19.6033 22.0691 19.6033 22.0691 19.5566L22.6821 18.4831C22.6821 18.4364 22.6821 18.3897 22.6821 18.3897C22.6821 18.3431 22.631 18.3431 22.5799 18.3431L21.2517 18.5297C21.2006 18.5297 21.1495 18.5764 21.1495 18.6231C21.1495 18.6698 21.1495 18.7164 21.2006 18.7164L21.405 18.9031L19.8724 19.8366L18.3398 18.9031L18.5442 18.7164C18.5952 18.6698 18.5952 18.6231 18.5952 18.6231C18.5952 18.5764 18.5442 18.5764 18.4931 18.5297L17.1648 18.3431C17.1138 18.3431 17.1138 18.3431 17.0627 18.3897C17.0627 18.4364 17.0116 18.4831 17.0627 18.4831L17.6757 19.5566C17.6757 19.6033 17.7268 19.6033 17.7779 19.6033C17.829 19.6033 17.88 19.5566 17.88 19.5566L17.9822 19.3232L19.3104 20.1634L18.9528 20.3967C18.5952 20.1634 18.3909 20.0233 18.3909 20.0233H18.3398C18.2887 20.0233 18.2887 20.0233 18.2376 20.07L18.0844 20.21C18.0844 20.21 18.0333 20.2567 18.0333 20.3034C18.0333 20.3501 18.0333 20.3501 18.0844 20.3967C18.0844 20.3967 18.2887 20.5368 18.5442 20.7234L17.6757 21.2369C17.6246 21.2369 17.6246 21.2835 17.6246 21.3302C17.6246 21.3769 17.6246 21.3769 17.6757 21.4236L18.0844 21.7036C17.9311 21.7503 17.829 21.7503 17.7268 21.7503C17.1648 21.7503 16.8583 21.3769 16.7562 21.0035C16.654 20.5368 16.8072 19.5099 16.8072 19.5099C16.8072 19.4632 16.8072 19.4166 16.7562 19.4166C16.5007 19.2765 16.2964 19.2299 16.0921 19.2299C15.6834 19.2299 15.4279 19.4632 15.4279 19.4632L15.3769 19.5099C15.3769 19.5566 15.2236 21.0968 15.9899 21.8436C16.2964 22.1237 16.654 22.2637 17.1138 22.2637C17.2159 22.2637 17.267 22.2637 17.3692 22.2637C17.829 22.217 18.2376 22.1237 18.6463 21.9837L19.3615 22.4037L17.7779 23.3839C17.7268 23.3839 17.7268 23.4306 17.7268 23.4772C17.7268 23.5239 17.7268 23.5239 17.7779 23.5706L19.3615 24.5508L18.0333 25.3909L17.9311 25.1575C17.9311 25.1108 17.88 25.1108 17.829 25.1108C17.7779 25.1108 17.7268 25.1108 17.7268 25.1575L17.1138 26.231C17.1138 26.2777 17.1138 26.3244 17.1138 26.3244C17.1138 26.3711 17.1648 26.3711 17.2159 26.3711L18.5442 26.1844C18.5952 26.1844 18.6463 26.1377 18.6463 26.091C18.6463 26.0443 18.6463 25.9977 18.5952 25.9977L18.442 25.8576L19.9746 24.8775L21.5071 25.8576L21.3028 26.0443C21.2517 26.091 21.2517 26.1377 21.2517 26.1377C21.2517 26.1844 21.3028 26.1844 21.3539 26.231L22.6821 26.4177C22.7332 26.4177 22.7332 26.4177 22.7843 26.3711C22.7843 26.3244 22.8353 26.2777 22.7843 26.2777L22.1712 25.2042C22.1712 25.1575 22.1201 25.1575 22.0691 25.1575C22.018 25.1575 21.9669 25.2042 21.9669 25.2042L21.8647 25.4376L20.5365 24.5974L22.1201 23.6173C22.1712 23.6173 22.1712 23.5706 22.1712 23.5239C22.1712 23.4772 22.1712 23.4772 22.1201 23.4306L20.4854 22.4037L21.2006 21.9837C21.6093 22.1237 22.018 22.217 22.4777 22.2637C22.5799 22.2637 22.631 22.2637 22.7332 22.2637C23.1929 22.2637 23.5505 22.1237 23.8571 21.8436C24.6233 21.0968 24.4701 19.5566 24.4701 19.5099C24.419 19.5099 24.419 19.4632 24.3679 19.4632ZM19.9235 20.5834L20.2811 20.7701C20.1789 20.8168 20.0767 20.9101 19.9235 20.9568C19.8213 20.9101 19.7191 20.8168 19.5659 20.7701L19.9235 20.5834ZM18.6974 21.3302L19.1572 21.0502C19.2594 21.0968 19.3615 21.1435 19.4637 21.2369C19.2594 21.3302 19.1061 21.4236 18.9018 21.4702L18.6974 21.3302ZM21.1495 23.4772L19.9746 24.224L18.7996 23.4772L19.9746 22.7304L21.1495 23.4772ZM19.9235 22.077L19.3615 21.7036C19.5659 21.6103 19.7702 21.5169 19.9235 21.4236C20.1278 21.5169 20.2811 21.6103 20.4854 21.7036L19.9235 22.077ZM20.9452 21.4702C20.7408 21.3769 20.5876 21.3302 20.3832 21.2369C20.4854 21.1902 20.5876 21.1435 20.6898 21.0502L21.1495 21.3302L20.9452 21.4702Z" fill="#0019FF"/>
<path d="M24.7765 20.3501C24.8276 20.2567 24.8276 20.1167 24.8276 20.1167H24.7765V20.3501Z" fill="#0019FF"/>
<path d="M39.8978 16.6161C39.387 16.3361 38.5696 16.2427 37.7522 16.3361C39.0294 15.916 39.9489 15.0292 40 14.2824C39.3359 14.0957 38.6207 14.189 38.0077 14.3291C38.6207 13.909 39.6424 13.1155 39.5402 11.9487C38.9272 11.8086 37.8033 12.182 37.3436 12.3687C38.825 11.6219 39.387 9.80163 38.5696 8.7748C38.1098 9.00817 35.9642 11.0152 35.6066 11.2485C36.7305 10.0817 37.2414 9.28822 37.4968 8.49475C37.8544 7.65461 37.8544 6.16103 36.7305 5.69428C36.1686 6.81447 34.2784 9.70828 33.2567 10.9218C33.1545 10.8285 33.0524 10.6884 32.8991 10.6884C32.6437 11.4352 31.8774 12.4154 31.2133 12.8821C31.1622 12.8355 31.1111 12.6488 31.0089 12.4621C30.2937 13.4422 28.4036 14.7958 27.7906 15.6359C27.3308 16.2427 27.3308 16.8028 27.9949 17.3629C28.2503 17.5963 28.7612 18.0163 28.3525 18.6231C27.7395 19.4166 26.5645 19.5099 25.9004 19.0432C25.9004 18.9032 25.9004 18.7631 25.9004 18.6231C26.6667 18.3431 26.8199 17.4096 26.258 16.8028C26.1558 17.0362 25.9515 17.1762 25.696 17.2695C25.645 17.0362 25.5939 16.8962 25.5428 16.8962L25.5939 16.8028H25.5428C25.5428 16.8028 25.2874 16.8028 24.9298 16.7561C25.3384 16.6161 25.645 16.2894 25.5428 15.776C24.8787 16.2894 24.2146 15.776 24.1124 15.6826C23.7037 15.2625 23.6015 14.7491 23.7548 14.0023C23.908 13.3489 24.6232 12.2754 25.1341 11.9487C25.1852 11.9953 25.3384 12.1354 25.5428 12.1354C25.696 12.0887 25.9004 11.9953 26.1047 11.9487C26.6156 11.8086 27.0754 11.902 27.3819 12.0887C27.9438 12.4154 27.8927 12.7421 27.8927 13.0222C28.7612 12.6021 28.4547 11.8553 27.3308 11.5753C28.0971 11.5753 28.7101 12.2287 28.8633 12.2754C29.272 12.5554 29.8851 12.5088 30.2427 12.3221C30.9068 12.042 31.06 11.2952 30.8557 11.1552C30.8046 11.4352 30.5492 11.6686 30.1916 11.6686C29.6296 11.7153 29.0677 11.4819 28.6079 11.3419C28.2503 11.2019 27.6373 11.1085 27.2286 11.1085C27.9949 10.7351 29.1699 10.7818 29.6296 11.3419C29.8851 11.1552 30.0383 10.9685 30.0894 10.5951C30.2937 9.56826 29.4253 9.00817 28.4547 9.00817C28.4547 8.7748 28.3014 8.63477 28.046 8.72812C28.046 8.63477 27.9949 8.54142 27.9438 8.49475H27.9949C28.9655 8.44808 29.8851 8.16803 30.3448 7.70128C31.2133 6.86114 29.834 5.78763 30.3448 4.94749C30.8046 5.13419 31.1622 5.36756 31.8263 5.46091C31.8774 5.60093 31.9285 5.83431 31.9796 5.97433C32.1839 6.90782 31.1622 7.04784 31.4176 8.07468C31.5198 8.54142 31.8774 8.68145 32.0307 9.19487C32.0307 9.19487 32.0817 9.56826 31.7241 9.89498C32.5415 9.89498 33.0013 9.28822 32.7458 8.68145C32.6437 8.44808 32.3372 8.2147 32.3372 7.93466C32.7459 8.44808 33.1545 8.44808 33.8186 8.2147C34.1252 8.12135 34.1252 8.49475 33.9719 8.82147C34.4317 8.5881 34.5338 8.16803 34.5338 7.98133C34.5338 7.56126 34.1762 7.37456 33.8186 7.46791C33.6143 7.46791 33.2567 7.74796 33.2056 7.37456C33.1035 6.7678 34.1762 6.81447 33.9719 5.83431C33.8697 5.36756 33.2567 5.08751 32.3372 4.99417C32.235 4.90082 32.0307 4.71412 31.8774 4.52742C31.3665 3.78063 30.8557 3.54726 30.5492 3.73396C30.1916 3.92065 29.9872 4.06068 29.6807 4.2007C29.4253 4.29405 29.1699 4.3874 29.0166 4.52742C28.6079 4.99417 29.0166 5.69428 29.2209 6.11435C29.3742 6.34773 29.6807 6.95449 29.5275 7.37456C29.3742 7.88798 28.4547 8.2147 27.8927 8.30805C27.8416 8.30805 27.8416 8.30805 27.7906 8.30805V8.12135C27.9438 7.84131 28.0971 7.56126 28.1992 7.28121C28.5568 6.34772 27.9949 5.97433 27.1775 5.78763C27.0754 5.74096 26.9732 5.69428 26.8199 5.74096V5.88098H26.6156V5.69428H26.5645C26.6667 5.64761 26.7178 5.50759 26.7178 5.41424C26.7178 5.32089 26.6667 5.22754 26.6156 5.13419H26.7178H26.6667C26.6667 5.08751 26.6156 5.04084 26.5134 4.99417C26.5134 4.99417 26.4623 4.94749 26.4623 4.90082C26.4623 4.90082 26.5134 4.94749 26.5645 4.94749C26.6156 4.99417 26.6667 5.04084 26.7178 5.08751L26.7688 5.13419V4.29405L26.7178 4.34072C26.7178 4.34072 26.6156 4.3874 26.5645 4.43407C26.5134 4.48075 26.5134 4.48075 26.4623 4.48075C26.4623 4.48075 26.4623 4.43407 26.5134 4.3874C26.5645 4.34072 26.6156 4.29405 26.6667 4.24738L26.7178 4.2007H25.7982L25.8493 4.24738C25.9004 4.29405 25.9515 4.34072 26.0026 4.3874C26.0026 4.43407 26.0536 4.43407 26.0536 4.48075C26.0536 4.48075 26.0026 4.48075 25.9515 4.43407C25.8493 4.3874 25.8493 4.34072 25.7982 4.34072L25.7471 4.29405V5.13419L25.7982 5.08751C25.8493 5.04084 25.9004 4.99417 25.9515 4.94749C25.9515 4.94749 26.0026 4.90082 26.0536 4.90082C26.0536 4.90082 26.0026 4.94749 26.0026 4.99417C25.9515 5.04084 25.9004 5.08751 25.8493 5.13419L25.7982 5.18086H25.9515C25.8493 5.22754 25.8493 5.32089 25.8493 5.46091C25.8493 5.55426 25.9004 5.64761 25.9515 5.74096V5.92765L25.8493 5.97433V5.83431C25.696 5.78763 25.5939 5.83431 25.4917 5.88098C24.6232 6.06768 24.0613 6.44107 24.47 7.37456C24.5722 7.65461 24.7254 7.98133 24.8787 8.2147V8.35473C24.0102 8.12135 22.5287 7.23454 22.069 6.72112C22.0179 6.67445 21.9668 6.62777 21.9668 6.5811V6.021C22.2733 5.55426 22.5287 4.99417 22.7331 4.48075C23.295 3.12719 22.4777 2.61377 21.2005 2.3804C21.0983 2.28705 20.894 2.24037 20.6897 2.33372L20.6386 2.52042H20.3831V2.24037C20.3321 2.24037 20.281 2.24037 20.2299 2.24037C20.4342 2.14702 20.5364 1.96033 20.5364 1.72695C20.5364 1.58693 20.4342 1.40023 20.3321 1.30688H20.5364C20.4342 1.21354 20.1788 0.980163 20.1788 0.84014C20.3321 0.886814 20.5875 1.07351 20.6897 1.16686V0.140023C20.5875 0.233372 20.3321 0.42007 20.1788 0.466744C20.281 0.326721 20.4853 0.0933489 20.6386 0H19.4636C19.5658 0.0933489 19.7701 0.326721 19.8212 0.42007C19.6679 0.42007 19.4636 0.186698 19.3103 0.0933489V1.16686C19.4125 1.07351 19.6679 0.84014 19.8212 0.84014C19.8212 0.980163 19.5658 1.21354 19.4636 1.30688H19.6679C19.5147 1.40023 19.4636 1.58693 19.4636 1.72695C19.4636 1.91365 19.5658 2.14702 19.7701 2.24037C19.719 2.24037 19.6679 2.24037 19.6169 2.24037V2.52042H19.3614V2.33372C19.1571 2.28705 19.0038 2.33372 18.8506 2.3804C17.6245 2.61377 16.8072 3.17386 17.3691 4.48075C17.5734 4.99417 17.8289 5.55426 18.1354 6.021V6.5811C18.1354 6.5811 18.0843 6.62777 18.0332 6.67445C17.6245 7.18787 16.092 8.02801 15.2235 8.30805V8.16803C15.3768 7.88798 15.53 7.60793 15.6322 7.32789C15.9898 6.3944 15.4278 6.021 14.6105 5.83431C14.5083 5.78763 14.4061 5.74096 14.2529 5.78763V5.92765L14.1507 5.88098V5.69428C14.2018 5.64761 14.2529 5.50759 14.2529 5.41424C14.2529 5.32089 14.2529 5.22754 14.1507 5.13419H14.304H14.2018C14.1507 5.08751 14.0996 5.04084 14.0485 4.99417C14.0485 4.99417 13.9974 4.94749 13.9464 4.90082L14.0485 4.94749C14.0996 4.99417 14.1507 5.04084 14.2018 5.08751L14.2529 5.13419V4.29405L14.2018 4.34072C14.1507 4.34072 14.0996 4.3874 14.0485 4.43407C14.0485 4.48075 13.9464 4.48075 13.9464 4.48075C13.9464 4.48075 13.9974 4.43407 14.0485 4.3874C14.0996 4.34072 14.1507 4.29405 14.2018 4.24738L14.2529 4.2007H13.3333V4.29405C13.3333 4.34072 13.4355 4.3874 13.4355 4.43407C13.4866 4.48075 13.4866 4.48075 13.4866 4.52742C13.4866 4.52742 13.4355 4.52742 13.3844 4.48075C13.3333 4.43407 13.2312 4.3874 13.2312 4.3874L13.1801 4.34072V5.13419L13.2312 5.08751C13.2312 5.04084 13.3333 4.99417 13.3844 4.94749C13.4355 4.94749 13.4355 4.90082 13.4866 4.90082C13.4866 4.90082 13.4866 4.94749 13.4355 4.99417C13.3844 5.04084 13.3333 5.08751 13.3333 5.13419L13.2822 5.18086H13.3844C13.3333 5.22754 13.2822 5.32089 13.2822 5.46091C13.2822 5.55426 13.3333 5.64761 13.4355 5.74096H13.3844V5.92765H13.3333V5.78763C13.1801 5.74096 13.0779 5.78763 12.9757 5.83431C12.1073 6.021 11.5453 6.3944 11.954 7.32789C12.0562 7.60793 12.2095 7.93466 12.3627 8.16803V8.35473C12.3116 8.35473 12.3116 8.35473 12.2605 8.35473C11.6986 8.26138 10.7791 7.93466 10.5747 7.42124C10.4215 7.00117 10.7791 6.3944 10.8812 6.16103C11.0856 5.74096 11.4432 5.04084 11.0856 4.5741C10.9323 4.3874 10.6769 4.34072 10.4215 4.24738C10.1149 4.10735 9.96169 3.96733 9.553 3.78063C9.24649 3.59393 8.73563 3.78063 8.22478 4.5741C8.12261 4.76079 7.86718 4.94749 7.76501 5.04084C6.84547 5.13419 6.28352 5.41424 6.13027 5.88098C5.92593 6.86114 6.94764 6.81447 6.89655 7.42124C6.89655 7.74796 6.48787 7.51459 6.28353 7.51459C5.92593 7.42124 5.56833 7.60793 5.56833 8.028C5.56833 8.2147 5.6705 8.5881 6.13027 8.86815C5.92593 8.5881 5.97701 8.16803 6.28353 8.26138C6.94764 8.44808 7.30524 8.44808 7.71392 7.98133C7.71392 8.26138 7.45849 8.49475 7.30524 8.72812C7.04981 9.33489 7.45849 9.94166 8.32695 9.94166C7.96935 9.61494 8.02044 9.24154 8.02044 9.24154C8.12261 8.72812 8.4802 8.54142 8.63346 8.12135C8.88889 7.14119 7.86718 6.95449 8.07152 6.021C8.07152 5.88098 8.12261 5.64761 8.22478 5.50759C8.88889 5.41424 9.24649 5.18086 9.70626 4.99417C10.166 5.83431 8.8378 6.90782 9.70626 7.74796C10.2171 8.2147 11.1367 8.49475 12.0562 8.54142H12.1073C12.0562 8.5881 12.0051 8.68145 12.0051 8.7748C11.7497 8.68145 11.5453 8.82147 11.5964 9.05484C10.6258 9.05484 9.75734 9.56826 9.96169 10.6418C10.0128 11.0152 10.166 11.2019 10.4725 11.3886C10.8812 10.7818 12.0562 10.7351 12.8736 11.1552C12.4649 11.1552 11.8519 11.2485 11.4432 11.3886C10.9834 11.5753 10.4215 11.8086 9.85952 11.7153C9.45083 11.6686 9.24649 11.4352 9.1954 11.2019C8.99106 11.3419 9.14432 12.0887 9.85952 12.3687C10.2171 12.5088 10.8301 12.6021 11.2388 12.3221C11.3921 12.2287 12.0051 11.6219 12.8225 11.6219C11.6986 11.902 11.3921 12.6488 12.2605 13.0688C12.2095 12.8355 12.1584 12.4621 12.7203 12.1354C13.0268 11.9487 13.5377 11.8553 13.9974 11.9953C14.1507 12.042 14.4061 12.182 14.5594 12.182C14.8148 12.182 14.917 12.0887 14.9681 11.9953C15.4789 12.3221 16.1941 13.3956 16.3474 14.049C16.5006 14.7958 16.3985 15.3092 15.9898 15.7293C15.8365 15.8693 15.1724 16.3361 14.5594 15.8226C14.5083 16.2894 14.7637 16.6628 15.1724 16.8028C14.7637 16.8028 14.5083 16.8028 14.5083 16.8028H14.4572L14.4061 16.8495C14.4061 16.8495 14.355 16.9895 14.2529 17.2229C13.9974 17.1295 13.7931 16.9895 13.6909 16.7561C13.129 17.3629 13.2822 18.2964 14.0485 18.5764C14.0485 18.7165 14.0485 18.8565 14.0485 18.9965C13.3844 19.4632 12.2095 19.3699 11.6475 18.5764C11.1877 17.9697 11.6986 17.5496 11.954 17.3162C12.6181 16.7561 12.6181 16.196 12.1584 15.5893C11.5453 14.7491 9.70626 13.3956 8.99106 12.4154C8.88889 12.6021 8.78672 12.7421 8.78672 12.8355C8.12261 12.3687 7.35632 11.3886 7.10089 10.6418C6.94764 10.6418 6.84547 10.7818 6.7433 10.8751C5.72158 9.66161 3.78033 6.7678 3.26948 5.64761C2.14559 6.16103 2.14559 7.60794 2.50319 8.44808C2.80971 9.24154 3.32056 10.035 4.39336 11.2019C4.03576 10.9685 1.94125 8.96149 1.4304 8.72812C0.664112 9.75496 1.17497 11.5753 2.65645 12.3221C2.19668 12.1354 1.0728 11.762 0.45977 11.902C0.357599 13.0688 1.37931 13.8623 1.99234 14.2824C1.37931 14.1424 0.664112 14.049 0 14.2357C0.0510856 15.0292 0.91954 15.916 2.19668 16.2894C1.37931 16.196 0.561941 16.2894 0.102171 16.5694C0.204342 17.4096 1.22605 18.1097 2.40102 18.2497C1.58365 18.3431 0.868455 18.6698 0.510856 19.0899C0.970626 19.6033 1.58365 20.0233 2.60536 20.0233C2.40102 20.1167 2.09451 20.2567 1.89017 20.4434C1.89017 20.4434 1.83908 20.3967 1.78799 20.3967C1.73691 20.3967 1.73691 20.4901 1.73691 20.5368C1.73691 20.5368 1.73691 20.5368 1.73691 20.5834C1.68582 20.6768 1.58365 20.7235 1.58365 20.8168C1.48148 20.9568 1.37931 21.0969 1.32822 21.1902L1.37931 21.2369C1.37931 21.3302 1.37931 21.3769 1.4304 21.4702C1.37931 21.5169 1.37931 21.5636 1.32822 21.6569L0.766284 21.4702C0.715198 21.937 0.868455 22.3571 1.12388 22.5904C1.32822 22.8238 1.58365 22.7771 1.48148 22.8705L2.09451 23.2439C2.19668 23.4772 2.45211 23.4772 2.60536 23.3839C2.60536 23.3839 2.60536 23.3839 2.60536 23.4306C2.60536 23.6639 2.75862 23.8506 3.01405 23.944C3.06513 24.0373 3.11622 24.1774 3.42273 24.2707L5.82376 29.5449C5.72158 29.7783 5.82376 30.0117 6.0281 30.105C5.97701 30.1517 5.92593 30.245 5.92593 30.3384C6.0281 30.2917 6.13027 30.245 6.23244 30.4317C6.28353 30.5718 6.0281 30.9452 6.3857 31.2252C6.33461 31.4586 6.48787 31.7386 6.7433 31.832C6.7433 31.972 6.84547 32.3454 6.89655 32.5321C6.7433 32.7655 6.33461 33.0922 6.3857 33.4656C6.43678 33.7456 6.53895 33.7923 6.79438 33.8856C6.69221 34.3524 6.99872 34.5858 7.40741 34.5858C7.40741 34.9125 7.76501 35.0525 7.96935 35.0525C8.17369 35.1925 8.27586 35.2392 8.53129 35.3792C8.32695 35.6126 8.48021 35.9393 8.88889 36.0793C8.93998 36.2194 9.04215 36.3594 9.29757 36.4061C9.45083 36.5928 9.70626 36.5928 9.85952 36.5461C9.96169 36.4994 10.1149 36.266 9.96169 36.0327C10.0639 35.9393 10.0128 35.706 9.96169 35.6126C10.1149 35.3792 9.96169 35.0992 9.80843 35.0058C9.80843 34.8658 9.75734 34.6791 9.70626 34.5391C10.0639 34.3524 10.4725 34.119 10.6258 34.0257C11.4432 33.5123 12.3627 32.9988 13.3844 32.9522C13.6398 32.9522 14.1507 32.9055 14.4061 32.9522C14.8148 32.9988 15.4278 33.0922 15.7344 32.8588C15.8365 32.8121 15.8876 32.6721 15.8876 32.5788C15.8365 32.3454 15.53 32.112 15.4789 31.9253C15.4789 31.8787 15.4278 31.7853 15.3768 31.6919C15.6833 31.7386 15.9387 31.692 16.143 31.6453C16.3474 31.5986 16.7561 31.2719 16.7561 30.8518C16.3985 30.9918 15.53 31.2252 15.4278 30.4317C15.3257 29.7316 15.9898 29.1249 17.0626 29.4049C17.7778 29.5916 18.8506 30.9918 17.8799 31.5986C17.4202 31.8786 16.705 32.1587 16.8072 32.9522C17.1137 32.6254 17.5224 32.4387 18.0843 32.4854C17.318 32.9988 16.705 33.0922 15.8876 33.5123C15.1724 33.8857 14.6105 34.5391 14.0485 34.5391C13.5888 34.5391 13.3844 34.0723 13.7931 33.699C13.3844 33.6056 12.8225 33.9323 12.6692 34.3057C12.4649 34.8658 12.6181 35.2392 13.0268 35.4726C12.516 35.706 12.1584 36.2194 12.3116 36.9195C12.4649 37.4796 13.129 37.4796 12.8736 38.2264C13.2312 38.133 13.4355 37.8997 13.5377 37.6196C13.5888 37.3862 13.6398 37.1529 13.742 37.0595C13.6909 37.4796 13.9464 38.133 14.6105 38.4597C15.0702 38.6464 15.7344 38.7398 16.2963 38.2264C16.3985 38.7398 17.1648 39.2065 17.931 39.2065C18.2886 39.2065 18.6462 39.0665 18.9017 38.9265C19.106 39.3466 19.5658 39.7666 20.0255 40C20.4853 39.8133 20.9962 39.3466 21.1494 38.9265C21.4049 39.0665 21.7625 39.2065 22.1201 39.2065C22.8863 39.2065 23.6526 38.7398 23.857 38.1797C24.4189 38.6931 25.083 38.5998 25.5428 38.4131C26.2069 38.133 26.4623 37.4796 26.4112 37.0128C26.5134 37.1062 26.5645 37.3396 26.6156 37.5729C26.7178 37.8997 26.9221 38.0864 27.2797 38.1797C27.0243 37.4329 27.6884 37.4329 27.8416 36.8728C28.046 36.1727 27.6373 35.6593 27.1264 35.4259C27.484 35.1925 27.6884 34.8191 27.433 34.259C27.2797 33.839 26.7178 33.5589 26.3091 33.6523C26.7178 34.0257 26.5134 34.4924 26.0536 34.4924C25.4917 34.4924 24.9298 33.839 24.2146 33.4656C23.3972 33.0455 22.7842 32.9988 22.0179 32.4387C22.5798 32.3921 22.9885 32.5788 23.295 32.9055C23.3972 32.1587 22.682 31.8786 22.1711 31.5519C21.2005 30.9452 22.2733 29.5449 22.9885 29.3582C24.0102 29.0782 24.7254 29.6849 24.6232 30.3851C24.5211 31.1785 23.6526 30.9918 23.295 30.8051C23.295 31.2719 23.7548 31.5519 23.908 31.5986C24.1124 31.6919 24.5211 31.7386 24.8787 31.5986C24.8787 31.6919 24.8276 31.7386 24.8276 31.7853C24.7765 32.4854 24.3678 32.5321 24.47 32.8121C24.6743 32.9988 25.9515 32.9988 26.3091 33.0455C26.9221 33.1389 27.433 33.3256 27.9949 33.4189C28.659 33.5589 29.3231 33.5589 29.9361 33.7456C30.2937 33.8857 30.7535 34.1657 31.1111 34.3524C31.6731 34.4457 31.5709 34.6324 31.9285 34.6324C32.235 34.6324 32.3883 34.3991 32.7969 34.259C33.1035 34.2124 33.41 34.3057 33.6654 34.2124C33.8697 34.1657 33.9719 33.979 34.1762 33.8856C34.3806 33.7456 34.7382 33.7456 34.9425 33.5589C35.0447 33.4656 35.0958 33.2789 35.0447 33.1855V33.2322C35.5045 32.9522 35.811 32.5321 36.0153 32.0653C36.1175 32.0653 36.2197 31.972 36.2197 31.832V31.7853C36.3218 31.6919 36.424 31.5519 36.424 31.4586C36.424 31.3186 36.3729 31.1785 36.2197 31.0852C36.2197 31.0852 36.2197 31.0852 36.2197 31.0385C36.2197 30.9452 36.1686 30.8985 36.1175 30.8518C35.9132 29.9183 35.198 29.2182 34.2273 28.9848C34.2273 28.9848 34.2273 28.9848 34.2273 28.9382C34.2273 28.8915 34.2273 28.8915 34.1762 28.8915C34.023 28.7515 33.8697 28.5648 33.8697 28.4247C34.023 28.4714 34.2784 28.7048 34.4317 28.7981V27.5846C34.2784 27.6779 34.023 27.9113 33.8697 27.958C33.8697 27.818 34.1252 27.5379 34.2784 27.4446H32.9502C33.0524 27.5379 33.3078 27.818 33.3589 27.958C33.2056 27.9113 32.9502 27.6779 32.7969 27.5846V28.7981C32.9502 28.7048 33.2056 28.4714 33.3589 28.4247C33.3589 28.5648 33.1035 28.8448 32.9502 28.9382H33.0013C31.9796 29.1249 31.2133 29.9183 31.0089 30.8518C30.9579 30.8985 30.9068 30.9452 30.9068 31.0385V31.0852C30.8046 31.1785 30.7024 31.3186 30.7024 31.4586C30.7024 31.5986 30.7535 31.6919 30.9068 31.7853C30.9068 31.7853 30.9068 31.7853 30.9068 31.832C30.9068 31.972 31.0089 32.0187 31.1111 32.0653C31.1622 32.1587 31.2133 32.2987 31.2644 32.3921C31.1622 32.7188 30.7024 32.9522 30.6003 32.9522C29.7829 33.0455 28.8633 32.7655 28.046 32.4387C27.6884 32.2987 27.1775 32.1587 26.9221 31.832C26.7688 31.5986 26.7178 31.4586 26.7688 31.2252C26.871 31.3186 27.0243 31.4586 27.2286 31.5519C27.2286 31.4586 27.2286 31.3186 27.2797 31.2719C27.484 31.5519 27.8416 31.6919 28.1992 31.6919C27.9438 31.5053 27.8416 30.9918 27.9438 30.5718C28.3014 31.0852 29.5275 31.1785 29.7829 30.245C29.3231 30.4317 29.0166 30.245 28.9144 30.0117C28.7612 29.6383 29.2209 28.7515 28.8123 28.0513C28.4547 27.5379 28.0971 27.2112 27.2286 27.1179C27.2797 27.0245 27.3308 26.9312 27.3308 26.7911C26.5134 27.0712 25.7982 26.8378 25.4917 26.2777C25.645 26.3244 25.9004 26.3711 26.1047 26.3711C25.3895 25.8576 25.4406 24.3174 25.9515 23.5239C26.0026 23.4772 26.0536 23.4306 26.1047 23.4306C26.258 23.7106 26.7178 23.7106 26.9732 23.944C27.0754 23.8506 27.1264 23.8506 27.2286 23.7573C27.2286 23.7573 27.2286 25.0175 27.3308 25.5309C27.433 26.091 28.046 26.0443 28.3525 26.2777C28.7101 25.9043 29.3742 25.951 29.272 25.2976C29.1699 24.6441 29.0677 24.084 29.0166 23.6639C29.2209 24.0373 29.6296 25.4842 29.7829 25.9043C30.0383 26.5111 30.7024 26.3244 31.06 26.5578C31.3155 26.1377 31.9285 25.9977 31.6731 25.3442C31.622 25.1575 30.6003 23.2439 30.447 22.8705C30.8046 23.3372 31.7752 25.0175 32.0817 25.4842C32.4393 25.9977 33.0013 25.7176 33.4611 25.8576C33.5632 25.4842 34.1252 25.1109 33.7165 24.4574C33.1545 23.6173 31.9285 22.217 31.8263 22.0303C32.0817 22.2637 34.023 24.4574 34.1762 24.5974C34.636 24.9708 35.3001 24.6908 35.7088 24.6908C35.7088 24.2707 36.0664 23.804 35.5556 23.3372C35.0958 22.9172 34.023 22.217 33.7676 21.9837C34.4828 22.4504 35.3512 23.1505 35.8621 23.2906C36.7816 23.4772 37.0881 23.1972 37.3946 23.0572C37.1392 22.3104 37.4968 21.9837 35.6066 21.2369C37.2414 21.7503 37.9566 21.5169 38.5696 21.0969C38.3653 20.5834 37.7522 20.1167 37.2925 19.9767C38.3142 19.9767 38.9783 19.6033 39.387 19.0432C39.0294 18.5764 38.2631 18.2497 37.4457 18.203C38.7739 18.1097 39.7446 17.4096 39.8978 16.6161ZM1.94125 22.077C1.73691 22.077 1.73691 21.937 1.78799 21.8436C1.83908 21.8436 1.89017 21.8436 1.94125 21.797L1.89017 21.8436C1.94125 21.937 1.94125 21.9837 1.94125 22.077ZM2.40102 22.9638L2.19668 22.8238C2.29885 22.7305 2.40102 22.7305 2.45211 22.7771C2.45211 22.8705 2.45211 22.9172 2.40102 22.9638ZM3.06513 21.6569C3.01405 21.6569 3.01405 21.6569 2.96296 21.6569C3.01405 21.6103 3.06513 21.6103 3.06513 21.6569C3.11622 21.6569 3.11622 21.6103 3.06513 21.6569ZM16.092 36.9662C15.53 36.9662 15.1213 36.6394 15.4278 36.1727C15.5811 36.3594 15.8876 36.4527 16.143 36.4994C16.092 36.6861 16.092 36.7795 16.092 36.9662ZM24.6232 36.1727C24.9298 36.6394 24.5211 36.9662 23.9591 36.9662C23.9591 36.7795 23.9591 36.7328 23.908 36.4994C24.1635 36.4527 24.47 36.4061 24.6232 36.1727ZM16.0409 8.44808C17.318 8.2147 18.6462 7.51459 19.2082 7.00117C19.719 7.04784 20.3321 7.04784 20.7918 7.00117C21.3538 7.56126 22.682 8.2147 23.9591 8.44808C23.1928 8.44808 21.9157 8.4014 21.7625 8.2147C21.8135 8.63477 22.7842 9.14819 23.4483 9.24154C22.8863 9.28821 22.4266 9.24154 21.9668 9.05484C22.2222 9.38156 22.4777 9.56826 22.8863 9.70829C22.4266 10.2217 21.507 10.5484 20.5364 10.4551C20.7407 10.6884 21.2005 10.8751 21.5581 10.8285C20.7407 12.042 20.0766 13.3022 19.9745 14.7491C19.8212 13.3022 19.2082 12.042 18.3908 10.8285C18.7484 10.8751 19.1571 10.7351 19.4125 10.4551C18.493 10.5484 17.5734 10.2217 17.1137 9.70829C17.5734 9.56826 17.8289 9.33489 18.0332 9.05484C17.6245 9.24154 17.1137 9.28821 16.5517 9.24154C17.2158 9.10152 18.2375 8.63477 18.2375 8.2147C18.0843 8.4014 16.8072 8.44808 16.0409 8.44808ZM4.29119 21.3302C4.18902 21.3769 4.03576 21.4236 3.93359 21.4702C3.93359 21.4702 3.93359 21.4702 3.93359 21.4236C4.03576 21.4236 4.18902 21.3769 4.29119 21.3302ZM12.5671 26.8378C12.5671 26.9778 12.6181 27.0712 12.6692 27.1645C11.8008 27.3046 11.3921 27.5846 11.0856 28.098C10.6258 28.7981 11.0856 29.6849 10.9834 30.0583C10.8812 30.2917 10.5747 30.5251 10.1149 30.2917C10.3193 31.2252 11.5964 31.1319 11.954 30.6184C12.0562 31.0385 11.954 31.5519 11.7497 31.7386C12.1584 31.7386 12.4649 31.5986 12.6692 31.3186C12.7203 31.4119 12.7203 31.5053 12.7203 31.5986C12.9247 31.5053 13.0779 31.3652 13.1801 31.2719C13.2312 31.3652 13.2822 31.5986 13.1801 31.832C13.0268 31.9253 12.8225 32.0187 12.516 32.1587C12.0562 32.3454 11.1877 32.6721 10.6769 32.7188C10.2682 32.7655 9.553 32.5788 9.39974 32.0653C9.24649 31.5519 8.78672 31.4119 8.42912 31.7386C8.32695 31.692 8.07152 31.6453 7.96935 31.7853C7.96935 31.7853 7.86718 31.5519 7.71392 31.4586C7.81609 31.2252 7.71392 30.8985 7.50958 30.8051C7.50958 30.2917 7.15198 30.2917 7.04981 30.1517C6.99872 30.0583 6.99872 29.9183 7.15198 29.9183C7.10089 29.825 6.94764 29.825 6.94764 29.825C6.99872 29.6383 6.94764 29.3582 6.59004 29.2649L3.8825 24.1307C4.03576 23.944 3.98467 23.7106 3.78033 23.6173C3.78033 23.6173 3.78033 23.6173 3.78033 23.5706C3.78033 23.5239 3.78033 23.4772 3.78033 23.4772C3.83142 23.4772 3.93359 23.4306 4.03576 23.4306C4.5977 23.3372 5.41507 22.5904 6.13027 22.1237C5.87484 22.3571 4.80204 23.0572 4.34227 23.4772C3.8825 23.8973 4.08685 24.2707 4.13793 24.6441L4.2401 24.8308C4.64879 24.8308 5.21073 25.0642 5.6705 24.7375C5.82376 24.5974 7.76501 22.4037 8.02044 22.1704C7.91826 22.3571 6.69221 23.804 6.13027 24.5974C5.72158 25.2042 6.33461 25.6243 6.3857 25.9977C6.84547 25.8576 7.45849 26.091 7.76501 25.6243C8.07152 25.1575 9.04215 23.4772 9.39974 23.0105C9.24649 23.3839 8.27586 25.2976 8.17369 25.4842C7.91826 26.1377 8.53129 26.2777 8.78672 26.6978C9.14432 26.4644 9.80843 26.6511 10.0639 26.0443C10.2171 25.6243 10.6258 24.1774 10.8301 23.804C10.8301 24.224 10.6769 24.8308 10.5747 25.4376C10.4725 26.091 11.1367 26.0443 11.4943 26.4177C11.8519 26.1844 12.4138 26.231 12.516 25.6709C12.6181 25.1575 12.6181 23.8973 12.6181 23.8973C12.7203 23.9907 12.7714 23.9907 12.8736 24.084C13.0779 23.8506 13.5888 23.8506 13.742 23.5706C13.7931 23.5706 13.8442 23.6173 13.8953 23.6639C14.4061 24.4574 14.4572 25.951 13.742 26.5111C13.9464 26.5111 14.2018 26.5111 14.355 26.4177C14.0485 26.8845 13.3844 27.1179 12.5671 26.8378ZM17.6245 33.979C17.2158 34.4924 16.8582 34.9125 16.6028 35.5659C16.092 35.5193 16.1941 34.9592 16.3474 34.6791C16.705 34.119 18.0332 33.4189 18.6973 32.6721C18.3908 33.1855 17.9821 33.5589 17.6245 33.979ZM19.106 34.9592C18.8506 35.9393 18.6462 37.3862 18.7484 38.0397C17.7778 37.5729 18.3397 35.846 18.6973 35.0992C19.2082 34.0723 19.5658 32.7655 19.6679 31.972C19.9234 32.5788 19.3103 34.3057 19.106 34.9592ZM21.3027 38.0397C21.4049 37.3862 21.2005 35.9393 20.9451 34.9592C20.7407 34.3057 20.0766 32.5788 20.3831 31.9253C20.4853 32.7655 20.8429 34.0257 21.3538 35.0525C21.7114 35.846 22.2733 37.6196 21.3027 38.0397ZM23.6526 34.6791C23.8059 34.9592 23.908 35.5193 23.3972 35.5659C23.1418 34.9125 22.7842 34.5391 22.3755 33.979C22.0179 33.5589 21.5581 33.1389 21.2516 32.6721C21.9668 33.4189 23.3461 34.1657 23.6526 34.6791ZM23.5504 27.2112C22.3244 29.4049 20.0255 31.2252 20.0255 31.1785C19.9745 31.2252 17.7267 29.4049 16.5006 27.2112C15.2746 25.0175 14.4572 21.5636 14.4061 19.8833C14.355 18.2497 14.7126 17.5029 14.7126 17.5029C14.7126 17.5029 16.2452 17.4096 17.5224 17.0362C18.5951 16.7095 19.719 15.8693 20.0255 15.6359C20.3321 15.8693 21.507 16.7095 22.5287 17.0362C23.7548 17.4096 25.3384 17.5029 25.3384 17.5029C25.3384 17.5029 25.696 18.203 25.645 19.8833C25.5939 21.5636 24.7765 25.0175 23.5504 27.2112Z" fill="#0019FF"/>
</g>
<defs>
<filter id="filter0_i_4042_2998" x="0" y="0" width="40" height="43" filterUnits="userSpaceOnUse" color-interpolation-filters="sRGB">
<feFlood flood-opacity="0" result="BackgroundImageFix"/>
<feBlend mode="normal" in="SourceGraphic" in2="BackgroundImageFix" result="shape"/>
<feColorMatrix in="SourceAlpha" type="matrix" values="0 0 0 0 0 0 0 0 0 0 0 0 0 0 0 0 0 0 127 0" result="hardAlpha"/>
<feOffset dy="3"/>
<feGaussianBlur stdDeviation="2.5"/>
<feComposite in2="hardAlpha" operator="arithmetic" k2="-1" k3="1"/>
<feColorMatrix type="matrix" values="0 0 0 0 0 0 0 0 0 0 0 0 0 0 0 0 0 0 0.05 0"/>
<feBlend mode="normal" in2="shape" result="effect1_innerShadow_4042_2998"/>
</filter>
</defs>
</svg>
