<svg width="324" height="137" viewBox="0 0 324 137" fill="none" xmlns="http://www.w3.org/2000/svg">
<path d="M197.38 156.501C197.38 156.501 195.311 154.625 192.001 154.625C190.346 154.625 188.277 155 186.621 156.126C186.208 156.126 186.208 156.501 186.208 156.876C186.208 156.876 187.449 165.508 186.621 168.886C185.794 171.513 183.311 174.891 178.759 174.891C177.932 174.891 176.69 174.891 175.863 174.516L179.173 172.264C179.587 172.264 179.587 171.888 179.587 171.513C179.587 171.138 179.587 171.138 179.173 170.763L172.139 166.634C174.208 165.133 175.863 164.007 175.863 164.007C175.863 164.007 176.277 163.632 176.277 163.256C176.277 162.881 176.277 162.881 175.863 162.506L174.208 161.38C174.208 161.38 173.794 161.005 173.38 161.005H172.966C172.966 161.005 170.897 162.131 168.415 164.007L165.518 162.131L176.277 155.375L177.104 157.252C177.104 157.627 177.518 157.627 177.932 157.627C178.346 157.627 178.759 157.627 178.759 157.252L183.725 148.62C183.725 148.244 183.725 147.869 183.725 147.869C183.725 147.494 183.311 147.494 182.897 147.494L172.139 148.995C171.725 148.995 171.311 149.37 171.311 149.746C171.311 150.121 171.311 150.496 171.725 150.496L173.38 151.997L160.966 159.503L148.553 151.997L150.208 150.496C150.621 150.121 150.621 149.746 150.621 149.746C150.621 149.37 150.208 149.37 149.794 148.995L139.035 147.494C138.621 147.494 138.621 147.494 138.208 147.869C138.208 148.244 137.794 148.62 138.208 148.62L143.173 157.252C143.173 157.627 143.587 157.627 144.001 157.627C144.415 157.627 144.828 157.252 144.828 157.252L145.656 155.375L156.415 162.131L153.518 164.007C150.621 162.131 148.966 161.005 148.966 161.005H148.553C148.139 161.005 148.139 161.005 147.725 161.38L146.484 162.506C146.484 162.506 146.07 162.881 146.07 163.256C146.07 163.632 146.07 163.632 146.484 164.007C146.484 164.007 148.139 165.133 150.208 166.634L143.173 170.763C142.759 170.763 142.759 171.138 142.759 171.513C142.759 171.888 142.759 171.888 143.173 172.264L146.484 174.516C145.242 174.891 144.415 174.891 143.587 174.891C139.035 174.891 136.553 171.888 135.725 168.886C134.897 165.133 136.139 156.876 136.139 156.876C136.139 156.501 136.139 156.126 135.725 156.126C133.656 155 132.001 154.625 130.346 154.625C127.035 154.625 124.966 156.501 124.966 156.501L124.553 156.876C124.553 157.252 123.311 169.637 129.518 175.641C132.001 177.893 134.897 179.019 138.621 179.019C139.449 179.019 139.863 179.019 140.69 179.019C144.415 178.644 147.725 177.893 151.035 176.767L156.828 180.145L144.001 188.026C143.587 188.026 143.587 188.402 143.587 188.777C143.587 189.152 143.587 189.152 144.001 189.528L156.828 197.409L146.07 204.164L145.242 202.288C145.242 201.913 144.828 201.913 144.415 201.913C144.001 201.913 143.587 201.913 143.587 202.288L138.621 210.92C138.621 211.295 138.621 211.671 138.621 211.671C138.621 212.046 139.035 212.046 139.449 212.046L150.208 210.545C150.621 210.545 151.035 210.169 151.035 209.794C151.035 209.419 151.035 209.043 150.621 209.043L149.38 207.917L161.794 200.036L174.208 207.917L172.553 209.419C172.139 209.794 172.139 210.169 172.139 210.169C172.139 210.545 172.553 210.545 172.966 210.92L183.725 212.421C184.139 212.421 184.139 212.421 184.553 212.046C184.553 211.67 184.966 211.295 184.553 211.295L179.587 202.663C179.587 202.288 179.173 202.288 178.759 202.288C178.346 202.288 177.932 202.663 177.932 202.663L177.104 204.54L166.346 197.784L179.173 189.903C179.587 189.903 179.587 189.528 179.587 189.152C179.587 188.777 179.587 188.777 179.173 188.402L165.932 180.145L171.725 176.767C175.035 177.893 178.346 178.644 182.07 179.019C182.897 179.019 183.311 179.019 184.139 179.019C187.863 179.019 190.759 177.893 193.242 175.641C199.449 169.637 198.208 157.252 198.208 156.876C197.794 156.876 197.794 156.501 197.38 156.501ZM161.38 165.508L164.277 167.01C163.449 167.385 162.621 168.135 161.38 168.511C160.553 168.135 159.725 167.385 158.484 167.01L161.38 165.508ZM151.449 171.513L155.173 169.261C156.001 169.637 156.828 170.012 157.656 170.763C156.001 171.513 154.759 172.264 153.104 172.639L151.449 171.513ZM171.311 188.777L161.794 194.782L152.277 188.777L161.794 182.772L171.311 188.777ZM161.38 177.518L156.828 174.516C158.484 173.765 160.139 173.014 161.38 172.264C163.035 173.014 164.277 173.765 165.932 174.516L161.38 177.518ZM169.656 172.639C168.001 171.888 166.759 171.513 165.104 170.763C165.932 170.387 166.759 170.012 167.587 169.261L171.311 171.513L169.656 172.639Z" fill="#F6F9FC"/>
<path d="M200.689 163.632C201.103 162.881 201.103 161.755 201.103 161.755H200.689V163.632Z" fill="#F6F9FC"/>
<path d="M323.172 133.608C319.034 131.356 312.414 130.605 305.793 131.356C316.138 127.978 323.586 120.847 324 114.843C318.621 113.341 312.828 114.092 307.862 115.218C312.828 111.84 321.103 105.46 320.276 96.0774C315.31 94.9515 306.207 97.9539 302.483 99.4551C314.483 93.4503 319.035 78.8135 312.414 70.5568C308.69 72.4334 291.31 88.5714 288.414 90.4479C297.517 81.0653 301.655 74.6852 303.724 68.305C306.621 61.5496 306.621 49.5399 297.517 45.7869C292.966 54.7942 277.655 78.0629 269.379 87.8208C268.552 87.0702 267.724 85.9442 266.483 85.9442C264.414 91.9491 258.207 99.8304 252.828 103.583C252.414 103.208 252 101.707 251.172 100.206C245.379 108.087 230.069 118.971 225.103 125.726C221.379 130.605 221.379 135.109 226.759 139.612C228.828 141.489 232.966 144.867 229.655 149.746C224.69 156.126 215.172 156.876 209.793 153.123C209.793 151.997 209.793 150.872 209.793 149.746C216 147.494 217.241 139.988 212.69 135.109C211.862 136.985 210.207 138.111 208.138 138.862C207.724 136.985 207.31 135.859 206.897 135.859L207.31 135.109H206.897C206.897 135.109 204.828 135.109 201.931 134.734C205.241 133.608 207.724 130.981 206.897 126.852C201.517 130.981 196.138 126.852 195.31 126.102C192 122.724 191.172 118.596 192.414 112.591C193.655 107.336 199.448 98.7045 203.586 96.0774C204 96.4527 205.241 97.5786 206.897 97.5786C208.138 97.2033 209.793 96.4527 211.448 96.0774C215.586 94.9515 219.31 95.7021 221.793 97.2033C226.345 99.8304 225.931 102.458 225.931 104.709C232.966 101.332 230.483 95.3268 221.379 93.075C227.586 93.075 232.552 98.3292 233.793 98.7045C237.103 100.956 242.069 100.581 244.966 99.0798C250.345 96.828 251.586 90.8232 249.931 89.6973C249.517 91.9491 247.448 93.8256 244.552 93.8256C240 94.2009 235.448 92.3244 231.724 91.1985C228.828 90.0726 223.862 89.322 220.552 89.322C226.759 86.3195 236.276 86.6948 240 91.1985C242.069 89.6973 243.31 88.1961 243.724 85.1936C245.379 76.937 238.345 72.4334 230.483 72.4334C230.483 70.5568 229.241 69.4309 227.172 70.1815C227.172 69.4309 226.759 68.6803 226.345 68.305H226.759C234.621 67.9297 242.069 65.6779 245.793 61.9249C252.828 55.1694 241.655 46.5375 245.793 39.7821C249.517 41.2833 252.414 43.1598 257.793 43.9104C258.207 45.0363 258.621 46.9128 259.034 48.0387C260.69 55.5448 252.414 56.6707 254.483 64.9273C255.31 68.6803 258.207 69.8062 259.448 73.9346C259.448 73.9346 259.862 76.937 256.966 79.5641C263.586 79.5641 267.31 74.6852 265.241 69.8062C264.414 67.9297 261.931 66.0532 261.931 63.8014C265.241 67.9297 268.552 67.9297 273.931 66.0532C276.414 65.3026 276.414 68.305 275.172 70.9322C278.897 69.0556 279.724 65.6779 279.724 64.1767C279.724 60.799 276.828 59.2978 273.931 60.0484C272.276 60.0484 269.379 62.3002 268.966 59.2978C268.138 54.4188 276.828 54.7942 275.172 46.9128C274.345 43.1598 269.379 40.908 261.931 40.1574C261.103 39.4067 259.448 37.9055 258.207 36.4043C254.069 30.3995 249.931 28.523 247.448 30.0242C244.552 31.5254 242.897 32.6513 240.414 33.7772C238.345 34.5278 236.276 35.2784 235.035 36.4043C231.724 40.1574 235.035 45.7869 236.69 49.1646C237.931 51.0411 240.414 55.9201 239.172 59.2978C237.931 63.4261 230.483 66.0532 225.931 66.8038C225.517 66.8038 225.517 66.8038 225.103 66.8038V65.3026C226.345 63.0508 227.586 60.799 228.414 58.5472C231.31 51.0411 226.759 48.0387 220.138 46.5375C219.31 46.1622 218.483 45.7869 217.241 46.1622V47.2881H215.586V45.7869H215.172C216 45.4116 216.414 44.2857 216.414 43.5351C216.414 42.7845 216 42.0339 215.586 41.2833H216.414H216C216 40.908 215.586 40.5327 214.759 40.1574C214.759 40.1574 214.345 39.7821 214.345 39.4067C214.345 39.4067 214.759 39.7821 215.172 39.7821C215.586 40.1574 216 40.5327 216.414 40.908L216.828 41.2833V34.5278L216.414 34.9031C216.414 34.9031 215.586 35.2784 215.172 35.6537C214.759 36.029 214.759 36.029 214.345 36.029C214.345 36.029 214.345 35.6537 214.759 35.2784C215.172 34.9031 215.586 34.5278 216 34.1525L216.414 33.7772H208.966L209.379 34.1525C209.793 34.5278 210.207 34.9031 210.621 35.2784C210.621 35.6537 211.035 35.6537 211.035 36.029C211.035 36.029 210.621 36.029 210.207 35.6537C209.379 35.2784 209.379 34.9031 208.966 34.9031L208.552 34.5278V41.2833L208.966 40.908C209.379 40.5327 209.793 40.1574 210.207 39.7821C210.207 39.7821 210.621 39.4067 211.035 39.4067C211.035 39.4067 210.621 39.7821 210.621 40.1574C210.207 40.5327 209.793 40.908 209.379 41.2833L208.966 41.6586H210.207C209.379 42.0339 209.379 42.7845 209.379 43.9104C209.379 44.661 209.793 45.4116 210.207 46.1622V47.6634L209.379 48.0387V46.9128C208.138 46.5375 207.31 46.9128 206.483 47.2881C199.448 48.7893 194.897 51.7917 198.207 59.2978C199.035 61.5496 200.276 64.1767 201.517 66.0532V67.1791C194.483 65.3026 182.483 58.1719 178.759 54.0435C178.345 53.6682 177.931 53.2929 177.931 52.9176V48.414C180.414 44.661 182.483 40.1574 184.138 36.029C188.69 25.1453 182.069 21.0169 171.724 19.1404C170.897 18.3898 169.241 18.0145 167.586 18.7651L167.172 20.2663H165.103V18.0145C164.69 18.0145 164.276 18.0145 163.862 18.0145C165.517 17.2639 166.345 15.7627 166.345 13.8862C166.345 12.7603 165.517 11.2591 164.69 10.5085H166.345C165.517 9.75786 163.448 7.88135 163.448 6.75544C164.69 7.13074 166.759 8.63196 167.586 9.38256V1.12591C166.759 1.87651 164.69 3.37772 163.448 3.75302C164.276 2.62712 165.931 0.750605 167.172 0H157.655C158.483 0.750605 160.138 2.62712 160.552 3.37772C159.31 3.37772 157.655 1.50121 156.414 0.750605V9.38256C157.241 8.63196 159.31 6.75544 160.552 6.75544C160.552 7.88135 158.483 9.75786 157.655 10.5085H159.31C158.069 11.2591 157.655 12.7603 157.655 13.8862C157.655 15.3874 158.483 17.2639 160.138 18.0145C159.724 18.0145 159.31 18.0145 158.897 18.0145V20.2663H156.828V18.7651C155.172 18.3898 153.931 18.7651 152.69 19.1404C142.759 21.0169 136.138 25.5206 140.69 36.029C142.345 40.1574 144.414 44.661 146.897 48.414V52.9176C146.897 52.9176 146.483 53.2929 146.069 53.6682C142.759 57.7966 130.345 64.552 123.31 66.8038V65.6779C124.552 63.4261 125.793 61.1743 126.621 58.9225C129.517 51.4164 124.966 48.414 118.345 46.9128C117.517 46.5375 116.69 46.1622 115.448 46.5375V47.6634L114.621 47.2881V45.7869C115.035 45.4116 115.448 44.2857 115.448 43.5351C115.448 42.7845 115.448 42.0339 114.621 41.2833H115.862H115.034C114.621 40.908 114.207 40.5327 113.793 40.1574C113.793 40.1574 113.379 39.7821 112.966 39.4067L113.793 39.7821C114.207 40.1574 114.621 40.5327 115.034 40.908L115.448 41.2833V34.5278L115.034 34.9031C114.621 34.9031 114.207 35.2784 113.793 35.6537C113.793 36.029 112.966 36.029 112.966 36.029C112.966 36.029 113.379 35.6537 113.793 35.2784C114.207 34.9031 114.621 34.5278 115.034 34.1525L115.448 33.7772H108V34.5278C108 34.9031 108.828 35.2784 108.828 35.6537C109.241 36.029 109.241 36.029 109.241 36.4043C109.241 36.4043 108.828 36.4043 108.414 36.029C108 35.6537 107.172 35.2784 107.172 35.2784L106.759 34.9031V41.2833L107.172 40.908C107.172 40.5327 108 40.1574 108.414 39.7821C108.828 39.7821 108.828 39.4067 109.241 39.4067C109.241 39.4067 109.241 39.7821 108.828 40.1574C108.414 40.5327 108 40.908 108 41.2833L107.586 41.6586H108.414C108 42.0339 107.586 42.7845 107.586 43.9104C107.586 44.661 108 45.4116 108.828 46.1622H108.414V47.6634H108V46.5375C106.759 46.1622 105.931 46.5375 105.103 46.9128C98.069 48.414 93.5172 51.4164 96.8276 58.9225C97.6552 61.1743 98.8966 63.8014 100.138 65.6779V67.1791C99.7241 67.1791 99.7241 67.1791 99.3103 67.1791C94.7586 66.4285 87.3104 63.8014 85.6552 59.6731C84.4138 56.2954 87.3104 51.4164 88.1379 49.5399C89.7931 46.1622 92.6897 40.5327 89.7931 36.7796C88.5517 35.2784 86.4828 34.9031 84.4138 34.1525C81.931 33.0266 80.6897 31.9007 77.3793 30.3995C74.8966 28.8983 70.7586 30.3995 66.6207 36.7796C65.7931 38.2808 63.7241 39.7821 62.8966 40.5327C55.4483 41.2833 50.8966 43.5351 49.6552 47.2881C48 55.1694 56.2759 54.7941 55.8621 59.6731C55.8621 62.3002 52.5517 60.4237 50.8966 60.4237C48 59.6731 45.1035 61.1743 45.1035 64.552C45.1035 66.0532 45.931 69.0556 49.6552 71.3075C48 69.0556 48.4138 65.6779 50.8966 66.4285C56.2759 67.9297 59.1724 67.9297 62.4828 64.1767C62.4828 66.4285 60.4138 68.305 59.1724 70.1815C57.1035 75.0605 60.4138 79.9394 67.4483 79.9394C64.5517 77.3123 64.9655 74.3099 64.9655 74.3099C65.7931 70.1815 68.6897 68.6803 69.931 65.3026C72 57.4213 63.7241 55.9201 65.3793 48.414C65.3793 47.2881 65.7931 45.4116 66.6207 44.2857C72 43.5351 74.8966 41.6586 78.6207 40.1574C82.3448 46.9128 71.5862 55.5448 78.6207 62.3002C82.7586 66.0532 90.2069 68.305 97.6552 68.6803H98.069C97.6552 69.0556 97.2414 69.8062 97.2414 70.5568C95.1724 69.8062 93.5173 70.9322 93.931 72.8087C86.069 72.8087 79.0345 76.937 80.6897 85.5689C81.1035 88.5714 82.3448 90.0726 84.8276 91.5738C88.1379 86.6949 97.6552 86.3195 104.276 89.6973C100.966 89.6973 96 90.4479 92.6897 91.5738C88.9655 93.075 84.4138 94.9515 79.8621 94.2009C76.5517 93.8256 74.8966 91.9491 74.4828 90.0726C72.8276 91.1985 74.069 97.2033 79.8621 99.4551C82.7586 100.581 87.7241 101.332 91.0345 99.0798C92.2759 98.3292 97.2414 93.4503 103.862 93.4503C94.7586 95.7021 92.2759 101.707 99.3103 105.085C98.8966 103.208 98.4828 100.206 103.034 97.5786C105.517 96.0774 109.655 95.3268 113.379 96.4527C114.621 96.828 116.69 97.9539 117.931 97.9539C120 97.9539 120.828 97.2033 121.241 96.4527C125.379 99.0798 131.172 107.712 132.414 112.966C133.655 118.971 132.828 123.099 129.517 126.477C128.276 127.603 122.897 131.356 117.931 127.228C117.517 130.981 119.586 133.983 122.897 135.109C119.586 135.109 117.517 135.109 117.517 135.109H117.103L116.69 135.484C116.69 135.484 116.276 136.61 115.448 138.487C113.379 137.736 111.724 136.61 110.897 134.734C106.345 139.613 107.586 147.119 113.793 149.37C113.793 150.496 113.793 151.622 113.793 152.748C108.414 156.501 98.8966 155.75 94.3448 149.37C90.6207 144.491 94.7586 141.114 96.8276 139.237C102.207 134.734 102.207 130.23 98.4828 125.351C93.5173 118.596 78.6207 107.712 72.8276 99.8304C72 101.332 71.1724 102.458 71.1724 103.208C65.7931 99.4551 59.5862 91.5738 57.5172 85.5689C56.2759 85.5689 55.4483 86.6948 54.6207 87.4454C46.3448 77.6876 30.6207 54.4188 26.4828 45.4116C17.3793 49.5399 17.3793 61.1743 20.2759 67.9297C22.7586 74.3099 26.8966 80.69 35.5862 90.0726C32.6897 88.1961 15.7241 72.0581 11.5862 70.1815C5.37931 78.4382 9.51724 93.075 21.5172 99.0798C17.7931 97.5786 8.68966 94.5762 3.72414 95.7021C2.89655 105.085 11.1724 111.465 16.1379 114.843C11.1724 113.717 5.37931 112.966 0 114.467C0.413793 120.847 7.44828 127.978 17.7931 130.981C11.1724 130.23 4.55172 130.981 0.827586 133.232C1.65517 139.988 9.93104 145.617 19.4483 146.743C12.8276 147.494 7.03448 150.121 4.13793 153.499C7.86207 157.627 12.8276 161.005 21.1034 161.005C19.4483 161.755 16.9655 162.881 15.3103 164.382C15.3103 164.382 14.8966 164.007 14.4828 164.007C14.069 164.007 14.069 164.758 14.069 165.133C14.069 165.133 14.069 165.133 14.069 165.508C13.6552 166.259 12.8276 166.634 12.8276 167.385C12 168.511 11.1724 169.637 10.7586 170.387L11.1724 170.763C11.1724 171.513 11.1724 171.888 11.5862 172.639C11.1724 173.014 11.1724 173.39 10.7586 174.14L6.2069 172.639C5.7931 176.392 7.03448 179.77 9.10345 181.646C10.7586 183.523 12.8276 183.148 12 183.898L16.9655 186.901C17.7931 188.777 19.8621 188.777 21.1034 188.026C21.1034 188.026 21.1034 188.026 21.1034 188.402C21.1034 190.278 22.3448 191.78 24.4138 192.53C24.8276 193.281 25.2414 194.407 27.7241 195.157L47.1724 237.566C46.3448 239.443 47.1724 241.319 48.8276 242.07C48.4138 242.445 48 243.196 48 243.947C48.8276 243.571 49.6552 243.196 50.4828 244.697C50.8966 245.823 48.8276 248.825 51.7241 251.077C51.3103 252.954 52.5517 255.206 54.6207 255.956C54.6207 257.082 55.4483 260.085 55.8621 261.586C54.6207 263.462 51.3103 266.089 51.7241 269.092C52.1379 271.344 52.9655 271.719 55.0345 272.47C54.2069 276.223 56.6897 278.099 60 278.099C60 280.726 62.8966 281.852 64.5517 281.852C66.2069 282.978 67.0345 283.353 69.1035 284.479C67.4483 286.356 68.6897 288.983 72 290.109C72.4138 291.235 73.2414 292.361 75.3104 292.736C76.5517 294.237 78.6207 294.237 79.8621 293.862C80.6897 293.486 81.931 291.61 80.6897 289.733C81.5172 288.983 81.1035 287.106 80.6897 286.356C81.931 284.479 80.6897 282.227 79.4483 281.477C79.4483 280.351 79.0345 278.85 78.6207 277.724C81.5173 276.223 84.8276 274.346 86.069 273.595C92.6897 269.467 100.138 265.339 108.414 264.963C110.483 264.963 114.621 264.588 116.69 264.963C120 265.339 124.966 266.089 127.448 264.213C128.276 263.838 128.69 262.712 128.69 261.961C128.276 260.085 125.793 258.208 125.379 256.707C125.379 256.332 124.966 255.581 124.552 254.83C127.034 255.206 129.103 254.83 130.759 254.455C132.414 254.08 135.724 251.453 135.724 248.075C132.828 249.201 125.793 251.077 124.966 244.697C124.138 239.068 129.517 234.189 138.207 236.441C144 237.942 152.69 249.201 144.828 254.08C141.103 256.332 135.31 258.583 136.138 264.963C138.621 262.336 141.931 260.835 146.483 261.21C140.276 265.339 135.31 266.089 128.69 269.467C122.897 272.47 118.345 277.724 113.793 277.724C110.069 277.724 108.414 273.971 111.724 270.968C108.414 270.218 103.862 272.845 102.621 275.847C100.966 280.351 102.207 283.353 105.517 285.23C101.379 287.106 98.4828 291.235 99.7241 296.864C100.966 301.368 106.345 301.368 104.276 307.373C107.172 306.622 108.828 304.746 109.655 302.494C110.069 300.617 110.483 298.741 111.31 297.99C110.897 301.368 112.966 306.622 118.345 309.249C122.069 310.75 127.448 311.501 132 307.373C132.828 311.501 139.034 315.254 145.241 315.254C148.138 315.254 151.034 314.128 153.103 313.002C154.759 316.38 158.483 319.758 162.207 321.634C165.931 320.133 170.069 316.38 171.31 313.002C173.379 314.128 176.276 315.254 179.172 315.254C185.379 315.254 191.586 311.501 193.241 306.997C197.793 311.126 203.172 310.375 206.897 308.874C212.276 306.622 214.345 301.368 213.931 297.615C214.759 298.365 215.172 300.242 215.586 302.118C216.414 304.746 218.069 306.247 220.966 306.997C218.897 300.993 224.276 300.993 225.517 296.489C227.172 290.859 223.862 286.731 219.724 284.855C222.621 282.978 224.276 279.976 222.207 275.472C220.966 272.094 216.414 269.842 213.103 270.593C216.414 273.595 214.759 277.348 211.035 277.348C206.483 277.348 201.931 272.094 196.138 269.092C189.517 265.714 184.552 265.339 178.345 260.835C182.897 260.46 186.207 261.961 188.69 264.588C189.517 258.583 183.724 256.332 179.586 253.704C171.724 248.825 180.414 237.566 186.207 236.065C194.483 233.813 200.276 238.692 199.448 244.322C198.621 250.702 191.586 249.201 188.69 247.7C188.69 251.453 192.414 253.704 193.655 254.08C195.31 254.83 198.621 255.206 201.517 254.08C201.517 254.83 201.103 255.206 201.103 255.581C200.69 261.21 197.379 261.586 198.207 263.838C199.862 265.339 210.207 265.339 213.103 265.714C218.069 266.465 222.207 267.966 226.759 268.716C232.138 269.842 237.517 269.842 242.483 271.344C245.379 272.47 249.103 274.721 252 276.223C256.552 276.973 255.724 278.474 258.621 278.474C261.103 278.474 262.345 276.598 265.655 275.472C268.138 275.097 270.621 275.847 272.69 275.097C274.345 274.721 275.172 273.22 276.828 272.47C278.483 271.344 281.379 271.344 283.035 269.842C283.862 269.092 284.276 267.591 283.862 266.84V267.215C287.586 264.964 290.069 261.586 291.724 257.833C292.552 257.833 293.379 257.082 293.379 255.956V255.581C294.207 254.83 295.034 253.704 295.034 252.954C295.034 251.828 294.621 250.702 293.379 249.951C293.379 249.951 293.379 249.951 293.379 249.576C293.379 248.825 292.966 248.45 292.552 248.075C290.897 240.569 285.103 234.939 277.241 233.063C277.241 233.063 277.241 233.063 277.241 232.687C277.241 232.312 277.241 232.312 276.828 232.312C275.586 231.186 274.345 229.685 274.345 228.559C275.586 228.934 277.655 230.811 278.897 231.562V221.804C277.655 222.554 275.586 224.431 274.345 224.806C274.345 223.68 276.414 221.428 277.655 220.678H266.897C267.724 221.428 269.793 223.68 270.207 224.806C268.966 224.431 266.897 222.554 265.655 221.804V231.562C266.897 230.811 268.966 228.934 270.207 228.559C270.207 229.685 268.138 231.937 266.897 232.687H267.31C259.035 234.189 252.828 240.569 251.172 248.075C250.759 248.45 250.345 248.825 250.345 249.576V249.951C249.517 250.702 248.69 251.828 248.69 252.954C248.69 254.08 249.103 254.83 250.345 255.581C250.345 255.581 250.345 255.581 250.345 255.956C250.345 257.082 251.172 257.457 252 257.833C252.414 258.583 252.828 259.709 253.241 260.46C252.414 263.087 248.69 264.963 247.862 264.963C241.241 265.714 233.793 263.462 227.172 260.835C224.276 259.709 220.138 258.583 218.069 255.956C216.828 254.08 216.414 252.954 216.828 251.077C217.655 251.828 218.897 252.954 220.552 253.704C220.552 252.954 220.552 251.828 220.966 251.453C222.621 253.704 225.517 254.83 228.414 254.83C226.345 253.329 225.517 249.201 226.345 245.823C229.241 249.951 239.172 250.702 241.241 243.196C237.517 244.697 235.035 243.196 234.207 241.319C232.966 238.317 236.69 231.186 233.379 225.557C230.483 221.428 227.586 218.801 220.552 218.051C220.966 217.3 221.379 216.549 221.379 215.424C214.759 217.675 208.966 215.799 206.483 211.295C207.724 211.671 209.793 212.046 211.448 212.046C205.655 207.918 206.069 195.533 210.207 189.152C210.621 188.777 211.035 188.402 211.448 188.402C212.69 190.654 216.414 190.654 218.483 192.53C219.31 191.78 219.724 191.78 220.552 191.029C220.552 191.029 220.552 201.162 221.379 205.29C222.207 209.794 227.172 209.419 229.655 211.295C232.552 208.293 237.931 208.668 237.103 203.414C236.276 198.16 235.448 193.656 235.035 190.278C236.69 193.281 240 204.915 241.241 208.293C243.31 213.172 248.69 211.671 251.586 213.547C253.655 210.169 258.621 209.043 256.552 203.789C256.138 202.288 247.862 186.901 246.621 183.898C249.517 187.651 257.379 201.162 259.862 204.915C262.759 209.043 267.31 206.792 271.035 207.918C271.862 204.915 276.414 201.913 273.103 196.658C268.552 189.903 258.621 178.644 257.793 177.143C259.862 179.019 275.586 196.658 276.828 197.784C280.552 200.787 285.931 198.535 289.241 198.535C289.241 195.157 292.138 191.404 288 187.651C284.276 184.273 275.586 178.644 273.517 176.767C279.31 180.52 286.345 186.15 290.483 187.276C297.931 188.777 300.414 186.525 302.897 185.399C300.828 179.395 303.724 176.767 288.414 170.763C301.655 174.891 307.448 173.014 312.414 169.637C310.759 165.508 305.793 161.755 302.069 160.629C310.345 160.629 315.724 157.627 319.035 153.123C316.138 149.37 309.931 146.743 303.31 146.368C314.069 145.617 321.931 139.988 323.172 133.608ZM15.7241 177.518C14.069 177.518 14.069 176.392 14.4828 175.642C14.8966 175.642 15.3103 175.642 15.7241 175.266L15.3103 175.642C15.7241 176.392 15.7241 176.767 15.7241 177.518ZM19.4483 184.649L17.7931 183.523C18.6207 182.772 19.4483 182.772 19.8621 183.148C19.8621 183.898 19.8621 184.273 19.4483 184.649ZM24.8276 174.14C24.4138 174.14 24.4138 174.14 24 174.14C24.4138 173.765 24.8276 173.765 24.8276 174.14C25.2414 174.14 25.2414 173.765 24.8276 174.14ZM130.345 297.239C125.793 297.239 122.483 294.612 124.966 290.859C126.207 292.361 128.69 293.111 130.759 293.486C130.345 294.988 130.345 295.738 130.345 297.239ZM199.448 290.859C201.931 294.612 198.621 297.239 194.069 297.239C194.069 295.738 194.069 295.363 193.655 293.486C195.724 293.111 198.207 292.736 199.448 290.859ZM129.931 67.9297C140.276 66.0532 151.034 60.4237 155.586 56.2954C159.724 56.6707 164.69 56.6707 168.414 56.2954C172.966 60.799 183.724 66.0532 194.069 67.9297C187.862 67.9297 177.517 67.5544 176.276 66.0532C176.69 69.4309 184.552 73.5593 189.931 74.3099C185.379 74.6852 181.655 74.3099 177.931 72.8087C180 75.4358 182.069 76.937 185.379 78.0629C181.655 82.1912 174.207 84.8183 166.345 84.0677C168 85.9442 171.724 87.4455 174.621 87.0702C168 96.828 162.621 106.961 161.793 118.596C160.552 106.961 155.586 96.828 148.966 87.0702C151.862 87.4455 155.172 86.3195 157.241 84.0677C149.793 84.8183 142.345 82.1912 138.621 78.0629C142.345 76.937 144.414 75.0605 146.069 72.8087C142.759 74.3099 138.621 74.6852 134.069 74.3099C139.448 73.184 147.724 69.4309 147.724 66.0532C146.483 67.5544 136.138 67.9297 129.931 67.9297ZM34.7586 171.513C33.931 171.889 32.6897 172.264 31.8621 172.639C31.8621 172.639 31.8621 172.639 31.8621 172.264C32.6897 172.264 33.931 171.889 34.7586 171.513ZM101.793 215.799C101.793 216.925 102.207 217.675 102.621 218.426C95.5862 219.552 92.2759 221.804 89.7931 225.932C86.069 231.562 89.7931 238.692 88.9655 241.695C88.1379 243.571 85.6552 245.448 81.931 243.571C83.5862 251.077 93.931 250.327 96.8276 246.198C97.6552 249.576 96.8276 253.704 95.1724 255.206C98.4828 255.206 100.966 254.08 102.621 251.828C103.035 252.579 103.034 253.329 103.034 254.08C104.69 253.329 105.931 252.203 106.759 251.453C107.172 252.203 107.586 254.08 106.759 255.956C105.517 256.707 103.862 257.457 101.379 258.583C97.6552 260.085 90.6207 262.712 86.4828 263.087C83.1724 263.462 77.3793 261.961 76.1379 257.833C74.8966 253.704 71.1724 252.579 68.2759 255.206C67.4483 254.83 65.3793 254.455 64.5517 255.581C64.5517 255.581 63.7241 253.704 62.4828 252.954C63.3104 251.077 62.4828 248.45 60.8276 247.7C60.8276 243.571 57.931 243.571 57.1035 242.445C56.6897 241.695 56.6897 240.569 57.931 240.569C57.5172 239.818 56.2759 239.818 56.2759 239.818C56.6897 238.317 56.2759 236.065 53.3793 235.315L31.4483 194.031C32.6897 192.53 32.2759 190.654 30.6207 189.903C30.6207 189.903 30.6207 189.903 30.6207 189.528C30.6207 189.152 30.6207 188.777 30.6207 188.777C31.0345 188.777 31.8621 188.402 32.6897 188.402C37.2414 187.651 43.8621 181.646 49.6552 177.893C47.5862 179.77 38.8966 185.399 35.1724 188.777C31.4483 192.155 33.1035 195.157 33.5172 198.16L34.3448 199.661C37.6552 199.661 42.2069 201.537 45.931 198.91C47.1724 197.784 62.8966 180.145 64.9655 178.269C64.1379 179.77 54.2069 191.404 49.6552 197.784C46.3448 202.663 51.3103 206.041 51.7241 209.043C55.4483 207.918 60.4138 209.794 62.8966 206.041C65.3793 202.288 73.2414 188.777 76.1379 185.024C74.8966 188.027 67.0345 203.414 66.2069 204.915C64.1379 210.169 69.1035 211.295 71.1724 214.673C74.069 212.796 79.4483 214.298 81.5173 209.419C82.7586 206.041 86.069 194.407 87.7241 191.404C87.7241 194.782 86.4828 199.661 85.6552 204.54C84.8276 209.794 90.2069 209.419 93.1035 212.421C96 210.545 100.552 210.92 101.379 206.416C102.207 202.288 102.207 192.155 102.207 192.155C103.034 192.905 103.448 192.905 104.276 193.656C105.931 191.78 110.069 191.78 111.31 189.528C111.724 189.528 112.138 189.903 112.552 190.278C116.69 196.658 117.103 208.668 111.31 213.172C112.966 213.172 115.034 213.172 116.276 212.421C113.793 216.174 108.414 218.051 101.793 215.799ZM142.759 273.22C139.448 277.348 136.552 280.726 134.483 285.98C130.345 285.605 131.172 281.101 132.414 278.85C135.31 274.346 146.069 268.717 151.448 262.712C148.966 266.84 145.655 269.842 142.759 273.22ZM154.759 281.102C152.69 288.983 151.034 300.617 151.862 305.871C144 302.118 148.552 288.232 151.448 282.227C155.586 273.971 158.483 263.462 159.31 257.082C161.379 261.961 156.414 275.847 154.759 281.102ZM172.552 305.871C173.379 300.617 171.724 288.983 169.655 281.102C168 275.847 162.621 261.961 165.103 256.707C165.931 263.462 168.828 273.595 172.966 281.852C175.862 288.232 180.414 302.494 172.552 305.871ZM191.586 278.85C192.828 281.101 193.655 285.605 189.517 285.98C187.448 280.726 184.552 277.724 181.241 273.22C178.345 269.842 174.621 266.465 172.138 262.712C177.931 268.717 189.103 274.721 191.586 278.85ZM190.759 218.801C180.828 236.44 162.207 251.077 162.207 250.702C161.793 251.077 143.586 236.44 133.655 218.801C123.724 201.162 117.103 173.39 116.69 159.879C116.276 146.743 119.172 140.738 119.172 140.738C119.172 140.738 131.586 139.988 141.931 136.985C150.621 134.358 159.724 127.603 162.207 125.726C164.69 127.603 174.207 134.358 182.483 136.985C192.414 139.988 205.241 140.738 205.241 140.738C205.241 140.738 208.138 146.368 207.724 159.879C207.31 173.39 200.69 201.162 190.759 218.801Z" fill="#F6F9FC"/>
</svg>
