<svg width="40" height="41" viewBox="0 0 40 41" fill="none" xmlns="http://www.w3.org/2000/svg">
<path fill-rule="evenodd" clip-rule="evenodd" d="M34.7689 5.43701H5.23047V30.0139H12.0391V28.7446H6.50049V12.2446H33.5005V28.7446H27.9621V30.0139H34.7689V5.43701ZM9.04071 8.20612H7.77148V9.47535H9.04071V8.20612ZM10.5386 8.20612H11.8078V9.47535H10.5386V8.20612ZM14.5793 8.20612H13.3101V9.47535H14.5793V8.20612Z" fill="#1A1F36"/>
<path fill-rule="evenodd" clip-rule="evenodd" d="M19.1059 23.8986H20.8935V25.2881C21.4641 25.404 21.9952 25.6285 22.4643 25.9392L23.4472 24.9563L24.7112 26.2204L23.7284 27.2032C24.0391 27.6723 24.2636 28.2034 24.3794 28.774H25.7689V30.5617H24.3794C24.2636 31.1322 24.0391 31.6634 23.7284 32.1324L24.7112 33.1152L23.4472 34.3793L22.4644 33.3965C21.9953 33.7072 21.4641 33.9317 20.8935 34.0476V35.4371H19.1059V34.0476C18.5353 33.9318 18.0042 33.7072 17.5351 33.3965L16.5523 34.3793L15.2883 33.1152L16.271 32.1325C15.9603 31.6634 15.7358 31.1323 15.62 30.5617H14.2305V28.774H15.62C15.7358 28.2034 15.9603 27.6723 16.271 27.2032L15.2882 26.2204L16.5523 24.9563L17.5351 25.9391C18.0042 25.6285 18.5353 25.4039 19.1059 25.2881V23.8986ZM20.0001 31.4898C21.0063 31.4898 21.8219 30.6741 21.8219 29.668C21.8219 28.6618 21.0063 27.8461 20.0001 27.8461C18.9939 27.8461 18.1782 28.6618 18.1782 29.668C18.1782 30.6741 18.9939 31.4898 20.0001 31.4898Z" fill="#1A1F36"/>
<path fill-rule="evenodd" clip-rule="evenodd" d="M11.6354 20.5523C13.1329 20.5523 14.3469 19.3383 14.3469 17.8407C14.3469 17.4286 14.255 17.038 14.0905 16.6882L11.9828 18.7959L10.4956 17.3087L11.3931 16.4112L11.9828 17.0009L13.2907 15.693C12.8328 15.3395 12.2586 15.1292 11.6354 15.1292C10.1378 15.1292 8.92383 16.3432 8.92383 17.8407C8.92383 19.3383 10.1378 20.5523 11.6354 20.5523Z" fill="#00A6ED"/>
<path fill-rule="evenodd" clip-rule="evenodd" d="M19.944 20.5523C21.4415 20.5523 22.6555 19.3383 22.6555 17.8407C22.6555 17.4286 22.5636 17.038 22.3991 16.6882L20.2914 18.7959L18.8042 17.3087L19.7017 16.4112L20.2914 17.0009L21.5993 15.693C21.1414 15.3395 20.5672 15.1292 19.944 15.1292C18.4464 15.1292 17.2324 16.3432 17.2324 17.8407C17.2324 19.3383 18.4464 20.5523 19.944 20.5523Z" fill="#00A6ED"/>
<path fill-rule="evenodd" clip-rule="evenodd" d="M28.2506 20.5523C29.7481 20.5523 30.9621 19.3383 30.9621 17.8408C30.9621 17.4287 30.8702 17.038 30.7057 16.6883L28.598 18.7959L27.1108 17.3087L28.0083 16.4112L28.598 17.001L29.906 15.693C29.448 15.3396 28.8739 15.1293 28.2506 15.1293C26.7531 15.1293 25.5391 16.3433 25.5391 17.8408C25.5391 19.3383 26.7531 20.5523 28.2506 20.5523Z" fill="#00A6ED"/>
</svg>
