<svg width="40" height="40" viewBox="0 0 40 40" fill="none" xmlns="http://www.w3.org/2000/svg">
<path fill-rule="evenodd" clip-rule="evenodd" d="M34.7689 5H5.23047V29.5769H12.0391V28.3076H6.50049V11.8076H33.5005V28.3076H27.9621V29.5769H34.7689V5ZM9.04071 7.7691H7.77148V9.03833H9.04071V7.7691ZM10.5386 7.7691H11.8078V9.03833H10.5386V7.7691ZM14.5793 7.7691H13.3101V9.03833H14.5793V7.7691Z" fill="#1A1F36"/>
<path fill-rule="evenodd" clip-rule="evenodd" d="M19.1059 23.4617H20.8935V24.8512C21.4641 24.967 21.9952 25.1915 22.4643 25.5022L23.4472 24.5194L24.7112 25.7834L23.7284 26.7663C24.0391 27.2354 24.2636 27.7665 24.3794 28.3371H25.7689V30.1247H24.3794C24.2636 30.6953 24.0391 31.2264 23.7284 31.6955L24.7112 32.6783L23.4472 33.9424L22.4644 32.9596C21.9953 33.2703 21.4641 33.4948 20.8935 33.6106V35.0001H19.1059V33.6106C18.5353 33.4948 18.0042 33.2703 17.5351 32.9596L16.5523 33.9424L15.2883 32.6783L16.271 31.6955C15.9603 31.2264 15.7358 30.6953 15.62 30.1247H14.2305V28.3371H15.62C15.7358 27.7664 15.9603 27.2353 16.271 26.7662L15.2882 25.7834L16.5523 24.5194L17.5351 25.5022C18.0042 25.1915 18.5353 24.967 19.1059 24.8512V23.4617ZM20.0001 31.0529C21.0063 31.0529 21.8219 30.2372 21.8219 29.231C21.8219 28.2248 21.0063 27.4091 20.0001 27.4091C18.9939 27.4091 18.1782 28.2248 18.1782 29.231C18.1782 30.2372 18.9939 31.0529 20.0001 31.0529Z" fill="#1A1F36"/>
<path fill-rule="evenodd" clip-rule="evenodd" d="M11.6354 20.1152C13.1329 20.1152 14.3469 18.9012 14.3469 17.4037C14.3469 16.9916 14.255 16.6009 14.0905 16.2511L11.9828 18.3588L10.4956 16.8716L11.3931 15.9741L11.9828 16.5639L13.2907 15.2559C12.8328 14.9024 12.2586 14.6921 11.6354 14.6921C10.1378 14.6921 8.92383 15.9061 8.92383 17.4037C8.92383 18.9012 10.1378 20.1152 11.6354 20.1152Z" fill="#00A6ED"/>
<path fill-rule="evenodd" clip-rule="evenodd" d="M19.944 20.1152C21.4415 20.1152 22.6555 18.9012 22.6555 17.4037C22.6555 16.9916 22.5636 16.6009 22.3991 16.2511L20.2914 18.3588L18.8042 16.8716L19.7017 15.9741L20.2914 16.5639L21.5993 15.2559C21.1414 14.9024 20.5672 14.6921 19.944 14.6921C18.4464 14.6921 17.2324 15.9061 17.2324 17.4037C17.2324 18.9012 18.4464 20.1152 19.944 20.1152Z" fill="#00A6ED"/>
<path fill-rule="evenodd" clip-rule="evenodd" d="M28.2506 20.1152C29.7481 20.1152 30.9621 18.9012 30.9621 17.4037C30.9621 16.9916 30.8702 16.6009 30.7057 16.2511L28.598 18.3588L27.1108 16.8716L28.0083 15.9741L28.598 16.5638L29.906 15.2559C29.448 14.9024 28.8739 14.6921 28.2506 14.6921C26.7531 14.6921 25.5391 15.9061 25.5391 17.4037C25.5391 18.9012 26.7531 20.1152 28.2506 20.1152Z" fill="#00A6ED"/>
</svg>
