<svg width="240" height="60" viewBox="0 0 240 60" fill="none" xmlns="http://www.w3.org/2000/svg">
<path d="M100.02 37.5677H106.654V39.7347H103.498V54.9605H100.02V37.5677ZM110.587 48.4311L111.183 39.7347H111.383L111.979 48.4311H110.587ZM106.735 54.9605H110.141L110.463 50.3414H112.103L112.426 54.9605H115.83L114.016 37.5677H108.549L106.735 54.9605ZM120.811 48.8731V52.1519C120.811 52.5939 121.153 52.7222 121.353 52.7222C121.681 52.7222 121.909 52.4514 121.909 52.1519V48.1034C121.909 47.5615 121.809 46.9628 120.512 46.9628H119.1V45.0525H120.569C121.552 45.0525 121.909 44.8244 121.909 43.7551V40.3049C121.909 40.0055 121.681 39.7347 121.353 39.7347C121.153 39.7347 120.811 39.8487 120.811 40.3049V43.1419H117.331V40.6757C117.331 39.4638 117.474 37.5677 119.912 37.5677H122.793C125.231 37.5677 125.388 39.4638 125.388 40.6757V43.4555C125.388 45.3517 124.062 45.8649 123.021 45.8221V45.9932C125.36 45.9362 125.388 47.7324 125.388 48.3455V51.8526C125.388 53.0786 125.231 54.9605 122.793 54.9605H119.912C117.474 54.9605 117.331 53.0785 117.331 51.8525V48.8731H120.811ZM127.67 37.5677H135.727V54.9605H132.247V39.7347H131.149V54.9605H127.67V37.5677ZM141.488 47.1338V39.7348H141.944C142.315 39.7348 142.585 40.0482 142.585 40.6044V46.2641C142.585 46.8202 142.315 47.1336 141.944 47.1336L141.488 47.1338ZM138.008 54.9605H141.488V49.0441H143.484C145.908 49.0441 146.065 47.1622 146.065 45.9361V40.6757C146.065 39.4638 145.908 37.5677 143.484 37.5677H138.008V54.9605ZM152.924 52.1519C152.924 52.4514 152.696 52.7222 152.368 52.7222C152.168 52.7222 151.826 52.5939 151.826 52.1519V40.3049C151.826 39.8487 152.168 39.7347 152.368 39.7347C152.696 39.7347 152.924 40.0055 152.924 40.3049V52.1519ZM148.346 51.8526C148.346 53.0786 148.503 54.9605 150.927 54.9605H153.822C156.246 54.9605 156.403 53.0785 156.403 51.8525V40.6757C156.403 39.4638 156.246 37.5677 153.822 37.5677H150.927C148.503 37.5677 148.346 39.4638 148.346 40.6757V51.8526ZM167.725 37.5677H172.26V54.9605H168.781V44.0544H168.652L166.855 54.9605H164.075L162.292 44.0544H162.164V54.9605H158.685V37.5677H163.205L165.472 49.7996L167.725 37.5677ZM95.5114 14.0671C94.4463 9.40529 91.7768 5.61315 91.4089 5C90.8271 5.86957 88.6982 9.22 87.6159 12.9266C86.4337 17.0751 86.2598 20.7533 86.6677 24.3601C87.0727 27.9813 88.6026 31.7023 88.6026 31.7023C89.4155 33.6411 90.6332 35.7367 91.4261 36.7633C92.5882 35.2521 95.2591 30.747 96.0918 24.8734C96.5553 21.5944 96.5753 18.729 95.5114 14.0671ZM91.4089 35.5943C90.8857 34.6105 90.0727 32.7428 89.9958 29.8345C89.9758 27.0404 91.098 24.631 91.4261 24.1321C91.7184 24.6311 92.6851 26.7267 92.8007 29.5923C92.8791 32.3865 91.9494 34.5961 91.4089 35.5943ZM95.2021 21.9793C95.1621 23.7614 94.9496 25.6433 94.6787 26.7696C94.7756 24.8307 94.5433 22.1077 94.0983 19.9693C93.6534 17.845 92.3942 14.281 91.3891 12.6414C90.4608 14.2097 89.317 17.289 88.7182 19.955C88.1164 22.6208 88.0993 25.8571 88.0993 26.8265C87.9395 26.0138 87.5403 23.0914 87.6529 20.1688C87.7471 17.7596 88.3117 15.2647 88.6212 14.1241C89.8018 10.3177 91.138 7.87986 91.3889 7.49485C91.64 7.87986 93.3225 10.888 94.1952 14.0386C95.0638 17.1893 95.2391 20.2114 95.2021 21.9793Z" fill="#0079C2"/>
<path d="M93.2193 37.6215H85.1213V43.0532C85.1285 43.0532 85.1342 43.0389 85.1413 43.0389C87.0492 41.1286 90.1437 41.1286 92.053 43.0389C93.961 44.935 93.961 48.0286 92.053 49.939C92.0444 49.9532 92.0358 49.9532 92.0273 49.9675C92.0173 49.9675 92.0074 49.9817 91.9988 49.996C90.0951 51.8779 87.6083 52.8187 85.1213 52.8187C82.6231 52.8187 80.1247 51.8779 78.2197 49.9675C74.86 46.6172 74.4622 41.4136 77.0232 37.6215C77.3748 37.0998 77.7755 36.6128 78.2197 36.1673C80.1247 34.257 82.6231 33.316 85.1213 33.316V20.2572C75.5217 20.2572 67.7402 28.0269 67.7402 37.6215C67.7402 47.216 75.5217 55 85.1213 55C90.1264 55 94.6354 52.8757 97.8067 49.497V37.6215H93.2193Z" fill="#0079C2"/>
</svg>
