<svg width="98" height="47" viewBox="0 0 98 47" fill="none" xmlns="http://www.w3.org/2000/svg">
<path d="M30.6336 14.586H36.7739V16.5918H33.853V30.6854H30.6336V14.586ZM40.4143 24.6415L40.966 16.5918H41.1508L41.7025 24.6415H40.4143ZM36.8491 30.6854H40.0012L40.2993 26.4097H41.8173L42.1169 30.6854H45.2675L43.5887 14.586H38.528L36.8491 30.6854ZM49.8781 25.0507V28.0857C49.8781 28.4948 50.1949 28.6135 50.3797 28.6135C50.6832 28.6135 50.8944 28.3628 50.8944 28.0857V24.3382C50.8944 23.8366 50.802 23.2824 49.6009 23.2824H48.2941V21.5142H49.6537C50.5644 21.5142 50.8944 21.3031 50.8944 20.3133V17.1197C50.8944 16.8426 50.6832 16.5918 50.3795 16.5918C50.1949 16.5918 49.8781 16.6974 49.8781 17.1197V19.7457H46.6574V17.4629C46.6574 16.3411 46.7894 14.586 49.0463 14.586H51.7126C53.9697 14.586 54.1149 16.3411 54.1149 17.4629V20.036C54.1149 21.7911 52.8874 22.2662 51.9238 22.2266V22.385C54.0885 22.3322 54.1149 23.9948 54.1149 24.5623V27.8086C54.1149 28.9435 53.9697 30.6854 51.7126 30.6854H49.0463C46.7894 30.6854 46.6574 28.9433 46.6574 27.8085V25.0507H49.8781ZM56.2269 14.586H63.6845V30.6854H60.4638V16.5918H59.4475V30.6854H56.2269V14.586ZM69.0169 23.4407V16.592H69.4394C69.7825 16.592 70.0332 16.8821 70.0332 17.3969V22.6357C70.0332 23.1505 69.7825 23.4406 69.4392 23.4406L69.0169 23.4407ZM65.7963 30.6854H69.0169V25.2089H70.8646C73.1086 25.2089 73.2539 23.467 73.2539 22.3321V17.4629C73.2539 16.3411 73.1086 14.586 70.8648 14.586H65.7963V30.6854ZM79.6026 28.0857C79.6026 28.3628 79.3914 28.6135 79.0879 28.6135C78.903 28.6135 78.5863 28.4948 78.5863 28.0857V17.1197C78.5863 16.6974 78.9031 16.5918 79.0879 16.5918C79.3914 16.5918 79.6026 16.8426 79.6026 17.1197V28.0857ZM75.3657 27.8086C75.3657 28.9435 75.5108 30.6854 77.7548 30.6854H80.4342C82.678 30.6854 82.8233 28.9433 82.8233 27.8085V17.4629C82.8233 16.3411 82.6782 14.586 80.4342 14.586H77.7548C75.5109 14.586 75.3657 16.3411 75.3657 17.4629V27.8086ZM93.3034 14.586H97.5007V30.6854H94.2802V20.5903H94.1613L92.4982 30.6854H89.9243L88.2745 20.5903H88.1557V30.6854H84.9351V14.586H89.1193L91.2179 25.9083L93.3034 14.586ZM26.46 8.64783C25.4741 4.33267 23.0031 0.822557 22.6626 0.255005C22.1241 1.0599 20.1535 4.16117 19.1517 7.59208C18.0574 11.4321 17.8964 14.8367 18.274 18.1753C18.6488 21.5272 20.065 24.9714 20.065 24.9714C20.8175 26.7661 21.9446 28.7058 22.6785 29.6561C23.7542 28.2573 26.2264 24.0872 26.9973 18.6504C27.4262 15.6153 27.4447 12.963 26.46 8.64783ZM22.6626 28.574C22.1783 27.6634 21.4258 25.9346 21.3546 23.2426C21.3361 20.6563 22.3748 18.426 22.6785 17.9643C22.9491 18.4262 23.8439 20.3659 23.9509 23.0184C24.0234 25.6048 23.1629 27.6501 22.6626 28.574ZM26.1737 15.9715C26.1367 17.6211 25.94 19.3631 25.6892 20.4056C25.779 18.6109 25.5639 16.0904 25.152 14.111C24.7402 12.1447 23.5747 8.84578 22.6443 7.32814C21.785 8.7798 20.7263 11.6301 20.172 14.0978C19.6149 16.5654 19.5992 19.561 19.5992 20.4583C19.4512 19.7061 19.0817 17.001 19.1859 14.2958C19.2731 12.0657 19.7957 9.75634 20.0822 8.70059C21.175 5.17725 22.4118 2.92069 22.6441 2.56432C22.8765 2.92069 24.4339 5.70512 25.2417 8.62138C26.0457 11.5378 26.208 14.3352 26.1737 15.9715Z" fill="#0079C2"/>
<path d="M24.3343 30.659H16.8384V35.6867C16.8451 35.6867 16.8504 35.6735 16.8569 35.6735C18.623 33.9053 21.4873 33.9053 23.2546 35.6735C25.0207 37.4286 25.0207 40.2921 23.2546 42.0605C23.2467 42.0736 23.2387 42.0736 23.2309 42.0868C23.2216 42.0868 23.2124 42.1 23.2044 42.1132C21.4424 43.8551 19.1405 44.726 16.8384 44.726C14.526 44.726 12.2135 43.8551 10.4501 42.0868C7.34031 38.9857 6.97204 34.1691 9.34263 30.659C9.66808 30.1761 10.0389 29.7253 10.4501 29.313C12.2135 27.5448 14.526 26.6737 16.8384 26.6737V14.5861C7.9528 14.5861 0.75 21.7779 0.75 30.659C0.75 39.54 7.9528 46.7451 16.8384 46.7451C21.4714 46.7451 25.645 44.7788 28.5804 41.6513V30.659H24.3343ZM97.5 35.3889H30.633V46.7451H97.5V35.3889ZM91.7179 43.3167H92.5664V41.6026H91.7179V43.3167ZM91.7179 40.317H93.0016L93.8612 40.7456L94.0731 41.1741L94.2853 42.0312V42.4597C94.263 45.5298 92.2873 44.4059 90.211 44.6024V37.5316H91.7179V40.317ZM80.5668 37.5316V38.8171H79.4951V44.6024H77.7872V38.8171H76.7158V37.5316H80.5668ZM64.9282 42.674H65.1403L65.5645 42.4597V39.4599H64.9282V42.674ZM63.2093 39.4601H62.5618V42.4597L62.997 42.674H63.2093V39.4601ZM64.9282 37.5316V38.1744H65.9999L66.6361 38.6028L67.0714 39.0315L67.2835 39.8885V42.2455L67.0715 43.1026L66.6361 43.5311L65.9999 43.9595H64.9282V44.6023H63.2093V43.9595H62.1376L61.4903 43.5311L61.0661 43.1026L60.854 42.2455V39.8885L61.066 39.0315L61.4903 38.6028L62.1376 38.1744H63.2093V37.5316H64.9282ZM50.9932 37.5316V38.8171H49.7073V40.317H50.9932V41.6026H49.7073V43.3167H51.2075V44.6023H47.9928V37.5316H50.9932ZM35.5623 40.317H36.4196V37.5316H37.9198V44.6024H36.4196V41.6026H35.5623V44.6024H33.8478V37.5316H35.5623V40.317Z" fill="#0079C2"/>
</svg>
