<svg width="40" height="40" viewBox="0 0 40 40" fill="none" xmlns="http://www.w3.org/2000/svg">
<path fill-rule="evenodd" clip-rule="evenodd" d="M5 7.51953H35V32.4805H5V7.51953ZM6.28906 14.4334H33.7109V31.1912H6.28906V14.4334ZM8.86719 10.332H7.57812V11.6211H8.86719V10.332ZM10.3892 10.332H11.6782V11.6211H10.3892V10.332ZM14.4937 10.332H13.2046V11.6211H14.4937V10.332Z" fill="#1A1F36"/>
<path d="M29.1864 22.4509C28.789 22.7671 28.3049 22.9814 27.7748 23.0534V24.2709C28.6424 24.1889 29.4311 23.8405 30.0562 23.3096L29.1864 22.4509Z" fill="#7B3BE3"/>
<path d="M30.5595 22.8003C31.1388 22.1013 31.4863 21.2078 31.4863 20.2341C31.4863 19.2461 31.1284 18.3405 30.5336 17.637L29.6622 18.4972C30.0378 18.9778 30.2612 19.5802 30.2612 20.2341C30.2612 20.8736 30.0476 21.4637 29.687 21.9389L30.5595 22.8003Z" fill="#7B3BE3"/>
<path d="M29.1544 17.9923L30.0253 17.1326C29.4052 16.6163 28.6281 16.278 27.7748 16.1973V17.4149C28.2908 17.485 28.7632 17.6898 29.1544 17.9923Z" fill="#7B3BE3"/>
<path d="M27.0542 17.406V16.1912C25.0681 16.3443 23.4787 17.8918 23.2895 19.8428H24.5228C24.7014 18.5605 25.7453 17.5507 27.0542 17.406Z" fill="#7B3BE3"/>
<path d="M27.0542 23.0622C25.7212 22.9149 24.663 21.8702 24.5138 20.5543H23.2832C23.4402 22.5387 25.044 24.1221 27.0542 24.2771V23.0622Z" fill="#7B3BE3"/>
<path d="M29.5044 20.2341C29.5044 21.3933 28.5526 22.333 27.3784 22.333C26.2042 22.333 25.2524 21.3933 25.2524 20.2341C25.2524 19.075 26.2042 18.1353 27.3784 18.1353C28.5526 18.1353 29.5044 19.075 29.5044 20.2341Z" fill="#7B3BE3"/>
<path d="M20.002 22.0595L17.5292 19.6473L15.9384 21.1991L12.6732 18.014L11.1662 19.484L8.9924 17.3635L8.40039 17.941L11.1662 20.639L12.6732 19.1689L15.9384 22.354L17.5292 20.8023L19.4099 22.637L20.002 22.0595Z" fill="#7B3BE3"/>
<path d="M23.2832 25.5667H31.4863V26.3137H23.2832V25.5667Z" fill="#090C17"/>
<path d="M31.4863 27.1853H23.2832V27.9324H31.4863V27.1853Z" fill="#090C17"/>
<path d="M24.7747 28.804H23.2832V29.551H24.7747V28.804Z" fill="#090C17"/>
<path d="M28.1305 28.804H26.639V29.551H28.1305V28.804Z" fill="#090C17"/>
<path d="M31.4863 28.804H29.9948V29.551H31.4863V28.804Z" fill="#090C17"/>
<path d="M11.8914 29.5508V22.7539H10.7747V29.5508H11.8914Z" fill="#090C17"/>
<path d="M8.74805 29.5508H9.86477V26.339H8.74805V29.5508Z" fill="#090C17"/>
<path d="M15.9447 29.5508V25.6277H14.828V29.5508H15.9447Z" fill="#090C17"/>
<path d="M12.8014 29.5508H13.9181V26.339H12.8014V29.5508Z" fill="#090C17"/>
<path d="M19.998 29.5508V24.5068H18.8813V29.5508H19.998Z" fill="#090C17"/>
<path d="M16.8547 29.5508H17.9714V26.339H16.8547V29.5508Z" fill="#090C17"/>
</svg>
