<svg width="40" height="40" viewBox="0 0 40 40" fill="none" xmlns="http://www.w3.org/2000/svg">
<rect x="9.72852" y="12.8211" width="20.5447" height="2.56809" fill="#00A6ED"/>
<path fill-rule="evenodd" clip-rule="evenodd" d="M20.7008 29.8584V28.1128H28.5218V29.8261C27.3816 30.1126 26.5373 31.1445 26.5373 32.3735C26.5373 33.8241 27.7132 35 29.1638 35C30.6143 35 31.7902 33.8241 31.7902 32.3735C31.7902 31.1868 31.0032 30.1839 29.9225 29.8584V26.7121H20.7008V24.4942H19.3V26.7121H10.0782V29.8261C8.93798 30.1126 8.09375 31.1445 8.09375 32.3735C8.09375 33.8241 9.26966 35 10.7202 35C12.1708 35 13.3467 33.8241 13.3467 32.3735C13.3467 31.1868 12.5596 30.1839 11.479 29.8584V28.1128H19.3V29.8261C18.1598 30.1126 17.3155 31.1445 17.3155 32.3735C17.3155 33.8241 18.4914 35 19.942 35C21.3926 35 22.5685 33.8241 22.5685 32.3735C22.5685 31.1868 21.7814 30.1839 20.7008 29.8584ZM12.0626 32.3735C12.0626 33.1149 11.4616 33.716 10.7202 33.716C9.97882 33.716 9.3778 33.1149 9.3778 32.3735C9.3778 31.6322 9.97882 31.0311 10.7202 31.0311C11.4616 31.0311 12.0626 31.6322 12.0626 32.3735ZM21.2844 32.3735C21.2844 33.1149 20.6834 33.716 19.942 33.716C19.2006 33.716 18.5996 33.1149 18.5996 32.3735C18.5996 31.6322 19.2006 31.0311 19.942 31.0311C20.6834 31.0311 21.2844 31.6322 21.2844 32.3735ZM29.1638 33.716C29.9052 33.716 30.5062 33.1149 30.5062 32.3735C30.5062 31.6322 29.9052 31.0311 29.1638 31.0311C28.4224 31.0311 27.8214 31.6322 27.8214 32.3735C27.8214 33.1149 28.4224 33.716 29.1638 33.716Z" fill="#00A6ED"/>
<path fill-rule="evenodd" clip-rule="evenodd" d="M7.16016 5H32.8411V11.4202H7.16016V5ZM10.0796 7.68476H11.8306V8.96881H10.0796V7.68476ZM15.4473 7.68476H13.6963V8.96881H15.4473V7.68476ZM17.3159 7.68476H19.0669V8.96881H17.3159V7.68476ZM22.6851 7.68476H20.9341V8.96881H22.6851V7.68476ZM24.5522 7.68476H26.3032V8.96881H24.5522V7.68476ZM29.9228 7.68476H28.1719V8.96881H29.9228V7.68476Z" fill="#1A1F36"/>
<path fill-rule="evenodd" clip-rule="evenodd" d="M7.16016 16.7899H32.8411V23.2102H7.16016V16.7899ZM10.0796 19.3579H11.8306V20.6419H10.0796V19.3579ZM15.4473 19.3579H13.6963V20.6419H15.4473V19.3579ZM17.3159 19.3579H19.0669V20.6419H17.3159V19.3579ZM22.6851 19.3579H20.9341V20.6419H22.6851V19.3579ZM24.5522 19.3579H26.3032V20.6419H24.5522V19.3579ZM29.9228 19.3579H28.1719V20.6419H29.9228V19.3579Z" fill="#1A1F36"/>
</svg>
