<svg width="31" height="30" viewBox="0 0 31 30" fill="none" xmlns="http://www.w3.org/2000/svg">
<circle cx="15.8516" cy="15" r="14.5" stroke="#373868"/>
<path d="M8.36133 15.0258C8.36133 13.0469 8.36133 11.0613 8.36133 9.08242C8.36133 7.87383 9.02539 7.20312 10.2207 7.20312C13.9926 7.20312 17.7711 7.20312 21.543 7.20312C22.6254 7.20312 23.3293 7.90039 23.3293 8.98945C23.3293 13.0203 23.3359 17.0445 23.3293 21.0754C23.3293 22.1578 22.6187 22.8551 21.5363 22.8551C17.7379 22.8551 13.9461 22.8551 10.1477 22.8551C9.06524 22.8551 8.36133 22.1578 8.36133 21.0687C8.36133 19.05 8.36133 17.0379 8.36133 15.0258ZM9.99492 13.5715C9.99492 13.7043 9.99492 13.8039 9.99492 13.9035C9.99492 16.0484 9.99492 18.1934 9.99492 20.3449C9.99492 20.9691 10.1809 21.1551 10.8051 21.1551C14.1652 21.1551 17.532 21.1551 20.8922 21.1551C21.5164 21.1551 21.7023 20.9691 21.7023 20.3449C21.7023 18.2 21.7023 16.0551 21.7023 13.9035C21.7023 13.7973 21.6891 13.691 21.6891 13.5781C21.2109 13.5781 20.766 13.5781 20.3211 13.5781C20.8059 15.7762 20.3211 17.6621 18.4816 19.0234C17.0074 20.1059 15.3605 20.2453 13.7602 19.3488C11.4891 18.0805 10.8781 16.0352 11.3762 13.5715C10.918 13.5715 10.4797 13.5715 9.99492 13.5715ZM12.8172 15.0059C12.7773 16.7059 14.1387 18.1668 15.7988 18.2C17.4523 18.2398 18.8535 16.8187 18.8801 15.0656C18.9133 13.3523 17.5586 11.8914 15.9117 11.8516C14.2383 11.8184 12.857 13.2195 12.8172 15.0059ZM21.7023 9.85938C21.7023 9.61367 21.709 9.37461 21.7023 9.12891C21.6891 8.72383 21.4699 8.49141 21.0648 8.47812C20.6266 8.46484 20.1816 8.46484 19.7434 8.47812C19.3184 8.49141 19.0992 8.71719 19.0926 9.14883C19.0859 9.62031 19.0859 10.0984 19.0926 10.5699C19.0992 10.9816 19.3184 11.2074 19.7301 11.2207C20.1816 11.234 20.6332 11.234 21.0848 11.2207C21.4699 11.2074 21.6891 10.9684 21.7023 10.5832C21.709 10.3441 21.7023 10.0984 21.7023 9.85938Z" fill="#373868"/>
</svg>
