<svg width="80" height="16" viewBox="0 0 80 16" fill="none" xmlns="http://www.w3.org/2000/svg">
<path d="M42.0516 1.23077V14.7692C42.0516 15.449 41.5074 16 40.8362 16C40.165 16 39.6208 15.449 39.6208 14.7692V1.23077C39.6208 0.551034 40.165 0 40.8362 0C41.5074 0 42.0516 0.551034 42.0516 1.23077Z" fill="#1A1F36"/>
<path d="M75.1708 16C77.688 16 79.7285 13.9336 79.7285 11.3846C79.7285 8.83561 77.688 6.76923 75.1708 6.76923H72.1324C70.9577 6.76923 70.0054 5.80492 70.0054 4.61538C70.0054 3.42585 70.9577 2.46154 72.1324 2.46154H77.2372C77.9084 2.46154 78.4526 1.9105 78.4526 1.23077C78.4526 0.551034 77.9084 0 77.2372 0H72.1324C69.6152 0 67.5747 2.06638 67.5747 4.61538C67.5747 7.16439 69.6152 9.23077 72.1324 9.23077H75.1708C76.3455 9.23077 77.2977 10.1951 77.2977 11.3846C77.2977 12.5742 76.3455 13.5385 75.1708 13.5385H70.0054C69.3342 13.5385 68.7901 14.0895 68.7901 14.7692C68.7901 15.449 69.3342 16 70.0054 16H75.1708Z" fill="#1A1F36"/>
<path fill-rule="evenodd" clip-rule="evenodd" d="M61.4977 9.84615C61.4977 13.2448 58.777 16 55.4208 16C52.0646 16 49.3439 13.2448 49.3439 9.84615V6.15385C49.3439 2.75517 52.0646 0 55.4208 0C58.777 0 61.4977 2.75517 61.4977 6.15385V9.84615ZM59.067 9.84615C59.067 11.8854 57.4345 13.5385 55.4208 13.5385C53.4071 13.5385 51.7747 11.8854 51.7747 9.84615V6.15385C51.7747 4.11464 53.4071 2.46154 55.4208 2.46154C57.4345 2.46154 59.067 4.11464 59.067 6.15385V9.84615Z" fill="#1A1F36"/>
<path d="M6.80544 16C10.1616 16 12.8824 13.2448 12.8824 9.84615V1.23077C12.8824 0.551034 12.3382 0 11.667 0C10.9957 0 10.4516 0.551034 10.4516 1.23077V9.84615C10.4516 11.8854 8.81915 13.5385 6.80544 13.5385C4.79172 13.5385 3.15928 11.8854 3.15928 9.84615V1.23077C3.15928 0.551034 2.61514 0 1.9439 0C1.27266 0 0.728516 0.551034 0.728516 1.23077V9.84615C0.728516 13.2448 3.44925 16 6.80544 16Z" fill="#1A1F36"/>
<path d="M26.2516 0C29.6078 0 32.3285 2.75517 32.3285 6.15385V14.7692C32.3285 15.449 31.7844 16 31.1131 16C30.4419 16 29.8977 15.449 29.8977 14.7692V6.15385C29.8977 4.11464 28.2653 2.46154 26.2516 2.46154C24.2379 2.46154 22.6054 4.11464 22.6054 6.15385V14.7692C22.6054 15.449 22.0613 16 21.3901 16C20.7188 16 20.1747 15.449 20.1747 14.7692V6.15385C20.1747 2.75517 22.8954 0 26.2516 0Z" fill="#1A1F36"/>
</svg>
