<svg width="100" height="21" viewBox="0 0 100 21" fill="none" xmlns="http://www.w3.org/2000/svg">
<path d="M52.3077 1.55575V18.669C52.3077 19.5282 51.6189 20.2247 50.7692 20.2247C49.9196 20.2247 49.2308 19.5282 49.2308 18.669V1.55575C49.2308 0.696532 49.9196 0 50.7692 0C51.6189 0 52.3077 0.696532 52.3077 1.55575Z" fill="#373868"/>
<path d="M94.2308 20.2247C97.417 20.2247 100 17.6127 100 14.3907C100 11.1686 97.417 8.55661 94.2308 8.55661H90.3846C88.8977 8.55661 87.6923 7.33768 87.6923 5.83405C87.6923 4.33043 88.8977 3.1115 90.3846 3.1115H96.8464C97.6961 3.1115 98.3849 2.41496 98.3849 1.55575C98.3849 0.696532 97.6961 0 96.8464 0H90.3846C87.1984 0 84.6154 2.612 84.6154 5.83405C84.6154 9.05611 87.1984 11.6681 90.3846 11.6681H94.2308C95.7177 11.6681 96.9231 12.887 96.9231 14.3907C96.9231 15.8943 95.7177 17.1132 94.2308 17.1132H87.6923C86.8426 17.1132 86.1538 17.8098 86.1538 18.669C86.1538 19.5282 86.8426 20.2247 87.6923 20.2247H94.2308Z" fill="#373868"/>
<path fill-rule="evenodd" clip-rule="evenodd" d="M76.9231 12.446C76.9231 16.7421 73.4791 20.2247 69.2308 20.2247C64.9824 20.2247 61.5385 16.7421 61.5385 12.446V7.77874C61.5385 3.48266 64.9824 0 69.2308 0C73.4791 0 76.9231 3.48266 76.9231 7.77874V12.446ZM73.8462 12.446C73.8462 15.0236 71.7798 17.1132 69.2308 17.1132C66.6818 17.1132 64.6154 15.0236 64.6154 12.446V7.77874C64.6154 5.20109 66.6818 3.1115 69.2308 3.1115C71.7798 3.1115 73.8462 5.20109 73.8462 7.77874V12.446Z" fill="#373868"/>
<path d="M7.69231 20.2247C11.9407 20.2247 15.3846 16.7421 15.3846 12.446V1.55575C15.3846 0.696532 14.6958 0 13.8462 0C12.9965 0 12.3077 0.696532 12.3077 1.55575V12.446C12.3077 15.0236 10.2413 17.1132 7.69231 17.1132C5.1433 17.1132 3.07692 15.0236 3.07692 12.446V1.55575C3.07692 0.696532 2.38813 0 1.53846 0C0.688793 0 0 0.696532 0 1.55575V12.446C0 16.7421 3.44396 20.2247 7.69231 20.2247Z" fill="#373868"/>
<path d="M32.3077 0C36.556 0 40 3.48266 40 7.77874V18.669C40 19.5282 39.3112 20.2247 38.4615 20.2247C37.6119 20.2247 36.9231 19.5282 36.9231 18.669V7.77874C36.9231 5.20109 34.8567 3.1115 32.3077 3.1115C29.7587 3.1115 27.6923 5.20109 27.6923 7.77874V18.669C27.6923 19.5282 27.0035 20.2247 26.1538 20.2247C25.3042 20.2247 24.6154 19.5282 24.6154 18.669V7.77874C24.6154 3.48266 28.0593 0 32.3077 0Z" fill="#373868"/>
</svg>
