<svg width="80" height="20" viewBox="0 0 80 20" fill="none" xmlns="http://www.w3.org/2000/svg">
<path d="M0 0.90909H3.73821V12.8831C3.73821 13.9221 4.00834 14.7619 4.54859 15.4026C5.10627 16.026 5.92537 16.3377 7.00587 16.3377C8.08638 16.3377 8.89676 16.026 9.43702 15.4026C9.9947 14.7619 10.2735 13.9221 10.2735 12.8831V0.90909H14.0117V13.1169C14.0117 14.1905 13.8375 15.1342 13.4889 15.9481C13.1404 16.7619 12.6437 17.4459 11.9989 18C11.3715 18.5541 10.6308 18.9697 9.77685 19.2468C8.9229 19.5411 7.99924 19.6883 7.00587 19.6883C5.99508 19.6883 5.0627 19.5411 4.20875 19.2468C3.3548 18.9697 2.61413 18.5541 1.98674 18C1.35935 17.4459 0.871378 16.7619 0.522827 15.9481C0.174276 15.1342 0 14.1905 0 13.1169V0.90909Z" fill="#1A1F36"/>
<path d="M30.8404 0.90909H34.4479V20L21.4296 7.81818V19.0909H17.8221V0L30.8404 12.1818V0.90909Z" fill="#1A1F36"/>
<path d="M38.4237 0.90909H42.2141V19.0909H38.4237V0.90909Z" fill="#1A1F36"/>
<path d="M49.0605 10C49.0605 11.1602 49.3045 12.1905 49.7925 13.0909C50.2804 13.9913 50.9514 14.7013 51.8054 15.2208C52.6593 15.7403 53.6527 16 54.7855 16C55.9183 16 56.9116 15.7403 57.7656 15.2208C58.6195 14.7013 59.2818 13.9913 59.7523 13.0909C60.2403 12.1905 60.4843 11.1602 60.4843 10C60.4843 8.83983 60.249 7.80952 59.7785 6.90909C59.3079 6.00866 58.6457 5.2987 57.7917 4.77922C56.9378 4.25974 55.9357 4 54.7855 4C53.6527 4 52.6593 4.25974 51.8054 4.77922C50.9514 5.2987 50.2804 6.00866 49.7925 6.90909C49.3045 7.80952 49.0605 8.83983 49.0605 10ZM45.1132 10C45.1132 8.61472 45.3572 7.35065 45.8451 6.20779C46.3331 5.04762 47.0128 4.04329 47.8842 3.1948C48.7555 2.34632 49.775 1.69697 50.9427 1.24675C52.1278 0.77922 53.4087 0.545454 54.7855 0.545454C56.1797 0.545454 57.4606 0.77922 58.6282 1.24675C59.7959 1.69697 60.8154 2.34632 61.6868 3.1948C62.5756 4.04329 63.2553 5.04762 63.7258 6.20779C64.2138 7.35065 64.4578 8.61472 64.4578 10C64.4578 11.368 64.2138 12.6407 63.7258 13.8182C63.2553 14.9784 62.5843 15.9913 61.7129 16.8571C60.859 17.7229 59.8395 18.3983 58.6544 18.8831C57.4867 19.3506 56.1971 19.5844 54.7855 19.5844C53.3738 19.5844 52.0755 19.3506 50.8904 18.8831C49.7228 18.3983 48.7033 17.7229 47.8319 16.8571C46.9605 15.9913 46.2895 14.9784 45.819 13.8182C45.3484 12.6407 45.1132 11.368 45.1132 10Z" fill="#1A1F36"/>
<path d="M68.9422 12.987C69.3256 13.6623 69.7439 14.2511 70.197 14.7532C70.6675 15.2554 71.1817 15.645 71.7393 15.9221C72.297 16.1991 72.8983 16.3377 73.5431 16.3377C74.2925 16.3377 74.9024 16.1472 75.373 15.7662C75.8435 15.3853 76.0788 14.8658 76.0788 14.2078C76.0788 13.6364 75.9307 13.1775 75.6344 12.8312C75.3556 12.4848 74.9286 12.1818 74.3535 11.9221C73.7958 11.645 73.1074 11.3506 72.2883 11.039C71.8526 10.8831 71.3472 10.6753 70.7721 10.4156C70.2144 10.1385 69.6829 9.79221 69.1775 9.37662C68.6721 8.94372 68.2538 8.42424 67.9227 7.81818C67.5916 7.1948 67.426 6.45022 67.426 5.58441C67.426 4.54545 67.6874 3.65368 68.2103 2.90909C68.7505 2.14719 69.4738 1.5671 70.38 1.16883C71.3036 0.753246 72.3319 0.545454 73.4647 0.545454C74.6323 0.545454 75.6344 0.744588 76.4709 1.14286C77.3249 1.52381 78.0307 2.01732 78.5884 2.62338C79.1635 3.21212 79.6079 3.82684 79.9216 4.46753L76.9937 6.07792C76.7498 5.64502 76.4535 5.25541 76.1049 4.90909C75.7738 4.54545 75.3904 4.25974 74.9547 4.05195C74.519 3.82684 74.0224 3.71429 73.4647 3.71429C72.7327 3.71429 72.1837 3.88745 71.8178 4.23377C71.4518 4.56277 71.2688 4.95238 71.2688 5.4026C71.2688 5.85281 71.4169 6.25108 71.7132 6.5974C72.0095 6.92641 72.4626 7.24675 73.0725 7.55844C73.6825 7.85281 74.4493 8.15584 75.373 8.46753C75.9655 8.67532 76.5319 8.93506 77.0722 9.24675C77.6299 9.55844 78.1265 9.93939 78.5622 10.3896C79.0153 10.8225 79.3639 11.342 79.6079 11.9481C79.8693 12.5368 80 13.2208 80 14C80 14.8831 79.8257 15.671 79.4772 16.3636C79.1286 17.0563 78.6494 17.645 78.0394 18.1299C77.4294 18.5974 76.741 18.9524 75.9742 19.1948C75.2248 19.4545 74.4319 19.5844 73.5954 19.5844C72.48 19.5844 71.4344 19.3766 70.4584 18.961C69.4999 18.5281 68.6634 17.9481 67.9488 17.2208C67.2343 16.4935 66.6766 15.7056 66.2758 14.8571L68.9422 12.987Z" fill="#1A1F36"/>
</svg>