<svg width="100" height="26" viewBox="0 0 100 26" fill="none" xmlns="http://www.w3.org/2000/svg">
<path d="M0 1.42973H4.67276V16.6694C4.67276 17.9917 5.01042 19.0606 5.68574 19.876C6.38284 20.6694 7.40671 21.0661 8.75734 21.0661C10.108 21.0661 11.121 20.6694 11.7963 19.876C12.4934 19.0606 12.8419 17.9917 12.8419 16.6694V1.42973H17.5147V16.9669C17.5147 18.3333 17.2968 19.5344 16.8612 20.5702C16.4255 21.606 15.8046 22.4766 14.9986 23.1818C14.2143 23.887 13.2885 24.416 12.2211 24.7686C11.1536 25.1432 9.99905 25.3306 8.75734 25.3306C7.49385 25.3306 6.32838 25.1432 5.26094 24.7686C4.1935 24.416 3.26767 23.887 2.48343 23.1818C1.69919 22.4766 1.08922 21.606 0.653533 20.5702C0.217844 19.5344 0 18.3333 0 16.9669V1.42973Z" fill="#1A1F36"/>
<path d="M38.5505 1.42973H43.0599V25.7273L26.7869 10.2231V24.5702H22.2776V0.272705L38.5505 15.7768V1.42973Z" fill="#1A1F36"/>
<path d="M48.0296 1.42973H52.7677V24.5702H48.0296V1.42973Z" fill="#1A1F36"/>
<path d="M61.3256 13C61.3256 14.4766 61.6306 15.7879 62.2406 16.9339C62.8506 18.0799 63.6893 18.9834 64.7567 19.6446C65.8241 20.3058 67.0658 20.6363 68.4818 20.6363C69.8978 20.6363 71.1395 20.3058 72.207 19.6446C73.2744 18.9834 74.1022 18.0799 74.6904 16.9339C75.3004 15.7879 75.6053 14.4766 75.6053 13C75.6053 11.5234 75.3113 10.2121 74.7231 9.06609C74.1349 7.92009 73.3071 7.01651 72.2396 6.35535C71.1722 5.69419 69.9196 5.36361 68.4818 5.36361C67.0658 5.36361 65.8241 5.69419 64.7567 6.35535C63.6893 7.01651 62.8506 7.92009 62.2406 9.06609C61.6306 10.2121 61.3256 11.5234 61.3256 13ZM56.3915 13C56.3915 11.2369 56.6965 9.62808 57.3064 8.17353C57.9164 6.69695 58.766 5.41871 59.8552 4.33882C60.9444 3.25893 62.2188 2.43248 63.6784 1.85948C65.1597 1.26444 66.7609 0.966919 68.4818 0.966919C70.2246 0.966919 71.8257 1.26444 73.2853 1.85948C74.7449 2.43248 76.0192 3.25893 77.1085 4.33882C78.2195 5.41871 79.0691 6.69695 79.6572 8.17353C80.2672 9.62808 80.5722 11.2369 80.5722 13C80.5722 14.741 80.2672 16.3609 79.6572 17.8595C79.0691 19.3361 78.2304 20.6253 77.1412 21.7273C76.0737 22.8292 74.7993 23.6887 73.318 24.3058C71.8584 24.9008 70.2464 25.1983 68.4818 25.1983C66.7173 25.1983 65.0944 24.9008 63.613 24.3058C62.1535 23.6887 60.8791 22.8292 59.7898 21.7273C58.7006 20.6253 57.8619 19.3361 57.2737 17.8595C56.6856 16.3609 56.3915 14.741 56.3915 13Z" fill="#1A1F36"/>
<path d="M86.1778 16.8016C86.657 17.6611 87.1799 18.4104 87.7463 19.0496C88.3344 19.6887 88.9771 20.1846 89.6742 20.5372C90.3713 20.8898 91.1228 21.0661 91.9289 21.0661C92.8656 21.0661 93.6281 20.8237 94.2162 20.3388C94.8044 19.854 95.0985 19.1928 95.0985 18.3553C95.0985 17.6281 94.9133 17.0441 94.543 16.6033C94.1944 16.1625 93.6607 15.7768 92.9418 15.4463C92.2447 15.0936 91.3843 14.719 90.3604 14.3223C89.8158 14.1239 89.184 13.8595 88.4651 13.5289C87.768 13.1763 87.1036 12.7355 86.4719 12.2066C85.8401 11.6556 85.3173 10.9945 84.9034 10.2231C84.4895 9.42973 84.2825 8.48207 84.2825 7.38014C84.2825 6.05783 84.6093 4.92284 85.2628 3.97518C85.9381 3.00549 86.8422 2.26719 87.975 1.76031C89.1296 1.23138 90.4148 0.966919 91.8308 0.966919C93.2904 0.966919 94.543 1.22036 95.5886 1.72725C96.6561 2.2121 97.5384 2.8402 98.2355 3.61155C98.9543 4.36086 99.5098 5.14323 99.902 5.95865L96.2422 8.00824C95.9372 7.45728 95.5669 6.96141 95.1312 6.52064C94.7173 6.05783 94.238 5.69419 93.6934 5.42973C93.1488 5.14323 92.5279 4.99998 91.8308 4.99998C90.9159 4.99998 90.2297 5.22036 89.7722 5.66113C89.3147 6.07987 89.086 6.57574 89.086 7.14874C89.086 7.72174 89.2712 8.22863 89.6415 8.6694C90.0118 9.08813 90.5782 9.49584 91.3407 9.89254C92.1031 10.2672 93.0617 10.6529 94.2162 11.0496C94.9569 11.314 95.6649 11.6446 96.3402 12.0413C97.0373 12.438 97.6582 12.9228 98.2028 13.4958C98.7692 14.0468 99.2049 14.708 99.5098 15.4793C99.8366 16.2286 100 17.0991 100 18.0909C100 19.2149 99.7822 20.2176 99.3465 21.0992C98.9108 21.9807 98.3117 22.73 97.5492 23.3471C96.7868 23.9421 95.9263 24.3939 94.9678 24.7025C94.0311 25.033 93.0399 25.1983 91.9942 25.1983C90.6 25.1983 89.2929 24.9339 88.073 24.4049C86.8749 23.854 85.8292 23.1157 84.9361 22.1901C84.0429 21.2644 83.3458 20.2617 82.8447 19.1818L86.1778 16.8016Z" fill="#1A1F36"/>
</svg>
