<svg width="40" height="41" viewBox="0 0 40 41" fill="none" xmlns="http://www.w3.org/2000/svg">
<path fill-rule="evenodd" clip-rule="evenodd" d="M16.1954 11.6063H5.67969V35.4371H34.3214V11.6063H23.763C23.7579 11.6135 23.7528 11.6207 23.7477 11.6279C23.2887 12.3556 22.6698 13.4942 22.1352 14.6105C21.9016 15.0982 21.6976 15.5543 21.533 15.9533H33.0227V34.1815H6.94238V15.9533H18.4316C18.2733 15.5622 18.0779 15.1167 17.8545 14.6419C17.3351 13.5382 16.7345 12.4226 16.2793 11.7215C16.2507 11.6835 16.2228 11.6451 16.1954 11.6063ZM8.14062 13.2888H9.37132V14.5195H8.14062V13.2888ZM12.0549 13.2886H10.8242V14.5193H12.0549V13.2886ZM13.5107 13.2886H14.7414V14.5193H13.5107V13.2886Z" fill="#1A1F36"/>
<path fill-rule="evenodd" clip-rule="evenodd" d="M23.4835 8.94243C23.4835 9.7154 23.2333 10.4299 22.8095 11.0095C21.978 12.3229 20.6996 14.8295 20.1897 16.325C20.1514 16.4373 19.8038 16.4372 19.766 16.3248C19.2671 14.8431 18.027 12.3429 17.1883 11.0653C17.117 10.9717 17.0503 10.8744 16.9885 10.7738L16.9824 10.7654L16.9834 10.7654C16.6593 10.2342 16.4727 9.61014 16.4727 8.94243C16.4727 7.00644 18.0421 5.43701 19.9781 5.43701C21.9141 5.43701 23.4835 7.00644 23.4835 8.94243ZM19.9769 11.1859C21.2159 11.1859 22.2203 10.1815 22.2203 8.94244C22.2203 7.70341 21.2159 6.69897 19.9769 6.69897C18.7378 6.69897 17.7334 7.70341 17.7334 8.94244C17.7334 10.1815 18.7378 11.1859 19.9769 11.1859Z" fill="#00A6ED"/>
<path fill-rule="evenodd" clip-rule="evenodd" d="M18.7551 16.7399H15.0627C14.9109 16.7399 14.7654 16.8002 14.6581 16.9075L7.59911 23.9699C7.49188 24.0772 7.43164 24.2227 7.43164 24.3744V30.3338C7.43164 30.8436 8.04803 31.0988 8.40841 30.7383L10.7655 28.38L15.9981 33.5936C16.222 33.8166 16.5842 33.8159 16.8072 33.5921C17.0303 33.3683 17.0296 33.006 16.8058 32.783L11.5744 27.5707L14.2167 24.9272L22.6266 33.3064C22.7082 33.3877 22.8081 33.4392 22.9129 33.4611C23.1289 33.5743 23.4018 33.54 23.5831 33.3586L32.1513 24.7862C32.2586 24.6789 32.3188 24.5334 32.3188 24.3817V18.1216C32.3188 17.6118 31.7024 17.3566 31.3421 17.7171L19.9953 29.0694L15.0256 24.1179L21.4239 17.7164C21.6524 17.4878 21.6333 17.1564 21.4588 16.9445C21.4388 17.0159 21.4233 17.0803 21.4125 17.1368C21.2534 17.9725 20.4463 18.1422 20.14 18.1427C19.8339 18.1431 19.0236 17.9754 18.8636 17.1374C18.8434 17.0319 18.8067 16.8979 18.7551 16.7399ZM23.8968 17.6233C24.1198 17.8472 24.1192 18.2094 23.8953 18.4324L23.0884 19.2364C22.8646 19.4594 22.5023 19.4588 22.2793 19.2349C22.0563 19.0111 22.0569 18.6489 22.2808 18.4258L23.0877 17.6218C23.3116 17.3988 23.6738 17.3995 23.8968 17.6233ZM11.3301 18.6047C11.5539 18.3817 11.5546 18.0194 11.3316 17.7956C11.1085 17.5718 10.7463 17.5711 10.5225 17.7941L9.88843 18.4258C9.66459 18.6489 9.66393 19.0111 9.88695 19.2349C10.11 19.4588 10.4722 19.4594 10.696 19.2364L11.3301 18.6047ZM19.8045 21.9879C20.0275 22.2117 20.0268 22.574 19.803 22.797L18.9384 23.6584C18.7146 23.8814 18.3523 23.8808 18.1293 23.6569C17.9063 23.4331 17.9069 23.0709 18.1308 22.8479L18.9954 21.9864C19.2192 21.7634 19.5814 21.7641 19.8045 21.9879ZM31.2272 29.0134C31.4511 28.7904 31.4517 28.4281 31.2287 28.2043C31.0057 27.9804 30.6434 27.9798 30.4196 28.2028L29.555 29.0642C29.3312 29.2872 29.3305 29.6495 29.5535 29.8733C29.7766 30.0972 30.1388 30.0978 30.3626 29.8748L31.2272 29.0134ZM9.95067 30.8337C9.95067 30.5177 10.2068 30.2616 10.5228 30.2616H11.5603C11.8763 30.2616 12.1324 30.5177 12.1324 30.8337C12.1324 31.1497 11.8763 31.4058 11.5603 31.4058H10.5228C10.2068 31.4058 9.95067 31.1497 9.95067 30.8337Z" fill="#1A1F36"/>
</svg>
