<svg width="40" height="40" viewBox="0 0 40 40" fill="none" xmlns="http://www.w3.org/2000/svg">
<path fill-rule="evenodd" clip-rule="evenodd" d="M16.1955 11.1692H5.67969V35H34.3214V11.1692H23.7629C23.7579 11.1764 23.7528 11.1836 23.7477 11.1907C23.2887 11.9184 22.6698 13.057 22.1352 14.1733C21.9016 14.661 21.6976 15.1171 21.533 15.5161H33.0242V33.7443H6.94385V15.5161H18.4316C18.2733 15.125 18.0779 14.6795 17.8545 14.2048C17.3351 13.101 16.7345 11.9854 16.2793 11.2843C16.2508 11.2464 16.2228 11.208 16.1955 11.1692ZM8.14062 12.8517H9.37132V14.0824H8.14062V12.8517ZM12.0549 12.8517H10.8242V14.0824H12.0549V12.8517ZM13.5107 12.8517H14.7414V14.0824H13.5107V12.8517Z" fill="#1A1F36"/>
<path fill-rule="evenodd" clip-rule="evenodd" d="M23.4835 8.50542C23.4835 9.27839 23.2333 9.99292 22.8095 10.5725C21.978 11.8859 20.6996 14.3925 20.1897 15.888C20.1514 16.0003 19.8038 16.0001 19.766 15.8878C19.2671 14.4061 18.027 11.9059 17.1883 10.6283C17.117 10.5347 17.0503 10.4374 16.9885 10.3368L16.9824 10.3284L16.9834 10.3284C16.6593 9.79723 16.4727 9.17312 16.4727 8.50542C16.4727 6.56943 18.0421 5 19.9781 5C21.9141 5 23.4835 6.56943 23.4835 8.50542ZM19.9769 10.7489C21.2159 10.7489 22.2203 9.74446 22.2203 8.50543C22.2203 7.2664 21.2159 6.26196 19.9769 6.26196C18.7378 6.26196 17.7334 7.2664 17.7334 8.50543C17.7334 9.74446 18.7378 10.7489 19.9769 10.7489Z" fill="#00A6ED"/>
<path fill-rule="evenodd" clip-rule="evenodd" d="M18.755 16.3027H15.0627C14.9109 16.3027 14.7654 16.363 14.6581 16.4704L7.59911 23.5328C7.49188 23.6401 7.43164 23.7856 7.43164 23.9373V29.8967C7.43164 30.4065 8.04803 30.6617 8.40841 30.3012L10.7655 27.9429L15.9981 33.1564C16.222 33.3795 16.5842 33.3788 16.8072 33.155C17.0303 32.9311 17.0296 32.5689 16.8058 32.3459L11.5744 27.1336L14.2167 24.4901L22.6266 32.8693C22.7082 32.9505 22.8081 33.0021 22.9129 33.024C23.1289 33.1372 23.4018 33.1029 23.5831 32.9215L32.1513 24.3491C32.2586 24.2418 32.3188 24.0963 32.3188 23.9446V17.6844C32.3188 17.1747 31.7024 16.9194 31.3421 17.28L19.9953 28.6323L15.0256 23.6808L21.4239 17.2793C21.6524 17.0507 21.6333 16.7193 21.4588 16.5074C21.4388 16.5788 21.4233 16.6431 21.4125 16.6997C21.2534 17.5354 20.4463 17.7051 20.14 17.7056C19.8339 17.706 19.0236 17.5383 18.8636 16.7003C18.8434 16.5948 18.8067 16.4608 18.755 16.3027ZM23.8968 17.1862C24.1198 17.41 24.1192 17.7723 23.8953 17.9953L23.0884 18.7993C22.8646 19.0223 22.5023 19.0216 22.2793 18.7978C22.0563 18.574 22.0569 18.2117 22.2808 17.9887L23.0877 17.1847C23.3116 16.9617 23.6738 16.9624 23.8968 17.1862ZM11.3301 18.1676C11.5539 17.9446 11.5546 17.5823 11.3316 17.3585C11.1085 17.1346 10.7463 17.134 10.5225 17.357L9.88843 17.9887C9.66459 18.2117 9.66393 18.574 9.88695 18.7978C10.11 19.0216 10.4722 19.0223 10.696 18.7993L11.3301 18.1676ZM19.8045 21.5508C20.0275 21.7746 20.0268 22.1368 19.803 22.3599L18.9384 23.2213C18.7146 23.4443 18.3523 23.4436 18.1293 23.2198C17.9063 22.996 17.9069 22.6337 18.1308 22.4107L18.9954 21.5493C19.2192 21.3263 19.5814 21.3269 19.8045 21.5508ZM31.2272 28.5762C31.4511 28.3532 31.4517 27.991 31.2287 27.7671C31.0057 27.5433 30.6434 27.5426 30.4196 27.7657L29.555 28.6271C29.3312 28.8501 29.3305 29.2124 29.5535 29.4362C29.7766 29.66 30.1388 29.6607 30.3626 29.4377L31.2272 28.5762ZM9.95067 30.3966C9.95067 30.0806 10.2068 29.8245 10.5228 29.8245H11.5603C11.8763 29.8245 12.1324 30.0806 12.1324 30.3966C12.1324 30.7126 11.8763 30.9687 11.5603 30.9687H10.5228C10.2068 30.9687 9.95067 30.7126 9.95067 30.3966Z" fill="#1A1F36"/>
</svg>
