<svg width="300" height="76" viewBox="0 0 300 76" fill="none" xmlns="http://www.w3.org/2000/svg">
<g style="mix-blend-mode:color-dodge">
<path d="M0 3.45454H14.0183V48.9558C14.0183 52.9039 15.0313 56.0952 17.0572 58.5299C19.1485 60.8987 22.2201 62.0831 26.272 62.0831C30.3239 62.0831 33.3629 60.8987 35.3888 58.5299C37.4801 56.0952 38.5258 52.9039 38.5258 48.9558V3.45454H52.5441V49.8442C52.5441 53.9238 51.8905 57.51 50.5835 60.6026C49.2764 63.6952 47.4138 66.2944 44.9958 68.4C42.643 70.5056 39.8655 72.0848 36.6632 73.1377C33.4609 74.2563 29.9972 74.8156 26.272 74.8156C22.4815 74.8156 18.9851 74.2563 15.7828 73.1377C12.5805 72.0848 9.803 70.5056 7.45028 68.4C5.09756 66.2944 3.26767 63.6952 1.9606 60.6026C0.653533 57.51 0 53.9238 0 49.8442V3.45454Z" fill="url(#paint0_linear_2997_4027)"/>
<path d="M115.652 3.45454H129.18V76L80.3608 29.7091V72.5455H66.8327V0L115.652 46.2909V3.45454Z" fill="url(#paint1_linear_2997_4027)"/>
<path d="M144.089 3.45454H158.303V72.5455H144.089V3.45454Z" fill="url(#paint2_linear_2997_4027)"/>
<path d="M183.977 38C183.977 42.4087 184.892 46.3238 186.722 49.7455C188.552 53.1671 191.068 55.8649 194.27 57.839C197.472 59.813 201.198 60.8 205.445 60.8C209.693 60.8 213.419 59.813 216.621 57.839C219.823 55.8649 222.307 53.1671 224.071 49.7455C225.901 46.3238 226.816 42.4087 226.816 38C226.816 33.5913 225.934 29.6762 224.169 26.2545C222.405 22.8329 219.921 20.1351 216.719 18.161C213.517 16.187 209.759 15.2 205.445 15.2C201.198 15.2 197.472 16.187 194.27 18.161C191.068 20.1351 188.552 22.8329 186.722 26.2545C184.892 29.6762 183.977 33.5913 183.977 38ZM169.174 38C169.174 32.7359 170.089 27.9325 171.919 23.5896C173.749 19.1809 176.298 15.3645 179.566 12.1403C182.833 8.91602 186.656 6.44848 191.035 4.73766C195.479 2.96104 200.283 2.07272 205.445 2.07272C210.674 2.07272 215.477 2.96104 219.856 4.73766C224.235 6.44848 228.058 8.91602 231.325 12.1403C234.658 15.3645 237.207 19.1809 238.972 23.5896C240.802 27.9325 241.717 32.7359 241.717 38C241.717 43.1983 240.802 48.0346 238.972 52.5091C237.207 56.9177 234.691 60.7671 231.423 64.0571C228.221 67.3472 224.398 69.9134 219.954 71.7558C215.575 73.5325 210.739 74.4208 205.445 74.4208C200.152 74.4208 195.283 73.5325 190.839 71.7558C186.46 69.9134 182.637 67.3472 179.37 64.0571C176.102 60.7671 173.586 56.9177 171.821 52.5091C170.057 48.0346 169.174 43.1983 169.174 38Z" fill="url(#paint3_linear_2997_4027)"/>
<path d="M258.533 49.3506C259.971 51.9169 261.54 54.1541 263.239 56.0623C265.003 57.9706 266.931 59.4511 269.023 60.5039C271.114 61.5567 273.369 62.0831 275.787 62.0831C278.597 62.0831 280.884 61.3593 282.649 59.9117C284.413 58.4641 285.296 56.49 285.296 53.9896C285.296 51.8182 284.74 50.0745 283.629 48.7584C282.583 47.4424 280.982 46.2909 278.826 45.3039C276.734 44.2511 274.153 43.1325 271.081 41.948C269.447 41.3558 267.552 40.5662 265.395 39.5792C263.304 38.5264 261.311 37.2104 259.416 35.6312C257.52 33.9861 255.952 32.0121 254.71 29.7091C253.468 27.3403 252.848 24.5108 252.848 21.2208C252.848 17.2727 253.828 13.884 255.789 11.0545C257.814 8.1593 260.527 5.95497 263.925 4.44155C267.389 2.86233 271.245 2.07272 275.493 2.07272C279.871 2.07272 283.629 2.82943 286.766 4.34285C289.968 5.79047 292.615 7.6658 294.706 9.96883C296.863 12.2061 298.53 14.542 299.706 16.9766L288.727 23.0961C287.812 21.4511 286.701 19.9706 285.394 18.6545C284.152 17.2727 282.714 16.187 281.08 15.3974C279.446 14.542 277.584 14.1143 275.493 14.1143C272.748 14.1143 270.689 14.7723 269.317 16.0883C267.944 17.3385 267.258 18.819 267.258 20.5299C267.258 22.2407 267.813 23.7541 268.925 25.0701C270.036 26.3203 271.735 27.5377 274.022 28.7221C276.309 29.8407 279.185 30.9922 282.649 32.1766C284.871 32.9662 286.995 33.9532 289.021 35.1377C291.112 36.3221 292.975 37.7697 294.608 39.4805C296.308 41.1255 297.615 43.0996 298.53 45.4026C299.51 47.6398 300 50.239 300 53.2C300 56.5558 299.346 59.5498 298.039 62.1818C296.732 64.8139 294.935 67.0511 292.648 68.8935C290.36 70.6701 287.779 72.019 284.903 72.9403C282.093 73.9273 279.12 74.4208 275.983 74.4208C271.8 74.4208 267.879 73.6312 264.219 72.0519C260.625 70.4069 257.488 68.2026 254.808 65.439C252.129 62.6753 250.037 59.6814 248.534 56.4571L258.533 49.3506Z" fill="url(#paint4_linear_2997_4027)"/>
</g>
<defs>
<linearGradient id="paint0_linear_2997_4027" x1="-6.96012" y1="27.5411" x2="102.954" y2="311.633" gradientUnits="userSpaceOnUse">
<stop stop-color="#00FFB2"/>
<stop offset="1" stop-color="#4E5FFF"/>
</linearGradient>
<linearGradient id="paint1_linear_2997_4027" x1="-6.96012" y1="27.5411" x2="102.954" y2="311.633" gradientUnits="userSpaceOnUse">
<stop stop-color="#00FFB2"/>
<stop offset="1" stop-color="#4E5FFF"/>
</linearGradient>
<linearGradient id="paint2_linear_2997_4027" x1="-6.96012" y1="27.5411" x2="102.954" y2="311.633" gradientUnits="userSpaceOnUse">
<stop stop-color="#00FFB2"/>
<stop offset="1" stop-color="#4E5FFF"/>
</linearGradient>
<linearGradient id="paint3_linear_2997_4027" x1="-6.96012" y1="27.5411" x2="102.954" y2="311.633" gradientUnits="userSpaceOnUse">
<stop stop-color="#00FFB2"/>
<stop offset="1" stop-color="#4E5FFF"/>
</linearGradient>
<linearGradient id="paint4_linear_2997_4027" x1="-6.96012" y1="27.5411" x2="102.954" y2="311.633" gradientUnits="userSpaceOnUse">
<stop stop-color="#00FFB2"/>
<stop offset="1" stop-color="#4E5FFF"/>
</linearGradient>
</defs>
</svg>
