<svg width="40" height="41" viewBox="0 0 40 41" fill="none" xmlns="http://www.w3.org/2000/svg">
<path fill-rule="evenodd" clip-rule="evenodd" d="M14.2109 28.7122L14.2109 22.2793L15.4975 22.2793L15.4975 28.7122L14.2109 28.7122Z" fill="#7B3BE3"/>
<path fill-rule="evenodd" clip-rule="evenodd" d="M19.3574 30.3496L19.3574 23.9167L20.644 23.9167L20.644 30.3496L19.3574 30.3496Z" fill="#7B3BE3"/>
<path fill-rule="evenodd" clip-rule="evenodd" d="M19.3574 16.4311L19.3574 9.99829L20.644 9.99829L20.644 16.4311L19.3574 16.4311Z" fill="#7B3BE3"/>
<path fill-rule="evenodd" clip-rule="evenodd" d="M24.5039 28.7122L24.5039 22.2793L25.7905 22.2793L25.7905 28.7122L24.5039 28.7122Z" fill="#7B3BE3"/>
<path fill-rule="evenodd" clip-rule="evenodd" d="M19.9996 18.797C20.531 18.797 20.9618 18.3662 20.9618 17.8348C20.9618 17.3034 20.531 16.8726 19.9996 16.8726C19.4682 16.8726 19.0374 17.3034 19.0374 17.8348C19.0374 18.3662 19.4682 18.797 19.9996 18.797ZM19.9996 20.0571C21.2269 20.0571 22.2219 19.0621 22.2219 17.8348C22.2219 16.6075 21.2269 15.6125 19.9996 15.6125C18.7723 15.6125 17.7773 16.6075 17.7773 17.8348C17.7773 19.0621 18.7723 20.0571 19.9996 20.0571Z" fill="#7B3BE3"/>
<path fill-rule="evenodd" clip-rule="evenodd" d="M19.9996 23.943C20.531 23.943 20.9618 23.5122 20.9618 22.9808C20.9618 22.4494 20.531 22.0186 19.9996 22.0186C19.4682 22.0186 19.0374 22.4494 19.0374 22.9808C19.0374 23.5122 19.4682 23.943 19.9996 23.943ZM19.9996 25.2031C21.2269 25.2031 22.2219 24.2081 22.2219 22.9808C22.2219 21.7535 21.2269 20.7585 19.9996 20.7585C18.7723 20.7585 17.7773 21.7535 17.7773 22.9808C17.7773 24.2081 18.7723 25.2031 19.9996 25.2031Z" fill="#7B3BE3"/>
<path fill-rule="evenodd" clip-rule="evenodd" d="M14.8551 22.3056C15.3865 22.3056 15.8173 21.8748 15.8173 21.3434C15.8173 20.8119 15.3865 20.3812 14.8551 20.3812C14.3237 20.3812 13.8929 20.8119 13.8929 21.3434C13.8929 21.8748 14.3237 22.3056 14.8551 22.3056ZM14.8551 23.5656C16.0824 23.5656 17.0773 22.5707 17.0773 21.3434C17.0773 20.116 16.0824 19.1211 14.8551 19.1211C13.6278 19.1211 12.6328 20.116 12.6328 21.3434C12.6328 22.5707 13.6278 23.5656 14.8551 23.5656Z" fill="#7B3BE3"/>
<path fill-rule="evenodd" clip-rule="evenodd" d="M25.148 22.3056C25.6794 22.3056 26.1102 21.8748 26.1102 21.3434C26.1102 20.8119 25.6794 20.3812 25.148 20.3812C24.6166 20.3812 24.1858 20.8119 24.1858 21.3434C24.1858 21.8748 24.6166 22.3056 25.148 22.3056ZM25.148 23.5656C26.3754 23.5656 27.3703 22.5707 27.3703 21.3434C27.3703 20.116 26.3754 19.1211 25.148 19.1211C23.9207 19.1211 22.9258 20.116 22.9258 21.3434C22.9258 22.5707 23.9207 23.5656 25.148 23.5656Z" fill="#7B3BE3"/>
<path fill-rule="evenodd" clip-rule="evenodd" d="M17.1932 5.43677L16.7729 9.40659C15.9705 9.64168 15.2046 9.96216 14.4857 10.3575L11.3787 7.84546L7.40887 11.8152L9.92905 14.9323C9.5392 15.6479 9.22339 16.4097 8.99191 17.2073L5 17.63V23.2441L9.0096 23.6687C9.24305 24.4568 9.55896 25.2095 9.94734 25.9168L7.40686 29.059L11.3767 33.0288L14.5277 30.4811C15.2325 30.8649 15.9821 31.1769 16.7665 31.4072L17.1932 35.4372H22.8074L23.234 31.4078C24.0186 31.1776 24.7682 30.8658 25.4732 30.4821L28.623 33.0288L32.5928 29.059L30.0541 25.9189C30.443 25.2109 30.7594 24.4574 30.9931 23.6684L34.9997 23.2441V17.63L31.0108 17.2076C30.7791 16.4093 30.463 15.6469 30.0727 14.9307L32.5915 11.8153L28.6218 7.84546L25.5156 10.3568C24.7965 9.96144 24.0303 9.64099 23.2276 9.40599L22.8074 5.43677H17.1932ZM20.0013 29.2969C24.9106 29.2969 28.8903 25.3171 28.8903 20.4078C28.8903 15.4986 24.9106 11.5188 20.0013 11.5188C15.092 11.5188 11.1123 15.4986 11.1123 20.4078C11.1123 25.3171 15.092 29.2969 20.0013 29.2969Z" fill="#1A1F36"/>
</svg>
