<svg width="40" height="40" viewBox="0 0 40 40" fill="none" xmlns="http://www.w3.org/2000/svg">
<path d="M9.0332 27.8061V26.2681H9.75868C11.4896 26.2681 12.8928 24.8649 12.8928 23.134H14.4598C14.4598 25.7144 12.368 27.8061 9.7877 27.8061H9.0332Z" fill="#1A1F36"/>
<path d="M12.7332 6.85489L12.4216 6.69943C11.9914 6.48479 11.4686 6.65957 11.2539 7.08981L8.40389 12.8026C8.18925 13.2328 8.36403 13.7556 8.79426 13.9702L24.7381 21.9245C26.1435 22.6256 27.8513 22.0547 28.5524 20.6492L29.988 17.7717C29.796 17.8058 29.6056 17.8541 29.4184 17.9167L28.5931 18.1926C27.3376 18.6123 25.9668 18.5161 24.7823 17.9251L11.9587 11.5276C11.2703 11.1842 10.9907 10.3477 11.3341 9.65934L12.7332 6.85489Z" fill="#7B3BE3"/>
<path d="M34.2868 16.147L16.3694 7.20819C15.1719 6.61077 13.7169 7.09723 13.1195 8.29472C12.522 9.49222 13.0085 10.9473 14.206 11.5447L24.8782 16.869C26.0506 17.4538 27.4072 17.549 28.6497 17.1336L28.8828 17.0557C30.2822 16.5879 31.8102 16.6951 33.1306 17.3538L33.5743 17.5752C33.9686 17.7719 34.4479 17.6117 34.6446 17.2173C34.8414 16.8229 34.6812 16.3437 34.2868 16.147Z" fill="#1A1F36"/>
<path d="M30.2402 19.4795L31.3309 20.0236L30.5277 21.6336L29.437 21.0895L30.2402 19.4795Z" fill="#7B3BE3"/>
<path fill-rule="evenodd" clip-rule="evenodd" d="M16.8726 18.9724L12.4062 16.7441L11.4735 18.6138C10.8582 19.8471 11.3592 21.3458 12.5926 21.9611C13.8259 22.5764 15.3246 22.0753 15.9399 20.842L16.8726 18.9724ZM15.0177 20.3498C14.6528 21.0812 13.7641 21.3783 13.0327 21.0134C12.3013 20.6485 12.0042 19.7598 12.369 19.0284C12.7339 18.297 13.6227 17.9999 14.3541 18.3648C15.0855 18.7297 15.3826 19.6184 15.0177 20.3498ZM14.1349 19.9091C14.0133 20.1529 13.7171 20.252 13.4733 20.1303C13.2295 20.0087 13.1304 19.7125 13.2521 19.4687C13.3737 19.2248 13.6699 19.1258 13.9137 19.2474C14.1575 19.3691 14.2566 19.6653 14.1349 19.9091Z" fill="#1A1F36"/>
<path d="M5 5.92552C5 5.68512 5.19489 5.49023 5.43529 5.49023C5.67569 5.49023 5.87058 5.68512 5.87058 5.92552V34.0742C5.87058 34.3146 5.67569 34.5095 5.43529 34.5095C5.19489 34.5095 5 34.3146 5 34.0742V5.92552Z" fill="#1A1F36"/>
<path d="M5.87109 22.844C7.08914 22.844 8.07656 23.8314 8.07656 25.0495V28.88C8.07656 30.0981 7.08914 31.0855 5.87109 31.0855V22.844Z" fill="#1A1F36"/>
</svg>
